<?xml version="1.0" encoding="UTF-8" standalone="no"?>
<!-- Created with Inkscape (http://www.inkscape.org/) -->

<svg
   xmlns:dc="http://purl.org/dc/elements/1.1/"
   xmlns:cc="http://creativecommons.org/ns#"
   xmlns:rdf="http://www.w3.org/1999/02/22-rdf-syntax-ns#"
   xmlns:svg="http://www.w3.org/2000/svg"
   xmlns="http://www.w3.org/2000/svg"
   xmlns:xlink="http://www.w3.org/1999/xlink"
   xmlns:sodipodi="http://sodipodi.sourceforge.net/DTD/sodipodi-0.dtd"
   xmlns:inkscape="http://www.inkscape.org/namespaces/inkscape"
   width="210mm"
   height="297mm"
   viewBox="0 0 744.09448819 1052.3622047"
   id="svg2"
   version="1.1"
   inkscape:version="0.91 r13725"
   sodipodi:docname="drawing.svg">
  <defs
     id="defs4">
    <clipPath
       clipPathUnits="userSpaceOnUse"
       id="clipPath4202">
      <path
         sodipodi:nodetypes="cccc"
         inkscape:connector-curvature="0"
         id="path4204"
         d="m 1536.8308,156.89866 c -3.5862,-5.42562 -7.6874,-12.11544 -25.3774,-11.69941 -9.8123,1.16637 -21.0925,8.29503 -26.1517,15.82862 11.6616,-1.90868 38.9868,-6.00595 51.5291,-4.12921 z"
         style="fill:none;fill-rule:evenodd;stroke:#000000;stroke-width:0.09634807;stroke-linecap:butt;stroke-linejoin:miter;stroke-miterlimit:4;stroke-dasharray:none;stroke-opacity:1" />
    </clipPath>
    <clipPath
       clipPathUnits="userSpaceOnUse"
       id="clipPath4228">
      <path
         sodipodi:nodetypes="cccc"
         inkscape:connector-curvature="0"
         id="path4230"
         d="m 1538.0357,157.45149 c -3.7221,-5.63127 -7.9788,-12.57466 -26.3393,-12.14286 -10.1842,1.21058 -21.8919,8.60944 -27.1429,16.42858 12.1036,-1.98103 40.4645,-6.2336 53.4822,-4.28572 z"
         style="fill:none;fill-rule:evenodd;stroke:#000000;stroke-width:0.1;stroke-linecap:butt;stroke-linejoin:miter;stroke-miterlimit:4;stroke-dasharray:none;stroke-opacity:1" />
    </clipPath>
    <clipPath
       clipPathUnits="userSpaceOnUse"
       id="clipPath4238">
      <path
         sodipodi:nodetypes="cccc"
         inkscape:connector-curvature="0"
         id="path4240"
         d="m 1538.0357,157.45149 c -3.7221,-5.63127 -7.9788,-12.57466 -26.3393,-12.14286 -10.1842,1.21058 -21.8919,8.60944 -27.1429,16.42858 12.1036,-1.98103 40.4645,-6.2336 53.4822,-4.28572 z"
         style="fill:none;fill-rule:evenodd;stroke:#000000;stroke-width:0.1;stroke-linecap:butt;stroke-linejoin:miter;stroke-miterlimit:4;stroke-dasharray:none;stroke-opacity:1" />
    </clipPath>
    <clipPath
       clipPathUnits="userSpaceOnUse"
       id="clipPath4244">
      <path
         sodipodi:nodetypes="cccc"
         inkscape:connector-curvature="0"
         id="path4246"
         d="m 1538.0357,157.45149 c -3.7221,-5.63127 -7.9788,-12.57466 -26.3393,-12.14286 -10.1842,1.21058 -21.8919,8.60944 -27.1429,16.42858 12.1036,-1.98103 40.4645,-6.2336 53.4822,-4.28572 z"
         style="fill:none;fill-rule:evenodd;stroke:#000000;stroke-width:0.1;stroke-linecap:butt;stroke-linejoin:miter;stroke-miterlimit:4;stroke-dasharray:none;stroke-opacity:1" />
    </clipPath>
    <clipPath
       clipPathUnits="userSpaceOnUse"
       id="clipPath4310">
      <path
         style="fill:none;fill-rule:evenodd;stroke:#000000;stroke-width:0.09237251;stroke-linecap:butt;stroke-linejoin:miter;stroke-miterlimit:4;stroke-dasharray:none;stroke-opacity:1"
         d="m 1538.2112,157.92658 c -3.4381,-5.20177 -6.4818,-12.55228 -23.4418,-12.15342 -9.4074,1.11823 -23.4225,8.20572 -29.5051,15.51958 3.2004,-0.79441 10.6481,-6.61331 14.0961,-5.17247 8.8956,5.6554 24.8289,-2.32293 38.8508,1.80631 z"
         id="path4312"
         inkscape:connector-curvature="0"
         sodipodi:nodetypes="ccccc" />
    </clipPath>
    <clipPath
       clipPathUnits="userSpaceOnUse"
       id="clipPath4280">
      <path
         style="fill:none;fill-rule:evenodd;stroke:#000000;stroke-width:0.1;stroke-linecap:butt;stroke-linejoin:miter;stroke-miterlimit:4;stroke-dasharray:none;stroke-opacity:1"
         d="m 1601.6043,148.29412 c 2.489,-6.27449 4.0835,-14.73832 22.1428,-18.07813 10.2161,-0.90207 26.6388,3.49868 34.7065,9.89906 -3.5674,-0.13177 -12.7499,-4.64525 -16.0837,-2.35364 -8.1712,7.96588 -26.8241,3.04674 -40.7656,10.53271 z"
         id="path4282"
         inkscape:connector-curvature="0"
         sodipodi:nodetypes="ccccc" />
    </clipPath>
    <clipPath
       clipPathUnits="userSpaceOnUse"
       id="clipPath4292">
      <path
         style="fill:none;fill-rule:evenodd;stroke:#000000;stroke-width:0.07508663;stroke-linecap:butt;stroke-linejoin:miter;stroke-miterlimit:4;stroke-dasharray:none;stroke-opacity:1"
         d="m 1537.8231,157.32673 c -4.8887,-0.43685 -11.4523,0.35055 -17.8992,-11.84524 -2.9248,-7.12375 -3.4314,-19.88 -0.6412,-27.09164 0.7009,2.58718 -0.4877,10.17739 1.8987,12.05673 7.5335,4.08249 8.1657,18.55338 16.6417,26.88015 z"
         id="path4294"
         inkscape:connector-curvature="0"
         sodipodi:nodetypes="ccccc" />
    </clipPath>
    <clipPath
       clipPathUnits="userSpaceOnUse"
       id="clipPath4302">
      <path
         style="fill:none;fill-rule:evenodd;stroke:#000000;stroke-width:0.1;stroke-linecap:butt;stroke-linejoin:miter;stroke-miterlimit:4;stroke-dasharray:none;stroke-opacity:1"
         d="m 1601.6043,148.29412 c 2.489,-6.27449 4.0835,-14.73832 22.1428,-18.07813 10.2161,-0.90207 26.6388,3.49868 34.7065,9.89906 -3.5674,-0.13177 -12.7499,-4.64525 -16.0837,-2.35364 -8.1712,7.96588 -26.8241,3.04674 -40.7656,10.53271 z"
         id="path4304"
         inkscape:connector-curvature="0"
         sodipodi:nodetypes="ccccc" />
    </clipPath>
    <clipPath
       clipPathUnits="userSpaceOnUse"
       id="clipPath4590">
      <path
         sodipodi:nodetypes="ccc"
         inkscape:connector-curvature="0"
         id="path4592"
         d="m 1542.8532,158.21149 c -10.3766,-25.57214 -29.2441,-16.92565 -47.5819,-5.99495 13.7997,8.37429 30.7799,7.22784 47.5819,5.99495 z"
         style="fill:none;fill-rule:evenodd;stroke:#ff0000;stroke-width:0.38993919;stroke-linecap:butt;stroke-linejoin:miter;stroke-miterlimit:4;stroke-dasharray:none;stroke-opacity:1" />
    </clipPath>
    <clipPath
       clipPathUnits="userSpaceOnUse"
       id="clipPath4604">
      <path
         sodipodi:nodetypes="ccc"
         inkscape:connector-curvature="0"
         id="path4606"
         d="m 1534.9943,157.00268 c -2.381,-11.49496 -10.9381,-9.32384 -19.4487,-6.15639 5.1318,4.56184 12.3242,5.38403 19.4487,6.15639 z"
         style="fill:none;fill-rule:evenodd;stroke:#ff0000;stroke-width:0.16586737;stroke-linecap:butt;stroke-linejoin:miter;stroke-miterlimit:4;stroke-dasharray:none;stroke-opacity:1" />
    </clipPath>
    <clipPath
       clipPathUnits="userSpaceOnUse"
       id="clipPath4756">
      <path
         sodipodi:nodetypes="ccsssc"
         inkscape:connector-curvature="0"
         id="path4758"
         d="m 1504.701,158.51234 c 2.8832,-7.93198 5.9285,-17.74608 24.5858,-16.37139 6.2324,0.12491 5.1549,6.89555 4.4214,9.54666 -1.5111,5.4619 -6.3354,5.84077 -10.1658,6.82473 -3.3433,0.85884 -7.6653,-4.02473 -14.7055,0.22976 -1.4874,0.89888 -2.9443,0.2832 -4.1359,-0.22976 z"
         style="fill:none;fill-rule:evenodd;stroke:#000000;stroke-width:0.12997973;stroke-linecap:butt;stroke-linejoin:miter;stroke-miterlimit:4;stroke-dasharray:none;stroke-opacity:1" />
    </clipPath>
    <clipPath
       clipPathUnits="userSpaceOnUse"
       id="clipPath4788">
      <path
         sodipodi:nodetypes="ccsssc"
         inkscape:connector-curvature="0"
         id="path4790"
         d="m 183.67099,428.1637 c 2.21817,-6.10247 4.56109,-13.65296 18.91511,-12.59534 4.79488,0.0961 3.96593,5.3051 3.40164,7.34473 -1.16257,4.20212 -4.87418,4.4936 -7.82107,5.25061 -2.57216,0.66075 -5.89734,-3.09643 -11.3137,0.17677 -1.14435,0.69155 -2.2652,0.21788 -3.18198,-0.17677 z"
         style="fill:none;fill-rule:evenodd;stroke:#000000;stroke-width:0.1;stroke-linecap:butt;stroke-linejoin:miter;stroke-miterlimit:4;stroke-dasharray:none;stroke-opacity:1" />
    </clipPath>
    <filter
       style="color-interpolation-filters:sRGB;"
       inkscape:label="Posterize Basic"
       id="filter5030">
      <feGaussianBlur
         stdDeviation="2.7"
         result="blur1"
         id="feGaussianBlur5032" />
      <feComponentTransfer
         in="blur1"
         result="component1"
         id="feComponentTransfer5034">
        <feFuncR
           type="discrete"
           tableValues="0 0.166667 0.333333 0.5 0.666667 0.833333 1 1"
           id="feFuncR5036" />
        <feFuncG
           type="discrete"
           tableValues="0 0.166667 0.333333 0.5 0.666667 0.833333 1 1"
           id="feFuncG5038" />
        <feFuncB
           type="discrete"
           tableValues="0 0.166667 0.333333 0.5 0.666667 0.833333 1 1"
           id="feFuncB5040" />
      </feComponentTransfer>
      <feComposite
         in="component1"
         in2="SourceGraphic"
         operator="in"
         id="feComposite5042" />
    </filter>
    <radialGradient
       inkscape:collect="always"
       xlink:href="#linearGradient4806"
       id="radialGradient4435"
       gradientUnits="userSpaceOnUse"
       gradientTransform="matrix(1,0,0,0.36909527,0,266.54852)"
       cx="125.7819"
       cy="422.48618"
       fx="125.7819"
       fy="422.48618"
       r="18.303576" />
    <linearGradient
       inkscape:collect="always"
       id="linearGradient4806">
      <stop
         style="stop-color:#ffffff;stop-opacity:1"
         offset="0"
         id="stop4808" />
      <stop
         style="stop-color:#cccccc;stop-opacity:1"
         offset="1"
         id="stop4810" />
    </linearGradient>
    <clipPath
       clipPathUnits="userSpaceOnUse"
       id="clipPath4590-3">
      <path
         sodipodi:nodetypes="ccc"
         inkscape:connector-curvature="0"
         id="path4592-6"
         d="m 1542.8532,158.21149 c -10.3766,-25.57214 -29.2441,-16.92565 -47.5819,-5.99495 13.7997,8.37429 30.7799,7.22784 47.5819,5.99495 z"
         style="fill:none;fill-rule:evenodd;stroke:#ff0000;stroke-width:0.38993919;stroke-linecap:butt;stroke-linejoin:miter;stroke-miterlimit:4;stroke-dasharray:none;stroke-opacity:1" />
    </clipPath>
    <radialGradient
       inkscape:collect="always"
       xlink:href="#linearGradient4183"
       id="radialGradient4437"
       gradientUnits="userSpaceOnUse"
       gradientTransform="matrix(2.7859616,0.00853939,-0.00779543,2.5432292,-2710.5753,-241.143)"
       cx="1517.1244"
       cy="148.23975"
       fx="1517.1244"
       fy="148.23975"
       r="6.3905501" />
    <linearGradient
       inkscape:collect="always"
       id="linearGradient4183">
      <stop
         style="stop-color:#2b1100;stop-opacity:1"
         offset="0"
         id="stop4185" />
      <stop
         style="stop-color:#28170b;stop-opacity:0;"
         offset="1"
         id="stop4187" />
    </linearGradient>
    <clipPath
       clipPathUnits="userSpaceOnUse"
       id="clipPath4604-7">
      <path
         sodipodi:nodetypes="ccc"
         inkscape:connector-curvature="0"
         id="path4606-5"
         d="m 1534.9943,157.00268 c -2.381,-11.49496 -10.9381,-9.32384 -19.4487,-6.15639 5.1318,4.56184 12.3242,5.38403 19.4487,6.15639 z"
         style="fill:none;fill-rule:evenodd;stroke:#ff0000;stroke-width:0.16586737;stroke-linecap:butt;stroke-linejoin:miter;stroke-miterlimit:4;stroke-dasharray:none;stroke-opacity:1" />
    </clipPath>
    <radialGradient
       inkscape:collect="always"
       xlink:href="#linearGradient4806"
       id="radialGradient4439"
       gradientUnits="userSpaceOnUse"
       gradientTransform="matrix(1.1082256,-0.26283257,0.13445376,0.56692023,-77.858822,234.05785)"
       cx="195.04179"
       cy="422.08047"
       fx="195.04179"
       fy="422.08047"
       r="11.433909" />
    <clipPath
       clipPathUnits="userSpaceOnUse"
       id="clipPath4756-3">
      <path
         sodipodi:nodetypes="ccsssc"
         inkscape:connector-curvature="0"
         id="path4758-5"
         d="m 1504.701,158.51234 c 2.8832,-7.93198 5.9285,-17.74608 24.5858,-16.37139 6.2324,0.12491 5.1549,6.89555 4.4214,9.54666 -1.5111,5.4619 -6.3354,5.84077 -10.1658,6.82473 -3.3433,0.85884 -7.6653,-4.02473 -14.7055,0.22976 -1.4874,0.89888 -2.9443,0.2832 -4.1359,-0.22976 z"
         style="fill:none;fill-rule:evenodd;stroke:#000000;stroke-width:0.12997973;stroke-linecap:butt;stroke-linejoin:miter;stroke-miterlimit:4;stroke-dasharray:none;stroke-opacity:1" />
    </clipPath>
    <radialGradient
       inkscape:collect="always"
       xlink:href="#linearGradient4183"
       id="radialGradient4441"
       gradientUnits="userSpaceOnUse"
       gradientTransform="matrix(2.7859616,0.00853939,-0.00779543,2.5432292,-2710.5753,-241.143)"
       cx="1517.1244"
       cy="148.23975"
       fx="1517.1244"
       fy="148.23975"
       r="6.3905501" />
    <clipPath
       clipPathUnits="userSpaceOnUse"
       id="clipPath4788-6">
      <path
         sodipodi:nodetypes="ccsssc"
         inkscape:connector-curvature="0"
         id="path4790-2"
         d="m 183.67099,428.1637 c 2.21817,-6.10247 4.56109,-13.65296 18.91511,-12.59534 4.79488,0.0961 3.96593,5.3051 3.40164,7.34473 -1.16257,4.20212 -4.87418,4.4936 -7.82107,5.25061 -2.57216,0.66075 -5.89734,-3.09643 -11.3137,0.17677 -1.14435,0.69155 -2.2652,0.21788 -3.18198,-0.17677 z"
         style="fill:none;fill-rule:evenodd;stroke:#000000;stroke-width:0.1;stroke-linecap:butt;stroke-linejoin:miter;stroke-miterlimit:4;stroke-dasharray:none;stroke-opacity:1" />
    </clipPath>
  </defs>
  <sodipodi:namedview
     id="base"
     pagecolor="#ffffff"
     bordercolor="#666666"
     borderopacity="1.0"
     inkscape:pageopacity="0.0"
     inkscape:pageshadow="2"
     inkscape:zoom="0.3535534"
     inkscape:cx="451.44734"
     inkscape:cy="461.99149"
     inkscape:document-units="px"
     inkscape:current-layer="layer1"
     showgrid="false"
     inkscape:window-width="1366"
     inkscape:window-height="716"
     inkscape:window-x="0"
     inkscape:window-y="24"
     inkscape:window-maximized="1"
     inkscape:object-nodes="false"
     showguides="true"
     inkscape:guide-bbox="true"
     inkscape:object-paths="false"
     inkscape:snap-intersection-paths="false"
     inkscape:snap-smooth-nodes="false" />
  <metadata
     id="metadata7">
    <rdf:RDF>
      <cc:Work
         rdf:about="">
        <dc:format>image/svg+xml</dc:format>
        <dc:type
           rdf:resource="http://purl.org/dc/dcmitype/StillImage" />
      </cc:Work>
    </rdf:RDF>
  </metadata>
  <g
     inkscape:label="model"
     inkscape:groupmode="layer"
     id="layer1"
     style="display:inline">
    <image
       sodipodi:absref="/media/pantana/Pantana/Hiburan/Gambar/Inkscape/sket-digital/WhatsApp Image 2017-03-21 at 17.50.45.jpeg"
       xlink:href="WhatsApp Image 2017-03-21 at 17.50.45.jpeg"
       y="102.24345"
       x="-985.72449"
       id="image4412"
       style="fill:#502d16;fill-opacity:1;filter:url(#filter5030);image-rendering:optimizeQuality"
       preserveAspectRatio="none"
       height="720"
       width="960" />
    <image
       sodipodi:absref="/media/pantana/Pantana/Hiburan/Gambar/Inkscape/sket-digital/WhatsApp Image 2017-03-21 at 17.50.45.jpeg"
       xlink:href="WhatsApp Image 2017-03-21 at 17.50.45.jpeg"
       width="960"
       height="720"
       preserveAspectRatio="none"
       style="fill:#fbf3d0;fill-opacity:1;image-rendering:optimizeQuality"
       id="image4144"
       x="249.93639"
       y="134.28386" />
  </g>
  <g
     inkscape:groupmode="layer"
     id="layer4"
     inkscape:label="muke">
    <g
       style="display:inline"
       id="g4846"
       transform="translate(282.24977,-699.04165)">
      <path
         style="fill:#59312e;fill-opacity:1;fill-rule:evenodd;stroke:none;stroke-width:0.06730201;stroke-linecap:butt;stroke-linejoin:miter;stroke-miterlimit:4;stroke-dasharray:none;stroke-opacity:1"
         d="m 330.26384,1274.5313 c -0.84062,2.1616 -2.62968,4.0498 -6.49989,5.7523 -1.80902,0.4901 -2.45168,-0.7441 -2.58715,-1.9259 -0.23487,-2.0495 4.1801,-0.7673 9.08704,-3.8264 z"
         id="path4779"
         inkscape:connector-curvature="0"
         sodipodi:nodetypes="ccsc" />
      <path
         style="opacity:1;fill:#ffccaa;fill-opacity:1;stroke:#ff0000;stroke-width:0.39934048;stroke-miterlimit:4;stroke-dasharray:none;stroke-dashoffset:0"
         d="m 370.96083,1232.2769 c 1.6777,22.1749 -8.35342,33.7649 -10.44302,47.773 -1.47398,9.8812 -22.87814,27.2317 -27.90747,43.437 -1.80572,5.2888 -6.47897,17.8188 -21.05439,23.3105 -2.62013,0.9872 -5.42799,1.4096 -8.56931,1.7143 -3.15395,0.306 -6.36433,1.4394 -10.18561,1.0913 -4.49454,-0.4094 -8.95525,-2.5929 -16.98598,-7.3379 -15.08723,-3.6665 -45.96741,-26.0988 -55.67248,-34.2352 -36.38191,-30.5013 -5.89105,-46.4564 -14.64402,-77.8716 -6.09181,-13.1188 8.49552,-38.4643 21.73533,-44.6043 25.96915,-12.0434 30.31668,-31.7856 38.18238,-41.9833 10.22588,-13.2576 10.20969,-30.8574 23.79482,-31.1789 47.15249,2.7906 75.42971,38.5573 81.02866,91.4251 0.57198,5.401 -2.39099,9.2995 -2.02859,16.4692 0.0585,3.5546 2.87668,8.3164 2.74968,11.9908 z"
         id="path4475"
         inkscape:connector-curvature="0"
         sodipodi:nodetypes="cscssscscsscccc" />
      <path
         sodipodi:nodetypes="cccccccccccc"
         inkscape:connector-curvature="0"
         id="path4494"
         d="m 294.68674,1128.3762 c 1.20006,-0.4182 22.05202,11.4489 21.56676,12.9047 7.25679,8.6678 1.95568,13.0052 0.24649,18.5813 -2.95109,4.5679 0.57735,9.6342 1.5,14.5 1.55788,4.4398 -3.72195,5.3816 -5.375,9.875 -2.26884,3.8676 -7.85652,2.7569 -12.625,2.875 l 15,13.5 24.75,2.25 18.75,-15.75 -25,-42.25 -28,-21.5 z"
         style="fill:#f8c5a2;fill-opacity:1;fill-rule:evenodd;stroke:none;stroke-width:0.1;stroke-linecap:butt;stroke-linejoin:miter;stroke-miterlimit:4;stroke-dasharray:none;stroke-opacity:1" />
      <path
         style="fill:#efbc99;fill-opacity:1;fill-rule:evenodd;stroke:none;stroke-width:0.1;stroke-linecap:butt;stroke-linejoin:miter;stroke-miterlimit:4;stroke-dasharray:none;stroke-opacity:1"
         d="m 289.21094,1112.3926 c -0.23106,0.01 -0.44857,0.028 -0.67188,0.043 l -4.92773,1.3692 c -3.24885,1.7609 -5.4305,5.0362 -7.40625,9.0332 l 14.76953,5.5391 c 9.9014,-0.1732 21.33368,6.0469 28.24414,10.9824 4.77336,7.3607 13.61833,18.1806 11,24.0195 -3.18203,6.2461 -1.1791,9.1914 6.00977,8.8379 10.96044,5.6366 8.77775,16.5782 -6.7168,18.3848 -3.89383,-0.1202 -6.09169,0.6069 -8.13086,1.414 -7.96954,-7.5744 -31.751,-3.7641 -50.55859,-3.5351 -5.5593,1.6875 -11.41197,2.645 -16.08789,6.541 -2.59579,4.3807 2.74026,3.269 5.83398,3.7109 7.90648,-0.7143 19.35261,0.5448 9.90039,4.5977 -8.9131,3.8217 -18.17564,7.8168 -23.1582,11.8437 -5.57931,6.7048 9.18123,7.0067 14.67187,8.3086 10.61098,0.4278 0.82627,4.8914 6.01172,13.4356 4.10223,6.9712 11.98794,4.4539 20.50586,2.4746 9.46493,9.4135 14.9954,-19.8559 24.57227,-21.5664 6.21652,-1.1103 7.70246,-0.5985 10.42968,2.4746 2.98399,3.4403 8.59117,24.0806 14.14063,34.293 3.64658,8.0112 -12.53149,13.4274 -17.32227,13.4355 -6.55676,-1.0498 -12.01775,1.1876 -17.67773,2.8281 -9.10192,-0.1914 2.67792,6.8989 5.65625,9.1934 4.09736,2.8668 8.72531,5.4983 4.5957,12.0215 l 2.55274,17.3789 c -7.46501,1.4513 -7.17231,7.0793 -8.91602,11.6113 -4.29899,9.0145 20.31786,-4.7612 15.20313,11.668 -2.02475,9.3118 -11.88599,9.6823 -20.1543,12.373 -8.37798,2.7264 -16.52455,0.246 -24.76953,-2.2578 7.38844,4.3253 11.69196,6.3663 15.99023,6.7578 3.82128,0.3481 7.0316,-0.7858 10.18555,-1.0918 3.14132,-0.3047 5.95018,-0.7276 8.57031,-1.7148 14.57542,-5.4917 19.24701,-18.0218 21.05274,-23.3106 5.02933,-16.2053 26.43422,-33.5543 27.9082,-43.4355 2.0896,-14.0081 12.12106,-25.5986 10.44336,-47.7735 0.127,-3.6744 -2.6915,-8.4375 -2.75,-11.9921 -0.3624,-7.1697 2.60127,-11.0678 2.02929,-16.4688 -5.59895,-52.8678 -33.8768,-88.6332 -81.02929,-91.4238 z"
         id="path4496"
         inkscape:connector-curvature="0" />
      <path
         id="path4500"
         d="m 351.88086,1148.084 c 4.22271,12.5862 10.09158,25.8309 9.98047,36.6836 -0.37998,10.033 -19.17945,9.4922 -27.75391,17.3242 -5.04529,4.9314 -8.28329,10.7666 -5.83398,19.4453 0.92692,3.4281 1.73592,7.0236 4.95117,7.2481 2.87118,2.4682 8.1304,-11.0406 12.01953,-4.9493 6.06255,12.0077 12.6471,8.8074 22.27539,7.4239 2.97437,12.6612 0.60878,19.8506 -1.5918,28.6386 -4.73626,8.8442 -11.27265,14.5363 -17.85351,20.1524 -4.5485,2.5619 -6.97905,-0.1708 -9.72266,-2.1211 -0.0153,-3.3507 3.4192,-10.7262 -4.41992,-4.9492 -2.08395,2.0062 -2.21844,3.7679 -0.53125,5.3027 1.09057,5.1441 3.2495,7.9459 -7.95508,14.1426 l -3.53515,21.9199 c -0.26758,2.9592 5.76997,2.4158 6.89453,7.7773 0.007,9.6036 -6.23065,15.6378 -11.80274,22.0528 10.35032,-6.1724 14.04914,-16.1254 15.60743,-20.6895 5.02933,-16.2053 26.43422,-33.5543 27.9082,-43.4355 2.0896,-14.0081 12.12106,-25.5986 10.44336,-47.7735 0.127,-3.6744 -2.6915,-8.4375 -2.75,-11.9921 -0.3624,-7.1697 2.60127,-11.0678 2.02929,-16.4688 -2.31817,-21.8892 -8.53579,-40.8331 -18.35937,-55.7324 z"
         style="fill:#e6b18e;fill-opacity:1;fill-rule:evenodd;stroke:none;stroke-width:0.1;stroke-linecap:butt;stroke-linejoin:miter;stroke-miterlimit:4;stroke-dasharray:none;stroke-opacity:1"
         inkscape:connector-curvature="0" />
      <path
         sodipodi:nodetypes="cscscscsccccccccccccccccsc"
         inkscape:connector-curvature="0"
         id="path4489"
         d="m 248.42578,1169.9199 c -4.95976,5.6821 -11.59628,11.185 -21.1914,15.6348 -13.23982,6.14 -27.82814,31.4847 -21.73633,44.6035 8.75297,31.4152 -21.73738,47.3698 14.64453,77.8711 9.70507,8.1364 40.58464,30.5698 55.67187,34.2363 8.03073,4.745 12.49179,6.9285 16.98633,7.3379 3.82128,0.3481 7.0316,-0.7858 10.18555,-1.0918 3.14132,-0.3047 5.95018,-0.7276 8.57031,-1.7148 6.45075,-2.4305 10.95531,-6.2396 14.13672,-10.1895 l -1.19336,-0.7461 -23.5,-3 c -1.78655,7.5307 -12.62078,5.9267 -16.25,5 -8.79235,-2.0774 -14.68164,-7.8721 -18,-16 6.3349,-6.0827 9.56586,-13.4956 13.75,-20.5 4.61948,-7.914 10.30784,-6.1373 9.5,-15.25 -0.81085,-8.7479 6.76884,-14.3653 8.75,-22.25 2.20294,-7.4203 -1.15352,-13.61 -7.5,-7.75 -4.17242,4.9134 -7.85744,10.1053 -14.25,13.75 -6.08333,5.5833 -13.33333,8.1667 -21.75,7.75 -12.61981,-0.1801 -8.69849,10.0371 -10.75,16.5 -4.64134,9.7845 -21.35485,4.9406 -27.25,-2.75 -6.46751,-9.6319 -1.7253,-15.9009 -2.25,-23.75 1.58198,-4.8581 7.21273,-6.7171 9.75,-11 4.27508,-5.7706 -0.20902,-15.7304 -3.25,-25 -2.03328,-10.0904 -1.85336,-19.8425 3.75,-25.25 12.14779,-11.7232 22.04289,-23.3245 23.17578,-36.4414 z"
         style="fill:#f8c5a2;fill-opacity:1;fill-rule:evenodd;stroke:none;stroke-width:0.1;stroke-linecap:butt;stroke-linejoin:miter;stroke-miterlimit:4;stroke-dasharray:none;stroke-opacity:1" />
      <path
         sodipodi:nodetypes="ccccccscccc"
         inkscape:connector-curvature="0"
         id="path4480"
         d="m 304.1443,1294.4579 c -10.17504,-1.7767 -19.13656,1.5603 -16.17507,-10.9602 0.77862,-4.2649 1.72989,-8.5174 5.74525,-12.5512 2.65817,-1.7678 1.90296,-4.1207 1.98205,-6.2579 -0.0682,-4.4192 -1.01399,-6.4687 -6.13631,-3.1996 l -24.21841,20.1526 c -7.42432,4.8868 -2.01861,15.4113 -3.96536,23.4984 -0.71819,2.9834 -1.41738,3.5152 -0.80761,4.7858 10.4276,6.8379 11.4374,-3.914 20.32932,-9.1923 4.61488,-4.071 11.1342,2.1419 16.79379,3.7123 z"
         style="fill:#e6b18e;fill-opacity:1;fill-rule:evenodd;stroke:none;stroke-width:0.1;stroke-linecap:butt;stroke-linejoin:miter;stroke-miterlimit:4;stroke-dasharray:none;stroke-opacity:1" />
      <path
         id="path4243"
         d="m 289.21094,1112.3926 c -0.23106,0.01 -0.44857,0.028 -0.67188,0.043 l -4.92773,1.3692 c -3.24885,1.7609 -5.4305,5.0362 -7.40625,9.0332 l 14.76953,5.5391 c 9.9014,-0.1732 21.33368,6.0469 28.24414,10.9824 4.77336,7.3607 13.61833,18.1806 11,24.0195 -3.18203,6.2461 -1.1791,9.1914 6.00977,8.8379 10.96044,5.6366 8.77775,16.5782 -6.7168,18.3848 -3.89383,-0.1202 -6.09169,0.6069 -8.13086,1.414 -7.96954,-7.5744 -31.751,-3.7641 -50.55859,-3.5351 -5.5593,1.6875 -11.41197,2.645 -16.08789,6.541 -2.59579,4.3807 2.74026,3.269 5.83398,3.7109 7.90648,-0.7143 19.35261,0.5448 9.90039,4.5977 -8.9131,3.8217 -18.17564,7.8168 -23.1582,11.8437 -5.57931,6.7048 9.18123,7.0067 14.67187,8.3086 10.61098,0.4278 0.82627,4.8914 6.01172,13.4356 4.10223,6.9712 11.98794,4.4539 20.50586,2.4746 9.46493,9.4135 14.9954,-19.8559 24.57227,-21.5664 6.21652,-1.1103 7.70246,-0.5985 10.42968,2.4746 2.98399,3.4403 8.59117,24.0806 14.14063,34.293 3.64658,8.0112 -12.53149,13.4274 -17.32227,13.4355 -6.55676,-1.0498 -12.01775,1.1876 -17.67773,2.8281 -9.10192,-0.1914 2.67792,6.8989 5.65625,9.1934 4.09736,2.8668 8.72531,5.4983 4.5957,12.0215 l 2.55274,17.3789 c -7.46501,1.4513 -7.17231,7.0793 -8.91602,11.6113 -4.29899,9.0145 20.31786,-4.7612 15.20313,11.668 -2.02475,9.3118 -11.88599,9.6823 -20.1543,12.373 -8.37798,2.7264 -16.52455,0.246 -24.76953,-2.2578 7.38844,4.3253 11.69196,6.3663 15.99023,6.7578 3.82128,0.3481 7.0316,-0.7858 10.18555,-1.0918 3.14132,-0.3047 5.95018,-0.7276 8.57031,-1.7148 14.57542,-5.4917 19.24701,-18.0218 21.05274,-23.3106 5.02933,-16.2053 26.43422,-33.5543 27.9082,-43.4355 2.0896,-14.0081 12.12106,-25.5986 10.44336,-47.7735 0.127,-3.6744 -2.6915,-8.4375 -2.75,-11.9921 -0.3624,-7.1697 2.60127,-11.0678 2.02929,-16.4688 -5.59895,-52.8678 -33.8768,-88.6332 -81.02929,-91.4238 z"
         style="fill:none;fill-rule:evenodd;stroke:none;stroke-width:0.1;stroke-linecap:butt;stroke-linejoin:miter;stroke-miterlimit:4;stroke-dasharray:none;stroke-opacity:1"
         inkscape:connector-curvature="0" />
      <path
         id="path4484"
         d="m 248.42578,1169.9199 c -4.95976,5.6821 -11.59628,11.185 -21.1914,15.6348 -13.23982,6.14 -27.82814,31.4847 -21.73633,44.6035 8.75297,31.4152 -21.73738,47.3698 14.64453,77.8711 9.70507,8.1364 40.58464,30.5698 55.67187,34.2363 8.03073,4.745 12.49179,6.9285 16.98633,7.3379 3.82128,0.3481 7.0316,-0.7858 10.18555,-1.0918 3.14132,-0.3047 5.95018,-0.7276 8.57031,-1.7148 14.57542,-5.4917 19.24701,-18.0218 21.05274,-23.3106 0.81223,-2.6171 2.05683,-5.2637 3.57031,-7.9043 l -14.26953,-5.3027 -21.03711,0 c 5.06537,7.8045 -8.89525,10.6003 -1.76758,19.623 3.42702,4.3381 4.01865,10.7955 -4.24219,11.3125 -4.87955,-0.8059 -9.02966,1.9707 -13.25781,-1.0605 -9.58397,-5.347 -17.26736,-13.1377 -25.2793,-20.5059 -2.3949,-9.536 -3.28246,-6.2066 -16.43945,-10.7832 -9.74866,-5.1127 -20.74227,-6.786 -26.51758,-18.7382 -6.06538,-13.8855 -1.10176,-24.3003 3.35938,-34.4708 4.18984,-7.4311 -1.85686,-15.6741 -1.5918,-35.7089 -1.37618,-13.6426 18.8495,-21.7801 27.57812,-37.1231 2.93883,-5.1658 4.24347,-8.8164 5.71094,-12.9043 z"
         style="fill:#e3a68b;fill-opacity:1;fill-rule:evenodd;stroke:none;stroke-width:0.1;stroke-linecap:butt;stroke-linejoin:miter;stroke-miterlimit:4;stroke-dasharray:none;stroke-opacity:1"
         inkscape:connector-curvature="0" />
      <path
         sodipodi:nodetypes="ccccc"
         inkscape:connector-curvature="0"
         id="path4498"
         d="m 247.74999,1194.6122 c 1.875,2.854 14,-14 33.75,-13 1.94195,0.2783 1.16746,-4.9239 -2,-4 -5.9476,0.8659 -11.07052,1.2638 -17.75,3 -7.12537,3.0275 -17.91074,8.9484 -14,14 z"
         style="fill:#ffffd4;fill-opacity:1;fill-rule:evenodd;stroke:none;stroke-width:0.1;stroke-linecap:butt;stroke-linejoin:miter;stroke-miterlimit:4;stroke-dasharray:none;stroke-opacity:1" />
      <g
         transform="translate(9.9999997,307.49999)"
         id="g4329">
        <g
           id="g4305"
           transform="translate(144,483.99999)">
          <path
             style="fill:#fb8384;fill-opacity:1;fill-rule:evenodd;stroke:none;stroke-width:0.1;stroke-linecap:butt;stroke-linejoin:miter;stroke-miterlimit:4;stroke-dasharray:none;stroke-opacity:1"
             d="m 126.72744,503.61701 c 7.62227,1.61448 14.48198,-0.24615 22.47209,-1.47227 5.6352,-0.86475 11.25433,-1.91714 17.14734,-1.67938 4.42281,0.83072 7.84896,-0.0329 10.6066,-2.03293 2.5338,-0.84776 5.0676,-0.45563 7.6014,0.35355 -2.4596,2.41854 -2.46422,5.03163 -4.9494,6.80582 -11.13852,7.29985 -27.909,3.15411 -44.01758,0.35351 -3.42146,-0.52084 -6.15298,-1.42369 -8.86045,-2.3283 z"
             id="path4307"
             inkscape:connector-curvature="0"
             sodipodi:nodetypes="cscccccc" />
          <path
             style="fill:#ffa8a7;fill-opacity:1;fill-rule:evenodd;stroke:none;stroke-width:0.1;stroke-linecap:butt;stroke-linejoin:miter;stroke-miterlimit:4;stroke-dasharray:none;stroke-opacity:1"
             d="m 147.06836,504.51367 c -4.28459,-0.0979 -7.42506,0.35128 -7.28906,0.96485 l 0.55859,1.32031 c 11.02753,2.77615 30.1911,1.80683 39.26715,-1.20697 0.21405,-1.07634 -8.59221,-2.54202 -10.47628,-1.60553 -2.70824,1.34616 -5.00912,-0.93192 -8.22056,0.53125 -4.4394,-1.57352 -9.55525,0.094 -13.83984,-0.004 z"
             id="path4309"
             inkscape:connector-curvature="0"
             sodipodi:nodetypes="ccccscsc" />
          <path
             style="fill:#8e2c2c;fill-opacity:1;fill-rule:evenodd;stroke:none;stroke-width:0.1;stroke-linecap:butt;stroke-linejoin:miter;stroke-miterlimit:4;stroke-dasharray:none;stroke-opacity:1"
             d="m 184.55469,498.78516 c -5.00104,3.64037 -2.09986,7.14469 -14.71251,8.15763 -0.66076,0.0531 -1.05788,-0.43064 -1.44134,-0.95362 -1.0817,2.51953 -5.30749,1.22667 -6.78561,2.00302 -2.42776,-1.19769 -6.35183,-1.11372 -9.86523,-1.38086 -8.84894,-0.60322 -17.64374,-1.24818 -25.02344,-2.99414 l 4.46485,1.53125 c 1.38543,0.30968 4.59303,1.75766 6.5178,4.50918 16.10858,2.8006 30.75774,3.23403 41.89626,-4.06582 2.48518,-1.77419 2.48962,-4.3881 4.94922,-6.80664 z"
             id="path4311"
             inkscape:connector-curvature="0"
             sodipodi:nodetypes="cscccccccc" />
        </g>
        <g
           style="stroke:none"
           id="g4313"
           transform="translate(144,483.99999)">
          <path
             style="fill:#fb8384;fill-opacity:1;fill-rule:evenodd;stroke:none;stroke-width:0.1;stroke-linecap:butt;stroke-linejoin:miter;stroke-miterlimit:4;stroke-dasharray:none;stroke-opacity:1"
             d="m 135.58772,505.94544 c 4.51491,9.0584 10.92263,12.70584 24.32825,14.70096 3.5293,0.15434 7.01115,0.13784 9.72272,-2.65165 5.68665,-4.40203 11.78086,-5.88096 9.96643,-12.40286 -4.10724,0.81866 -8.62112,0.77101 -12.28598,2.91681 -3.35964,-0.23676 -6.95545,-0.75692 -9.19239,0.35356 -7.6476,-3.76255 -12.81656,-3.07348 -22.53903,-2.91682 z"
             id="path4315"
             inkscape:connector-curvature="0"
             sodipodi:nodetypes="ccccccc" />
          <path
             style="fill:#ffa8a7;fill-opacity:1;fill-rule:evenodd;stroke:none;stroke-width:0.1;stroke-linecap:butt;stroke-linejoin:miter;stroke-miterlimit:4;stroke-dasharray:none;stroke-opacity:1"
             d="m 135.58789,505.94531 c 11.66228,2.41677 7.23113,4.1139 11.66211,2.4169 0.2453,3.10774 1.94415,4.99536 5.25,5.75 2.29648,3.3349 6.26618,4.44281 8.5,1.375 2.83615,1.22006 4.86048,0.46565 6.40056,-1.96685 -0.0994,-3.71649 -1.7798,-4.53247 -3.15056,-4.03315 -8.49912,2.33829 -11.32984,-2.93583 -28.66211,-3.5419 z"
             id="path4317"
             inkscape:connector-curvature="0"
             sodipodi:nodetypes="ccccccc" />
          <path
             style="fill:#d15a54;fill-opacity:1;fill-rule:evenodd;stroke:none;stroke-width:0.1;stroke-linecap:butt;stroke-linejoin:miter;stroke-miterlimit:4;stroke-dasharray:none;stroke-opacity:1"
             d="m 142.13477,505.80664 c -1.97131,0.0278 -4.11626,0.0995 -6.54688,0.13867 7.70393,-0.0254 20.35597,0.9808 25.2793,5.48047 -0.86237,-0.90539 -1.60698,-1.95204 -2.74024,-2.56445 -5.7357,-2.82191 -10.07827,-3.13821 -15.99218,-3.05469 z"
             id="path4319"
             inkscape:connector-curvature="0" />
          <path
             style="fill:#d15a54;fill-opacity:1;fill-rule:evenodd;stroke:none;stroke-width:0.1;stroke-linecap:butt;stroke-linejoin:miter;stroke-miterlimit:4;stroke-dasharray:none;stroke-opacity:1"
             d="m 162.30273,508.17969 c -1.59852,-0.0208 -3.05731,0.1264 -4.17578,0.68164 4.24395,-0.67077 7.91376,-0.0419 12.12305,0.625 -0.88535,-0.52949 -1.84022,-0.90902 -2.93164,-0.97852 -1.67982,-0.11838 -3.4171,-0.3073 -5.01563,-0.32812 z"
             id="path4321"
             inkscape:connector-curvature="0" />
          <path
             style="fill:#d15a54;fill-opacity:1;fill-rule:evenodd;stroke:none;stroke-width:0.1;stroke-linecap:butt;stroke-linejoin:miter;stroke-miterlimit:4;stroke-dasharray:none;stroke-opacity:1"
             d="m 179.60547,505.5918 c -4.10724,0.81866 -8.62225,0.77021 -12.28711,2.91601 3.08319,-1.17191 6.71594,-1.57583 12.28711,-2.91601 z"
             id="path4323"
             inkscape:connector-curvature="0" />
          <path
             sodipodi:nodetypes="ccscscc"
             style="fill:#d15a54;fill-opacity:1;fill-rule:evenodd;stroke:none;stroke-width:0.1;stroke-linecap:butt;stroke-linejoin:miter;stroke-miterlimit:4;stroke-dasharray:none;stroke-opacity:1"
             d="m 179.60504,505.59186 c -0.92507,3.45911 -2.4379,8.36149 -7.60352,9.54492 -1.48574,3.78638 -7.92233,4.40751 -12.28393,4.06718 -15.38067,-1.20014 -19.68804,-7.65754 -23.87276,-12.7506 4.52307,8.8037 10.92375,12.97466 24.12291,14.6457 3.5047,0.4437 8.07176,-0.65835 10.78333,-3.44784 5.68665,-4.40203 10.6684,-5.53746 8.85397,-12.05936 z"
             id="path4325"
             inkscape:connector-curvature="0" />
          <path
             style="fill:#ffa8a7;fill-opacity:1;fill-rule:evenodd;stroke:none;stroke-width:0.1;stroke-linecap:butt;stroke-linejoin:miter;stroke-miterlimit:4;stroke-dasharray:none;stroke-opacity:1"
             d="m 164.25,509.48721 c 2.00836,-0.2665 3.23421,0.51517 3.95303,3.88285 3.58888,3.56335 6.75063,-1.08085 9.36916,-3.0052 1.14966,-1.63853 -1.91976,-3.7437 -4.33103,-2.56326 -1.58971,0.13055 -2.69588,0.61277 -2.99116,1.68473 -2.0103,-0.12329 -4.09471,-1.13595 -6,8.8e-4 z"
             id="path4327"
             inkscape:connector-curvature="0"
             sodipodi:nodetypes="cccccc" />
        </g>
      </g>
      <path
         id="path4766"
         d="m 333.20703,1259.0801 c 2.00253,10.3949 -4.04374,18.371 -18.38476,19.0918 l -0.26954,2.3457 c 5.92807,-0.4456 10.18258,-1.4272 13.20899,-2.8028 8.14526,-2.7612 10.77393,-7.7554 10.2168,-14.039 -0.21712,3.816 -1.23228,7.0151 -4.31446,8.6172 1.69023,-3.8141 0.63623,-8.5068 -0.45703,-13.2129 z"
         style="fill:#e3a68b;fill-opacity:1;fill-rule:evenodd;stroke:none;stroke-width:0.1;stroke-linecap:butt;stroke-linejoin:miter;stroke-miterlimit:4;stroke-dasharray:none;stroke-opacity:1"
         inkscape:connector-curvature="0" />
      <path
         sodipodi:nodetypes="cccccscc"
         inkscape:connector-curvature="0"
         id="path4768"
         d="m 292.5,1270.9872 c 2.88922,1.9848 5.91022,3.4424 9.5,2.625 2.70221,0.1365 5.1813,-0.8425 7.65273,-1.8598 4.83775,-0.066 5.73139,2.4681 6.22227,4.9848 l -1.375,11.5 c -0.55912,-2.7371 -0.90418,-6.3103 -1.875,-7.75 -2.79832,-4.1498 -12.72487,-1.9408 -15.375,-4 -1.62985,-1.7171 -3.54173,-2.729 -4.75,-5.5 z"
         style="fill:#e3a68b;fill-opacity:1;fill-rule:evenodd;stroke:none;stroke-width:0.1;stroke-linecap:butt;stroke-linejoin:miter;stroke-miterlimit:4;stroke-dasharray:none;stroke-opacity:1" />
      <path
         sodipodi:nodetypes="ccsc"
         inkscape:connector-curvature="0"
         id="path4770"
         d="m 304.57577,1273.716 c 1.86555,-1.378 4.3867,-2.0181 8.56783,-1.3893 1.79101,0.5523 1.67474,1.939 1.15782,3.0103 -0.89657,1.8579 -3.94337,-1.5849 -9.72565,-1.621 z"
         style="fill:#59312e;fill-opacity:1;fill-rule:evenodd;stroke:none;stroke-width:0.06730201;stroke-linecap:butt;stroke-linejoin:miter;stroke-miterlimit:4;stroke-dasharray:none;stroke-opacity:1" />
      <path
         inkscape:connector-curvature="0"
         style="fill:#e3a68b;fill-opacity:1;fill-rule:evenodd;stroke:none;stroke-width:0.1;stroke-linecap:butt;stroke-linejoin:miter;stroke-miterlimit:4;stroke-dasharray:none;stroke-opacity:1"
         d="m 293.11914,1244.2148 c -1.87634,8.3315 -5.36062,15.8453 -8.10937,23.8985 -6.56272,7.964 -13.38683,16.4146 -22.75977,21.998 3.4984,-1.2101 6.92803,-2.4976 9.5,-4.75 -0.67806,3.1861 -1.94258,6.2988 -4.5,9.25 11.31139,-10.2659 14.94432,-19.1055 20.67578,-25.2285 l 5.01758,2.2031 c -0.85814,-2.4441 -3.35355,-3.8675 -1.83594,-6.8945 2.72974,-6.1358 7.02286,-9.6065 11.64258,-13.8301 -5.12864,3.0294 -9.52446,7.5581 -13.8418,12.5899 1.1094,-6.4626 3.4522,-12.7425 4.21094,-19.2364 z"
         id="path4777" />
      <g
         transform="translate(545.49999,235.99999)"
         id="g4443">
        <g
           id="g4375"
           transform="translate(-388.90872,554.37171)">
          <path
             style="fill:#e2a68a;fill-opacity:0.9837838;fill-rule:evenodd;stroke:none;stroke-width:0.1;stroke-linecap:butt;stroke-linejoin:miter;stroke-miterlimit:4;stroke-dasharray:none;stroke-opacity:1"
             d="m 92.677734,427.36133 c 19.172516,-1.17116 29.288836,5.93869 43.910156,4.64856 -8.59468,6.48558 -16.44392,5.43032 -23.80436,6.0533 10.02643,3.99095 19.91214,8.91416 32.52691,-4.24264 2.3394,-5.62422 -0.73211,-13.0154 -9.72255,-19.09188 -11.85184,-7.50208 -28.39608,7.41514 -42.910156,12.63266 z"
             id="path4377"
             inkscape:connector-curvature="0"
             sodipodi:nodetypes="cccccc" />
          <path
             style="fill:#59312e;fill-opacity:1;fill-rule:evenodd;stroke:none;stroke-width:0.1;stroke-linecap:butt;stroke-linejoin:miter;stroke-miterlimit:4;stroke-dasharray:none;stroke-opacity:1"
             d="m 144.64286,435.75506 c -10.84314,11.31088 -22.5057,6.87698 -32.50001,1.96429 10.78365,4.85833 21.4425,6.51901 31.78572,-4.64286 1.48591,-1.60352 2.62315,0.68737 0.71429,2.67857 z"
             id="path4379"
             inkscape:connector-curvature="0"
             sodipodi:nodetypes="scss" />
          <g
             id="g4381">
            <path
               sodipodi:nodetypes="ccc"
               inkscape:connector-curvature="0"
               id="path4383"
               d="m 144.08548,428.58157 c -7.9832,-19.67394 -22.49896,-13.02176 -36.60715,-4.61222 10.61685,6.44277 23.68052,5.56075 36.60715,4.61222 z"
               style="fill:url(#radialGradient4435);fill-opacity:1;fill-rule:evenodd;stroke:none;stroke-width:0.30000001;stroke-linecap:butt;stroke-linejoin:miter;stroke-miterlimit:4;stroke-dasharray:none;stroke-opacity:1" />
            <g
               transform="matrix(-1.6687495,0.02517632,0.03198388,2.1199716,-467.26557,-42.131454)"
               id="g4385">
              <path
                 style="fill:#2b1100;fill-rule:evenodd;stroke:none;stroke-width:0.1;stroke-linecap:butt;stroke-linejoin:miter;stroke-miterlimit:4;stroke-dasharray:none;stroke-opacity:1"
                 d="m -365.78426,217.97211 c 1.71994,-5.07729 4.78602,-7.0498 9.30021,-6.70065 -0.32833,0.27835 -0.66872,0.54808 -0.80788,0.96166 2.27223,-0.66639 4.56463,-1.13765 7.60407,-1.38371 -0.93553,0.48695 -1.47145,0.98698 -1.74285,1.49568 5.67139,-1.27319 10.58328,1.54397 16.23948,2.02742 l -1.90654,0.44375 c 2.55721,0.36589 4.93994,1.15451 7.0639,2.56998 -8.94993,-2.13435 -16.38338,-2.50807 -23.34253,-1.92205 -2.21804,0.18679 -3.89603,1.05147 -4.92916,2.31328 0.15816,-0.59755 0.43173,-1.16118 0.93341,-1.77496 -3.02977,0.14658 -5.68206,1.02645 -8.41211,1.9696 z"
                 id="path4387"
                 inkscape:connector-curvature="0"
                 sodipodi:nodetypes="ccccccccsccc" />
              <path
                 style="fill:#2b1100;fill-rule:evenodd;stroke:none;stroke-width:0.1;stroke-linecap:butt;stroke-linejoin:miter;stroke-miterlimit:4;stroke-dasharray:none;stroke-opacity:1"
                 d="m -365.42136,215.36975 c -0.0841,-2.3665 2.63436,-3.10077 4.95553,-4.112 -1.67369,0.60622 -3.38413,0.32857 -4.77111,2.17961 -0.41464,0.55338 -0.52431,1.43256 -0.18442,1.93239 z"
                 id="path4389"
                 inkscape:connector-curvature="0"
                 sodipodi:nodetypes="ccsc" />
            </g>
            <g
               id="g4391"
               transform="matrix(0.76935078,0,0,0.76935078,-1042.9098,306.86144)"
               clip-path="url(#clipPath4590-3)">
              <circle
                 r="9.8935575"
                 cy="148.90938"
                 cx="1514.9369"
                 id="circle4393"
                 style="fill:#28170b;fill-opacity:1;stroke:none;stroke-width:0.13431254;stroke-linecap:square;stroke-linejoin:bevel;stroke-miterlimit:4;stroke-dasharray:none" />
              <circle
                 style="fill:url(#radialGradient4437);fill-opacity:1;stroke:none;stroke-width:0.08675654;stroke-linecap:square;stroke-linejoin:bevel;stroke-miterlimit:4;stroke-dasharray:none"
                 id="circle4395"
                 cx="1514.9194"
                 cy="148.82001"
                 r="6.3905501" />
              <path
                 sodipodi:nodetypes="ccccccc"
                 inkscape:connector-curvature="0"
                 id="path4397"
                 d="m 1516.879,146.4492 c -2.0146,1.46724 -4.5499,2.87783 -6.7611,2.8656 -0.1772,-0.28137 1.3474,-0.85638 2.0501,-1.73288 -1.7972,1.44637 -2.8259,1.48173 -2.6626,1.24649 0.1858,-0.65526 3.724,-3.15148 6.8822,-3.28416 0.4526,0.1218 -1.4564,0.82077 -1.8261,1.12616 1.181,-0.65437 3.7021,-1.32787 2.3175,-0.22128 z"
                 style="fill:#ffffff;fill-rule:evenodd;stroke:none;stroke-width:0.1;stroke-linecap:butt;stroke-linejoin:miter;stroke-miterlimit:4;stroke-dasharray:none;stroke-opacity:1" />
            </g>
            <g
               transform="matrix(1.7790514,-0.32600246,0.32600246,1.7790514,-2637.9315,649.67764)"
               id="g4399"
               clip-path="url(#clipPath4604-7)">
              <path
                 sodipodi:nodetypes="cccc"
                 inkscape:connector-curvature="0"
                 id="path4401"
                 d="m 1532.4846,150.68876 c 1.7897,2.97957 2.2968,6.5867 -2.4488,6.24771 2.0937,-0.013 5.9062,0.1947 7.9999,0.51502 -1.5687,-2.53586 -3.4588,-5.17329 -5.5511,-6.76273 z"
                 style="fill:#ffaaaa;fill-rule:evenodd;stroke:none;stroke-width:0.1;stroke-linecap:butt;stroke-linejoin:miter;stroke-miterlimit:4;stroke-dasharray:none;stroke-opacity:1" />
              <path
                 style="fill:#ff8080;fill-rule:evenodd;stroke:none;stroke-width:0.1;stroke-linecap:butt;stroke-linejoin:miter;stroke-miterlimit:4;stroke-dasharray:none;stroke-opacity:1"
                 d="m 1533.0001,151.10447 c 1.7462,3.46044 1.9959,6.19573 -1.9483,5.84115 2.0937,-0.013 4.8902,0.18555 6.9839,0.50587 -1.6723,-2.45525 -3.1023,-4.63392 -5.0356,-6.34702 z"
                 id="path4403"
                 inkscape:connector-curvature="0"
                 sodipodi:nodetypes="cccc" />
            </g>
            <path
               sodipodi:nodetypes="cccccccccsc"
               inkscape:connector-curvature="0"
               id="path4405"
               d="m 132.11914,413.76172 c -12.54315,-0.27394 -30.35658,11.26702 -39.441406,13.59961 11.410136,1.81148 12.679126,-2.61078 24.464846,0.60351 l 0.002,-0.10742 c -3.38044,-0.8141 -7.25747,-3.30662 -5.94107,-6.09838 12.96592,-7.01218 23.32102,-8.6387 29.4606,0.4558 l 0.22852,-0.0312 c -0.94371,-2.28815 -2.32602,-4.35426 -5.17774,-6.25 3.88225,1.29192 6.17988,2.82055 8.92774,7.5 -2.20894,-6.98162 -6.82201,-9.54736 -12.52344,-9.67187 z"
               style="fill:#2b1100;fill-opacity:1;fill-rule:evenodd;stroke:none;stroke-width:0.1;stroke-linecap:butt;stroke-linejoin:miter;stroke-miterlimit:4;stroke-dasharray:none;stroke-opacity:1" />
            <path
               sodipodi:nodetypes="ccccccccc"
               inkscape:connector-curvature="0"
               id="path4407"
               d="m 127.35401,398.24517 c 1.38367,0.93388 6.5525,1.15363 9.17767,3.63943 -2.57311,-0.16796 -5.09598,-1.18068 -7.05364,0.41887 1.48912,0.73622 2.05876,1.5065 2.78127,2.27111 -3.08445,-0.9425 -5.98572,-2.19035 -10.28529,-1.10767 0.22382,-1.35369 -9.87202,1.15519 -9.17764,0.94942 8.30735,-3.79765 14.08294,-3.32293 14.08294,-3.32293 1.5182,0.41053 1.02032,-1.19499 0.47469,-2.84826 z"
               style="fill:#502d16;fill-rule:evenodd;stroke:none;stroke-width:0.1;stroke-linecap:butt;stroke-linejoin:miter;stroke-miterlimit:4;stroke-dasharray:none;stroke-opacity:1" />
          </g>
        </g>
        <g
           id="g4409"
           transform="translate(-388.90872,554.37171)">
          <path
             style="fill:#59312e;fill-opacity:1;fill-rule:evenodd;stroke:none;stroke-width:0.1;stroke-linecap:butt;stroke-linejoin:miter;stroke-miterlimit:4;stroke-dasharray:none;stroke-opacity:1"
             d="m 186.38909,432.18543 c 10.3732,9.08888 18.80343,3.44589 24.36091,-4.82322 -10.30358,10.81242 -13.18813,7.36577 -24.36091,4.82322 z"
             id="path4411"
             inkscape:connector-curvature="0"
             sodipodi:nodetypes="ccc" />
          <g
             id="g4413">
            <path
               sodipodi:nodetypes="ccsssc"
               inkscape:connector-curvature="0"
               id="path4415"
               d="m 183.67099,428.1637 c 2.21817,-6.10247 4.56109,-13.65296 18.91511,-12.59534 4.79488,0.0961 3.96593,5.3051 3.40164,7.34473 -1.16257,4.20212 -4.87418,4.4936 -7.82107,5.25061 -2.57216,0.66075 -5.89734,-3.09643 -11.3137,0.17677 -1.14435,0.69155 -2.2652,0.21788 -3.18198,-0.17677 z"
               style="fill:url(#radialGradient4439);fill-opacity:1;fill-rule:evenodd;stroke:none;stroke-width:0.1;stroke-linecap:butt;stroke-linejoin:miter;stroke-miterlimit:4;stroke-dasharray:none;stroke-opacity:1" />
            <g
               clip-path="url(#clipPath4756-3)"
               transform="matrix(0.76935078,0,0,0.76935078,-973.97189,306.21211)"
               id="g4417">
              <circle
                 style="fill:#28170b;fill-opacity:1;stroke:none;stroke-width:0.13431254;stroke-linecap:square;stroke-linejoin:bevel;stroke-miterlimit:4;stroke-dasharray:none"
                 id="circle4419"
                 cx="1514.9369"
                 cy="148.90938"
                 r="9.8935575" />
              <circle
                 r="6.3905501"
                 cy="148.82001"
                 cx="1514.9194"
                 id="circle4421"
                 style="fill:url(#radialGradient4441);fill-opacity:1;stroke:none;stroke-width:0.08675654;stroke-linecap:square;stroke-linejoin:bevel;stroke-miterlimit:4;stroke-dasharray:none" />
              <path
                 style="fill:#ffffff;fill-rule:evenodd;stroke:none;stroke-width:0.1;stroke-linecap:butt;stroke-linejoin:miter;stroke-miterlimit:4;stroke-dasharray:none;stroke-opacity:1"
                 d="m 1517.4534,147.3683 c -2.0146,1.46724 -4.5499,2.87783 -6.7611,2.8656 -0.1772,-0.28137 1.3474,-0.85638 2.0501,-1.73288 -1.7972,1.44637 -2.8259,1.48173 -2.6626,1.24649 0.1858,-0.65526 3.724,-3.15148 6.8822,-3.28416 0.4526,0.1218 -1.4564,0.82077 -1.8261,1.12616 1.181,-0.65437 3.7021,-1.32787 2.3175,-0.22128 z"
                 id="path4423"
                 inkscape:connector-curvature="0"
                 sodipodi:nodetypes="ccccccc" />
            </g>
            <g
               clip-path="url(#clipPath4788-6)"
               id="g4425">
              <path
                 sodipodi:nodetypes="cccc"
                 inkscape:connector-curvature="0"
                 id="path4427"
                 d="m 184.32812,426.19033 c -0.0936,1.70381 0.38333,1.96326 1.875,2.43751 -1.17086,0.55653 -2.33015,0.0658 -3.73438,0 z"
                 style="fill:#ffaaaa;fill-opacity:1;fill-rule:evenodd;stroke:none;stroke-width:0.1;stroke-linecap:butt;stroke-linejoin:miter;stroke-miterlimit:4;stroke-dasharray:none;stroke-opacity:1" />
              <path
                 style="fill:#ff8080;fill-opacity:1;fill-rule:evenodd;stroke:none;stroke-width:0.1;stroke-linecap:butt;stroke-linejoin:miter;stroke-miterlimit:4;stroke-dasharray:none;stroke-opacity:1"
                 d="m 184.32812,426.19033 c -0.46169,2.33403 -0.65713,1.97337 1.875,2.43751 -1.17086,0.55653 -2.65827,0.26892 -4.0625,0.20312 z"
                 id="path4429"
                 inkscape:connector-curvature="0"
                 sodipodi:nodetypes="cccc" />
            </g>
            <path
               inkscape:connector-curvature="0"
               id="path4431"
               d="m 204.625,413.36328 c -3.71582,0.0744 -6.09757,1.71682 -9.19922,1.63086 -10.36396,1.20969 -12.54463,10.17399 -12.95703,13.63281 1.63414,-6.05702 5.22264,-10.51009 11.08008,-12.27734 0.15964,-0.0501 0.31303,-0.10427 0.47851,-0.15039 0.25461,-0.0688 0.52222,-0.12082 0.78516,-0.17969 0.36408,-0.0835 0.72582,-0.16959 1.11719,-0.23437 0.0489,-0.008 0.10123,-0.0119 0.15039,-0.0195 1.84626,-0.29189 3.98106,-0.38329 6.50586,-0.19726 0.64671,0.013 1.18407,0.12603 1.64062,0.30469 0.0134,0.002 0.0257,0.002 0.0391,0.004 0.005,0.006 0.009,0.013 0.0137,0.0195 2.86451,1.17616 2.19407,5.26423 1.70898,7.01758 -0.0278,0.10033 -0.0651,0.18728 -0.0957,0.28321 0.26948,0.46422 0.67417,0.88674 1.28906,1.2539 l -3.10742,1.53125 c -0.84147,0.69585 -1.84448,1.11376 -2.88477,1.42383 l -0.2832,0.13867 c 2.5451,0.11048 4.9031,0.36895 10.51953,-1.94531 0.96804,-3.15675 -2.25953,-4.63517 -1.13086,-6.55469 0.88743,-1.50924 1.8676,-4.19811 -1.43359,-5.11133 -1.61153,-0.4458 -2.99772,-0.59511 -4.23633,-0.57031 z"
               style="fill:#2b1100;fill-opacity:1;fill-rule:evenodd;stroke:none;stroke-width:0.1;stroke-linecap:butt;stroke-linejoin:miter;stroke-miterlimit:4;stroke-dasharray:none;stroke-opacity:1" />
            <path
               inkscape:connector-curvature="0"
               id="path4433"
               d="m 206.17969,396.29883 c 1.24442,0.91604 1.99829,1.90749 2.42773,2.94922 -7.23131,-2.00776 -12.76497,4.53214 -19.65039,6.23242 l 2.43359,0.70898 c -3.0855,1.07983 -5.87667,3.03097 -8.23242,6.27539 10.63994,-5.58239 19.73824,-7.26318 28.42969,-6.86132 2.66584,0.12328 3.73324,1.49382 5.1543,3.85937 -0.58432,-4.50393 -1.33118,-8.88237 -2.25196,-13.11328 -0.69447,0.007 -1.38424,0.0888 -2.06054,0.24609 0.45675,0.54842 0.92714,1.07687 1.17578,1.9336 -2.92631,-1.13447 -3.6316,-2.07583 -7.42578,-2.23047 z"
               style="fill:#2b1100;fill-rule:evenodd;stroke:none;stroke-width:0.1;stroke-linecap:butt;stroke-linejoin:miter;stroke-miterlimit:4;stroke-dasharray:none;stroke-opacity:1" />
          </g>
        </g>
      </g>
      <path
         id="path4781"
         d="m 287.60938,1288.1348 c -1.50261,0 -3.00522,0.183 -4.50782,0.8808 -3.31045,2.5821 -4.39094,7.3481 -7.24609,10.4297 -2.91953,2.6876 -2.9101,6.0646 -4.0293,9.1758 1.40218,-2.0792 2.14333,-4.6533 4.17578,-6.2598 0.22637,2.0841 0.63642,4.596 0.91407,6.6309 -0.51612,-11.4758 6.18556,-19.9765 15.20117,-20.6836 -1.5026,-0.01 -3.00521,-0.1774 -4.50781,-0.1738 z"
         style="fill:#9d6848;fill-opacity:1;fill-rule:evenodd;stroke:none;stroke-width:0.1;stroke-linecap:butt;stroke-linejoin:miter;stroke-miterlimit:4;stroke-dasharray:none;stroke-opacity:1"
         inkscape:connector-curvature="0" />
    </g>
  </g>
  <g
     inkscape:groupmode="layer"
     id="layer2"
     inkscape:label="Rmbut">
    <g
       inkscape:groupmode="layer"
       id="layer3"
       inkscape:label="bg" />
  </g>
</svg>
