<?xml version="1.0" encoding="UTF-8" standalone="no"?>
<!-- Created with Inkscape (http://www.inkscape.org/) -->

<svg
   xmlns:dc="http://purl.org/dc/elements/1.1/"
   xmlns:cc="http://creativecommons.org/ns#"
   xmlns:rdf="http://www.w3.org/1999/02/22-rdf-syntax-ns#"
   xmlns:svg="http://www.w3.org/2000/svg"
   xmlns="http://www.w3.org/2000/svg"
   xmlns:xlink="http://www.w3.org/1999/xlink"
   xmlns:sodipodi="http://sodipodi.sourceforge.net/DTD/sodipodi-0.dtd"
   xmlns:inkscape="http://www.inkscape.org/namespaces/inkscape"
   width="210mm"
   height="297mm"
   viewBox="0 0 744.09448819 1052.3622047"
   id="svg2"
   version="1.1"
   inkscape:version="0.91 r13725"
   sodipodi:docname="Maryam.svg">
  <defs
     id="defs4">
    <clipPath
       clipPathUnits="userSpaceOnUse"
       id="clipPath4590-3">
      <path
         sodipodi:nodetypes="ccc"
         inkscape:connector-curvature="0"
         id="path4592-6"
         d="m 1542.8532,158.21149 c -10.3766,-25.57214 -29.2441,-16.92565 -47.5819,-5.99495 13.7997,8.37429 30.7799,7.22784 47.5819,5.99495 z"
         style="fill:none;fill-rule:evenodd;stroke:#ff0000;stroke-width:0.38993919;stroke-linecap:butt;stroke-linejoin:miter;stroke-miterlimit:4;stroke-dasharray:none;stroke-opacity:1" />
    </clipPath>
    <clipPath
       clipPathUnits="userSpaceOnUse"
       id="clipPath4604-7">
      <path
         sodipodi:nodetypes="ccc"
         inkscape:connector-curvature="0"
         id="path4606-5"
         d="m 1534.9943,157.00268 c -2.381,-11.49496 -10.9381,-9.32384 -19.4487,-6.15639 5.1318,4.56184 12.3242,5.38403 19.4487,6.15639 z"
         style="fill:none;fill-rule:evenodd;stroke:#ff0000;stroke-width:0.16586737;stroke-linecap:butt;stroke-linejoin:miter;stroke-miterlimit:4;stroke-dasharray:none;stroke-opacity:1" />
    </clipPath>
    <clipPath
       clipPathUnits="userSpaceOnUse"
       id="clipPath4756-3">
      <path
         sodipodi:nodetypes="ccsssc"
         inkscape:connector-curvature="0"
         id="path4758-5"
         d="m 1504.701,158.51234 c 2.8832,-7.93198 5.9285,-17.74608 24.5858,-16.37139 6.2324,0.12491 5.1549,6.89555 4.4214,9.54666 -1.5111,5.4619 -6.3354,5.84077 -10.1658,6.82473 -3.3433,0.85884 -7.6653,-4.02473 -14.7055,0.22976 -1.4874,0.89888 -2.9443,0.2832 -4.1359,-0.22976 z"
         style="fill:none;fill-rule:evenodd;stroke:#000000;stroke-width:0.12997973;stroke-linecap:butt;stroke-linejoin:miter;stroke-miterlimit:4;stroke-dasharray:none;stroke-opacity:1" />
    </clipPath>
    <clipPath
       clipPathUnits="userSpaceOnUse"
       id="clipPath4788-6">
      <path
         sodipodi:nodetypes="ccsssc"
         inkscape:connector-curvature="0"
         id="path4790-2"
         d="m 183.67099,428.1637 c 2.21817,-6.10247 4.56109,-13.65296 18.91511,-12.59534 4.79488,0.0961 3.96593,5.3051 3.40164,7.34473 -1.16257,4.20212 -4.87418,4.4936 -7.82107,5.25061 -2.57216,0.66075 -5.89734,-3.09643 -11.3137,0.17677 -1.14435,0.69155 -2.2652,0.21788 -3.18198,-0.17677 z"
         style="fill:none;fill-rule:evenodd;stroke:#000000;stroke-width:0.1;stroke-linecap:butt;stroke-linejoin:miter;stroke-miterlimit:4;stroke-dasharray:none;stroke-opacity:1" />
    </clipPath>
    <clipPath
       clipPathUnits="userSpaceOnUse"
       id="clipPath5711">
      <path
         sodipodi:nodetypes="cssc"
         inkscape:connector-curvature="0"
         id="path5713"
         d="m 181.55195,94.766776 c -9.44815,-9.435308 -18.29812,-18.390627 -35.0784,-5.44218 -2.23937,1.728007 -3.10133,2.694768 -0.88733,3.845017 15.99726,8.311107 24.84463,2.188607 35.96573,1.597163 z"
         style="fill:none;fill-rule:evenodd;stroke:#000000;stroke-width:0.18739069;stroke-linecap:butt;stroke-linejoin:miter;stroke-miterlimit:4;stroke-dasharray:none;stroke-opacity:1" />
    </clipPath>
    <clipPath
       clipPathUnits="userSpaceOnUse"
       id="clipPath5711-5">
      <path
         sodipodi:nodetypes="cssc"
         inkscape:connector-curvature="0"
         id="path5713-3"
         d="m 181.55195,94.766776 c -9.44815,-9.435308 -18.29812,-18.390627 -35.0784,-5.44218 -2.23937,1.728007 -3.10133,2.694768 -0.88733,3.845017 15.99726,8.311107 24.84463,2.188607 35.96573,1.597163 z"
         style="fill:none;fill-rule:evenodd;stroke:#000000;stroke-width:0.18739069;stroke-linecap:butt;stroke-linejoin:miter;stroke-miterlimit:4;stroke-dasharray:none;stroke-opacity:1" />
    </clipPath>
    <radialGradient
       inkscape:collect="always"
       xlink:href="#linearGradient4806"
       id="radialGradient4435"
       gradientUnits="userSpaceOnUse"
       gradientTransform="matrix(1,0,0,0.36909527,-218.82452,-192.73567)"
       cx="125.7819"
       cy="422.48618"
       fx="125.7819"
       fy="422.48618"
       r="18.303576" />
    <linearGradient
       inkscape:collect="always"
       id="linearGradient4806">
      <stop
         style="stop-color:#ffffff;stop-opacity:1"
         offset="0"
         id="stop4808" />
      <stop
         style="stop-color:#cccccc;stop-opacity:1"
         offset="1"
         id="stop4810" />
    </linearGradient>
    <clipPath
       clipPathUnits="userSpaceOnUse"
       id="clipPath4590-3-5">
      <path
         sodipodi:nodetypes="ccc"
         inkscape:connector-curvature="0"
         id="path4592-6-6"
         d="m 1542.8532,158.21149 c -10.3766,-25.57214 -29.2441,-16.92565 -47.5819,-5.99495 13.7997,8.37429 30.7799,7.22784 47.5819,5.99495 z"
         style="fill:none;fill-rule:evenodd;stroke:#ff0000;stroke-width:0.38993919;stroke-linecap:butt;stroke-linejoin:miter;stroke-miterlimit:4;stroke-dasharray:none;stroke-opacity:1" />
    </clipPath>
    <radialGradient
       inkscape:collect="always"
       xlink:href="#linearGradient4183"
       id="radialGradient4437"
       gradientUnits="userSpaceOnUse"
       gradientTransform="matrix(2.7859616,0.00853939,-0.00779543,2.5432292,-2710.5753,-241.143)"
       cx="1517.1244"
       cy="148.23975"
       fx="1517.1244"
       fy="148.23975"
       r="6.3905501" />
    <linearGradient
       inkscape:collect="always"
       id="linearGradient4183">
      <stop
         style="stop-color:#2b1100;stop-opacity:1"
         offset="0"
         id="stop4185" />
      <stop
         style="stop-color:#28170b;stop-opacity:0;"
         offset="1"
         id="stop4187" />
    </linearGradient>
    <clipPath
       clipPathUnits="userSpaceOnUse"
       id="clipPath4604-7-2">
      <path
         sodipodi:nodetypes="ccc"
         inkscape:connector-curvature="0"
         id="path4606-5-9"
         d="m 1534.9943,157.00268 c -2.381,-11.49496 -10.9381,-9.32384 -19.4487,-6.15639 5.1318,4.56184 12.3242,5.38403 19.4487,6.15639 z"
         style="fill:none;fill-rule:evenodd;stroke:#ff0000;stroke-width:0.16586737;stroke-linecap:butt;stroke-linejoin:miter;stroke-miterlimit:4;stroke-dasharray:none;stroke-opacity:1" />
    </clipPath>
    <radialGradient
       inkscape:collect="always"
       xlink:href="#linearGradient4806"
       id="radialGradient4439"
       gradientUnits="userSpaceOnUse"
       gradientTransform="matrix(1.1082256,-0.26283257,0.13445376,0.56692023,-77.858822,234.05785)"
       cx="195.04179"
       cy="422.08047"
       fx="195.04179"
       fy="422.08047"
       r="11.433909" />
    <clipPath
       clipPathUnits="userSpaceOnUse"
       id="clipPath4756-3-1">
      <path
         sodipodi:nodetypes="ccsssc"
         inkscape:connector-curvature="0"
         id="path4758-5-2"
         d="m 1504.701,158.51234 c 2.8832,-7.93198 5.9285,-17.74608 24.5858,-16.37139 6.2324,0.12491 5.1549,6.89555 4.4214,9.54666 -1.5111,5.4619 -6.3354,5.84077 -10.1658,6.82473 -3.3433,0.85884 -7.6653,-4.02473 -14.7055,0.22976 -1.4874,0.89888 -2.9443,0.2832 -4.1359,-0.22976 z"
         style="fill:none;fill-rule:evenodd;stroke:#000000;stroke-width:0.12997973;stroke-linecap:butt;stroke-linejoin:miter;stroke-miterlimit:4;stroke-dasharray:none;stroke-opacity:1" />
    </clipPath>
    <radialGradient
       inkscape:collect="always"
       xlink:href="#linearGradient4183"
       id="radialGradient4441"
       gradientUnits="userSpaceOnUse"
       gradientTransform="matrix(2.7859616,0.00853939,-0.00779543,2.5432292,-2710.5753,-241.143)"
       cx="1517.1244"
       cy="148.23975"
       fx="1517.1244"
       fy="148.23975"
       r="6.3905501" />
    <clipPath
       clipPathUnits="userSpaceOnUse"
       id="clipPath4788-6-7">
      <path
         sodipodi:nodetypes="ccsssc"
         inkscape:connector-curvature="0"
         id="path4790-2-0"
         d="m 183.67099,428.1637 c 2.21817,-6.10247 4.56109,-13.65296 18.91511,-12.59534 4.79488,0.0961 3.96593,5.3051 3.40164,7.34473 -1.16257,4.20212 -4.87418,4.4936 -7.82107,5.25061 -2.57216,0.66075 -5.89734,-3.09643 -11.3137,0.17677 -1.14435,0.69155 -2.2652,0.21788 -3.18198,-0.17677 z"
         style="fill:none;fill-rule:evenodd;stroke:#000000;stroke-width:0.1;stroke-linecap:butt;stroke-linejoin:miter;stroke-miterlimit:4;stroke-dasharray:none;stroke-opacity:1" />
    </clipPath>
    <clipPath
       clipPathUnits="userSpaceOnUse"
       id="clipPath5975">
      <path
         sodipodi:nodetypes="cssc"
         inkscape:connector-curvature="0"
         id="path5977"
         d="m 239.60794,86.45702 c -5.042,-5.0351 -9.7647,-9.81406 -18.7194,-2.90419 -1.195,0.92214 -1.655,1.43804 -0.4735,2.05187 8.5368,4.435166 13.2582,1.16794 19.1929,0.85232 z"
         style="fill:none;fill-rule:evenodd;stroke:#000000;stroke-width:0.1;stroke-linecap:butt;stroke-linejoin:miter;stroke-miterlimit:4;stroke-dasharray:none;stroke-opacity:1" />
    </clipPath>
    <radialGradient
       inkscape:collect="always"
       xlink:href="#linearGradient4183"
       id="radialGradient4223"
       gradientUnits="userSpaceOnUse"
       gradientTransform="matrix(2.7859616,0.00853939,-0.00779543,2.5432292,-2710.5753,-241.143)"
       cx="1517.1244"
       cy="148.23975"
       fx="1517.1244"
       fy="148.23975"
       r="6.3905501" />
    <clipPath
       clipPathUnits="userSpaceOnUse"
       id="clipPath4234">
      <path
         sodipodi:nodetypes="cssc"
         inkscape:connector-curvature="0"
         id="path4236"
         d="m 1540.2331,145.23651 c -15.8547,-5.79577 -30.7677,-11.35931 -43.1256,12.41639 -1.6491,3.1729 -2.1235,4.74014 1.0275,4.88173 22.7675,1.02309 29.658,-10.70459 42.0981,-17.29812 z"
         style="fill:none;fill-rule:evenodd;stroke:#000000;stroke-width:0.23690334;stroke-linecap:butt;stroke-linejoin:miter;stroke-miterlimit:4;stroke-dasharray:none;stroke-opacity:1" />
    </clipPath>
    <clipPath
       clipPathUnits="userSpaceOnUse"
       id="clipPath4238">
      <path
         sodipodi:nodetypes="cssc"
         inkscape:connector-curvature="0"
         id="path4240"
         d="m 239.60794,86.45702 c -5.042,-5.0351 -9.7647,-9.81406 -18.7194,-2.90419 -1.195,0.92214 -1.655,1.43804 -0.4735,2.05187 8.5368,4.435166 13.2582,1.16794 19.1929,0.85232 z"
         style="fill:none;fill-rule:evenodd;stroke:#000000;stroke-width:0.1;stroke-linecap:butt;stroke-linejoin:miter;stroke-miterlimit:4;stroke-dasharray:none;stroke-opacity:1" />
    </clipPath>
    <radialGradient
       inkscape:collect="always"
       xlink:href="#linearGradient4806"
       id="radialGradient4250"
       cx="228.81647"
       cy="84.966774"
       fx="228.81647"
       fy="84.966774"
       r="10.022375"
       gradientTransform="matrix(1.5042437,0.03049435,-0.00748584,0.36926637,-114.7432,46.032605)"
       gradientUnits="userSpaceOnUse" />
  </defs>
  <sodipodi:namedview
     id="base"
     pagecolor="#ffffff"
     bordercolor="#666666"
     borderopacity="1.0"
     inkscape:pageopacity="0.0"
     inkscape:pageshadow="2"
     inkscape:zoom="2.8"
     inkscape:cx="291.52053"
     inkscape:cy="975.09939"
     inkscape:document-units="px"
     inkscape:current-layer="layer1"
     showgrid="false"
     inkscape:window-width="1366"
     inkscape:window-height="716"
     inkscape:window-x="0"
     inkscape:window-y="24"
     inkscape:window-maximized="1" />
  <metadata
     id="metadata7">
    <rdf:RDF>
      <cc:Work
         rdf:about="">
        <dc:format>image/svg+xml</dc:format>
        <dc:type
           rdf:resource="http://purl.org/dc/dcmitype/StillImage" />
        <dc:title />
      </cc:Work>
    </rdf:RDF>
  </metadata>
  <g
     inkscape:label="mal"
     inkscape:groupmode="layer"
     id="layer1">
    <image
       sodipodi:absref="/home/pantana/Downloads/Maryam Amir (@maryamlatinka) • Instagram photos and videos_files/14533495_351362008575542_6938700411796717568_n.jpg"
       y="28.362192"
       x="64.571442"
       id="image4144"
       xlink:href="file:///home/pantana/Downloads/Maryam%20Amir%20(@maryamlatinka)%20%E2%80%A2%20Instagram%20photos%20and%20videos_files/14533495_351362008575542_6938700411796717568_n.jpg"
       style="image-rendering:optimizeQuality"
       preserveAspectRatio="none"
       height="608"
       width="608" />
    <image
       width="608"
       height="608"
       preserveAspectRatio="none"
       style="image-rendering:optimizeQuality"
       xlink:href="file:///home/pantana/Downloads/Maryam%20Amir%20(@maryamlatinka)%20%E2%80%A2%20Instagram%20photos%20and%20videos_files/14533495_351362008575542_6938700411796717568_n.jpg"
       id="image4230"
       x="64.571442"
       y="28.362192"
       sodipodi:absref="/home/pantana/Downloads/Maryam Amir (@maryamlatinka) • Instagram photos and videos_files/14533495_351362008575542_6938700411796717568_n.jpg"
       clip-path="url(#clipPath4238)" />
  </g>
  <g
     inkscape:groupmode="layer"
     id="layer2"
     inkscape:label="muka">
    <path
       inkscape:connector-curvature="0"
       style="fill:#4e3727;fill-rule:evenodd;stroke:#000000;stroke-width:0.1;stroke-linecap:butt;stroke-linejoin:miter;stroke-miterlimit:4;stroke-dasharray:none;stroke-opacity:1;fill-opacity:1"
       d="m 228.39894,75.41646 c -2.7835,0.0814 -5.9515,1.25504 -9.2461,4.05274 l -0.5371,5.89258 c 0.9669,0.86958 1.9596,0.79396 2.9434,1.01172 l 0.033,-0.20704 c -0.3867,-0.17623 -0.7746,-0.35302 -1.1778,-0.5625 -1.1815,-0.61382 -0.7204,-1.12864 0.4746,-2.05078 0.4379,-0.3379 0.8572,-0.62682 1.2754,-0.91015 l 0.023,-0.13867 c -0.8967,-0.0826 -2.2485,0.61237 -2.0547,-1.33985 8.3853,-8.9087 16.5582,-3.50783 18.1895,2.01953 -0.7,-4.09867 -4.61,-7.92303 -9.9238,-7.76758 z"
       id="path5701" />
    <path
       style="fill:#4e3727;fill-rule:evenodd;stroke:#000000;stroke-width:0.1;stroke-linecap:butt;stroke-linejoin:miter;stroke-miterlimit:4;stroke-dasharray:none;stroke-opacity:1;fill-opacity:1"
       d="m 220.85694,88.161646 c 3.0841,2.21897 11.9012,4.63462 16.5413,0.3788 1.041,-0.954836 3.5327,-0.24918 1.6415,1.01016 -6.6508,4.4287 -13.2569,3.38067 -18.1828,-1.38896 z"
       id="path5707"
       inkscape:connector-curvature="0"
       sodipodi:nodetypes="cssc" />
    <path
       style="fill:url(#radialGradient4250);fill-rule:evenodd;stroke:#000000;stroke-width:0.1;stroke-linecap:butt;stroke-linejoin:miter;stroke-miterlimit:4;stroke-dasharray:none;stroke-opacity:1;fill-opacity:1"
       d="m 239.60794,86.45702 c -5.042,-5.0351 -9.7647,-9.81406 -18.7194,-2.90419 -1.195,0.92214 -1.655,1.43804 -0.4735,2.05187 8.5368,4.435166 13.2582,1.16794 19.1929,0.85232 z"
       id="path5677"
       inkscape:connector-curvature="0"
       sodipodi:nodetypes="cssc" />
    <path
       sodipodi:nodetypes="cccc"
       inkscape:connector-curvature="0"
       id="path4401-3-7"
       d="m 226.8727,88.026211 c -3.73558,-1.769574 -6.61527,-5.005762 -1.69439,-7.798368 -2.06391,1.39299 -5.97452,3.700437 -8.25815,4.763485 3.22436,1.476032 6.83369,2.840808 9.95254,3.034883 z"
       style="fill:#2b1100;fill-opacity:1;fill-rule:evenodd;stroke:none;stroke-width:0.1;stroke-linecap:butt;stroke-linejoin:miter;stroke-miterlimit:4;stroke-dasharray:none;stroke-opacity:1"
       clip-path="url(#clipPath5975)" />
    <g
       id="g4329"
       transform="translate(-512.20152,-1023.4059)">
      <g
         transform="translate(144,483.99999)"
         id="g4305">
        <path
           sodipodi:nodetypes="cscccccc"
           inkscape:connector-curvature="0"
           id="path4307"
           d="m 126.72744,503.61701 c 7.62227,1.61448 14.48198,-0.24615 22.47209,-1.47227 5.6352,-0.86475 11.25433,-1.91714 17.14734,-1.67938 4.42281,0.83072 7.84896,-0.0329 10.6066,-2.03293 2.5338,-0.84776 5.0676,-0.45563 7.6014,0.35355 -2.4596,2.41854 -2.46422,5.03163 -4.9494,6.80582 -11.13852,7.29985 -27.909,3.15411 -44.01758,0.35351 -3.42146,-0.52084 -6.15298,-1.42369 -8.86045,-2.3283 z"
           style="fill:#fb8384;fill-opacity:1;fill-rule:evenodd;stroke:none;stroke-width:0.1;stroke-linecap:butt;stroke-linejoin:miter;stroke-miterlimit:4;stroke-dasharray:none;stroke-opacity:1" />
        <path
           sodipodi:nodetypes="ccccscsc"
           inkscape:connector-curvature="0"
           id="path4309"
           d="m 147.06836,504.51367 c -4.28459,-0.0979 -7.42506,0.35128 -7.28906,0.96485 l 0.55859,1.32031 c 11.02753,2.77615 30.1911,1.80683 39.26715,-1.20697 0.21405,-1.07634 -8.59221,-2.54202 -10.47628,-1.60553 -2.70824,1.34616 -5.00912,-0.93192 -8.22056,0.53125 -4.4394,-1.57352 -9.55525,0.094 -13.83984,-0.004 z"
           style="fill:#ffa8a7;fill-opacity:1;fill-rule:evenodd;stroke:none;stroke-width:0.1;stroke-linecap:butt;stroke-linejoin:miter;stroke-miterlimit:4;stroke-dasharray:none;stroke-opacity:1" />
        <path
           sodipodi:nodetypes="cscccccccc"
           inkscape:connector-curvature="0"
           id="path4311"
           d="m 184.55469,498.78516 c -5.00104,3.64037 -2.09986,7.14469 -14.71251,8.15763 -0.66076,0.0531 -1.05788,-0.43064 -1.44134,-0.95362 -1.0817,2.51953 -5.30749,1.22667 -6.78561,2.00302 -2.42776,-1.19769 -6.35183,-1.11372 -9.86523,-1.38086 -8.84894,-0.60322 -17.64374,-1.24818 -25.02344,-2.99414 l 4.46485,1.53125 c 1.38543,0.30968 4.59303,1.75766 6.5178,4.50918 16.10858,2.8006 30.75774,3.23403 41.89626,-4.06582 2.48518,-1.77419 2.48962,-4.3881 4.94922,-6.80664 z"
           style="fill:#8e2c2c;fill-opacity:1;fill-rule:evenodd;stroke:none;stroke-width:0.1;stroke-linecap:butt;stroke-linejoin:miter;stroke-miterlimit:4;stroke-dasharray:none;stroke-opacity:1" />
      </g>
      <g
         transform="translate(144,483.99999)"
         id="g4313"
         style="stroke:none">
        <path
           sodipodi:nodetypes="ccccccc"
           inkscape:connector-curvature="0"
           id="path4315"
           d="m 135.58772,505.94544 c 4.51491,9.0584 10.92263,12.70584 24.32825,14.70096 3.5293,0.15434 7.01115,0.13784 9.72272,-2.65165 5.68665,-4.40203 11.78086,-5.88096 9.96643,-12.40286 -4.10724,0.81866 -8.62112,0.77101 -12.28598,2.91681 -3.35964,-0.23676 -6.95545,-0.75692 -9.19239,0.35356 -7.6476,-3.76255 -12.81656,-3.07348 -22.53903,-2.91682 z"
           style="fill:#fb8384;fill-opacity:1;fill-rule:evenodd;stroke:none;stroke-width:0.1;stroke-linecap:butt;stroke-linejoin:miter;stroke-miterlimit:4;stroke-dasharray:none;stroke-opacity:1" />
        <path
           sodipodi:nodetypes="ccccccc"
           inkscape:connector-curvature="0"
           id="path4317"
           d="m 135.58789,505.94531 c 11.66228,2.41677 7.23113,4.1139 11.66211,2.4169 0.2453,3.10774 1.94415,4.99536 5.25,5.75 2.29648,3.3349 6.26618,4.44281 8.5,1.375 2.83615,1.22006 4.86048,0.46565 6.40056,-1.96685 -0.0994,-3.71649 -1.7798,-4.53247 -3.15056,-4.03315 -8.49912,2.33829 -11.32984,-2.93583 -28.66211,-3.5419 z"
           style="fill:#ffa8a7;fill-opacity:1;fill-rule:evenodd;stroke:none;stroke-width:0.1;stroke-linecap:butt;stroke-linejoin:miter;stroke-miterlimit:4;stroke-dasharray:none;stroke-opacity:1" />
        <path
           inkscape:connector-curvature="0"
           id="path4319"
           d="m 142.13477,505.80664 c -1.97131,0.0278 -4.11626,0.0995 -6.54688,0.13867 7.70393,-0.0254 20.35597,0.9808 25.2793,5.48047 -0.86237,-0.90539 -1.60698,-1.95204 -2.74024,-2.56445 -5.7357,-2.82191 -10.07827,-3.13821 -15.99218,-3.05469 z"
           style="fill:#d15a54;fill-opacity:1;fill-rule:evenodd;stroke:none;stroke-width:0.1;stroke-linecap:butt;stroke-linejoin:miter;stroke-miterlimit:4;stroke-dasharray:none;stroke-opacity:1" />
        <path
           inkscape:connector-curvature="0"
           id="path4321"
           d="m 162.30273,508.17969 c -1.59852,-0.0208 -3.05731,0.1264 -4.17578,0.68164 4.24395,-0.67077 7.91376,-0.0419 12.12305,0.625 -0.88535,-0.52949 -1.84022,-0.90902 -2.93164,-0.97852 -1.67982,-0.11838 -3.4171,-0.3073 -5.01563,-0.32812 z"
           style="fill:#d15a54;fill-opacity:1;fill-rule:evenodd;stroke:none;stroke-width:0.1;stroke-linecap:butt;stroke-linejoin:miter;stroke-miterlimit:4;stroke-dasharray:none;stroke-opacity:1" />
        <path
           inkscape:connector-curvature="0"
           id="path4323"
           d="m 179.60547,505.5918 c -4.10724,0.81866 -8.62225,0.77021 -12.28711,2.91601 3.08319,-1.17191 6.71594,-1.57583 12.28711,-2.91601 z"
           style="fill:#d15a54;fill-opacity:1;fill-rule:evenodd;stroke:none;stroke-width:0.1;stroke-linecap:butt;stroke-linejoin:miter;stroke-miterlimit:4;stroke-dasharray:none;stroke-opacity:1" />
        <path
           inkscape:connector-curvature="0"
           id="path4325"
           d="m 179.60504,505.59186 c -0.92507,3.45911 -2.4379,8.36149 -7.60352,9.54492 -1.48574,3.78638 -7.92233,4.40751 -12.28393,4.06718 -15.38067,-1.20014 -19.68804,-7.65754 -23.87276,-12.7506 4.52307,8.8037 10.92375,12.97466 24.12291,14.6457 3.5047,0.4437 8.07176,-0.65835 10.78333,-3.44784 5.68665,-4.40203 10.6684,-5.53746 8.85397,-12.05936 z"
           style="fill:#d15a54;fill-opacity:1;fill-rule:evenodd;stroke:none;stroke-width:0.1;stroke-linecap:butt;stroke-linejoin:miter;stroke-miterlimit:4;stroke-dasharray:none;stroke-opacity:1"
           sodipodi:nodetypes="ccscscc" />
        <path
           sodipodi:nodetypes="cccccc"
           inkscape:connector-curvature="0"
           id="path4327"
           d="m 164.25,509.48721 c 2.00836,-0.2665 3.23421,0.51517 3.95303,3.88285 3.58888,3.56335 6.75063,-1.08085 9.36916,-3.0052 1.14966,-1.63853 -1.91976,-3.7437 -4.33103,-2.56326 -1.58971,0.13055 -2.69588,0.61277 -2.99116,1.68473 -2.0103,-0.12329 -4.09471,-1.13595 -6,8.8e-4 z"
           style="fill:#ffa8a7;fill-opacity:1;fill-rule:evenodd;stroke:none;stroke-width:0.1;stroke-linecap:butt;stroke-linejoin:miter;stroke-miterlimit:4;stroke-dasharray:none;stroke-opacity:1" />
      </g>
    </g>
    <path
       sodipodi:nodetypes="cccccc"
       inkscape:connector-curvature="0"
       id="path4377"
       d="m -126.14679,-31.92286 c 19.17252,-1.17116 29.28884,5.93869 43.91016,4.64856 -8.59468,6.48558 -16.44392,5.43032 -23.80436,6.0533 10.02643,3.99095 19.91214,8.91416 32.52691,-4.24264 2.3394,-5.62422 -0.73211,-13.0154 -9.72255,-19.09188 -11.85184,-7.50208 -28.39608,7.41514 -42.91016,12.63266 z"
       style="fill:#e2a68a;fill-opacity:0.9837838;fill-rule:evenodd;stroke:none;stroke-width:0.1;stroke-linecap:butt;stroke-linejoin:miter;stroke-miterlimit:4;stroke-dasharray:none;stroke-opacity:1" />
    <path
       sodipodi:nodetypes="scss"
       inkscape:connector-curvature="0"
       id="path4379"
       d="m -74.18166,-23.52913 c -10.84314,11.31088 -22.5057,6.87698 -32.50001,1.96429 10.78365,4.85833 21.4425,6.51901 31.78572,-4.64286 1.48591,-1.60352 2.62315,0.68737 0.71429,2.67857 z"
       style="fill:#59312e;fill-opacity:1;fill-rule:evenodd;stroke:none;stroke-width:0.1;stroke-linecap:butt;stroke-linejoin:miter;stroke-miterlimit:4;stroke-dasharray:none;stroke-opacity:1" />
    <path
       sodipodi:nodetypes="ccc"
       inkscape:connector-curvature="0"
       id="path4383"
       d="m -74.73904,-30.70262 c -7.9832,-19.67394 -22.49896,-13.02176 -36.60715,-4.61222 10.61685,6.44277 23.68052,5.56075 36.60715,4.61222 z"
       style="fill:url(#radialGradient4435);fill-opacity:1;fill-rule:evenodd;stroke:none;stroke-width:0.30000001;stroke-linecap:butt;stroke-linejoin:miter;stroke-miterlimit:4;stroke-dasharray:none;stroke-opacity:1" />
    <g
       transform="matrix(-1.6687495,0.02517632,0.03198388,2.1199716,-686.09009,-501.41564)"
       id="g4385">
      <path
         style="fill:#2b1100;fill-rule:evenodd;stroke:none;stroke-width:0.1;stroke-linecap:butt;stroke-linejoin:miter;stroke-miterlimit:4;stroke-dasharray:none;stroke-opacity:1"
         d="m -365.78426,217.97211 c 1.71994,-5.07729 4.78602,-7.0498 9.30021,-6.70065 -0.32833,0.27835 -0.66872,0.54808 -0.80788,0.96166 2.27223,-0.66639 4.56463,-1.13765 7.60407,-1.38371 -0.93553,0.48695 -1.47145,0.98698 -1.74285,1.49568 5.67139,-1.27319 10.58328,1.54397 16.23948,2.02742 l -1.90654,0.44375 c 2.55721,0.36589 4.93994,1.15451 7.0639,2.56998 -8.94993,-2.13435 -16.38338,-2.50807 -23.34253,-1.92205 -2.21804,0.18679 -3.89603,1.05147 -4.92916,2.31328 0.15816,-0.59755 0.43173,-1.16118 0.93341,-1.77496 -3.02977,0.14658 -5.68206,1.02645 -8.41211,1.9696 z"
         id="path4387"
         inkscape:connector-curvature="0"
         sodipodi:nodetypes="ccccccccsccc" />
      <path
         style="fill:#2b1100;fill-rule:evenodd;stroke:none;stroke-width:0.1;stroke-linecap:butt;stroke-linejoin:miter;stroke-miterlimit:4;stroke-dasharray:none;stroke-opacity:1"
         d="m -365.42136,215.36975 c -0.0841,-2.3665 2.63436,-3.10077 4.95553,-4.112 -1.67369,0.60622 -3.38413,0.32857 -4.77111,2.17961 -0.41464,0.55338 -0.52431,1.43256 -0.18442,1.93239 z"
         id="path4389"
         inkscape:connector-curvature="0"
         sodipodi:nodetypes="ccsc" />
    </g>
    <g
       id="g4391"
       transform="matrix(0.76935078,0,0,0.76935078,-1261.7343,-152.42275)"
       clip-path="url(#clipPath4590-3-5)">
      <circle
         r="9.8935575"
         cy="148.90938"
         cx="1514.9369"
         id="circle4393"
         style="fill:#28170b;fill-opacity:1;stroke:none;stroke-width:0.13431254;stroke-linecap:square;stroke-linejoin:bevel;stroke-miterlimit:4;stroke-dasharray:none" />
      <circle
         style="fill:url(#radialGradient4437);fill-opacity:1;stroke:none;stroke-width:0.08675654;stroke-linecap:square;stroke-linejoin:bevel;stroke-miterlimit:4;stroke-dasharray:none"
         id="circle4395"
         cx="1514.9194"
         cy="148.82001"
         r="6.3905501" />
      <path
         sodipodi:nodetypes="ccccccc"
         inkscape:connector-curvature="0"
         id="path4397"
         d="m 1516.879,146.4492 c -2.0146,1.46724 -4.5499,2.87783 -6.7611,2.8656 -0.1772,-0.28137 1.3474,-0.85638 2.0501,-1.73288 -1.7972,1.44637 -2.8259,1.48173 -2.6626,1.24649 0.1858,-0.65526 3.724,-3.15148 6.8822,-3.28416 0.4526,0.1218 -1.4564,0.82077 -1.8261,1.12616 1.181,-0.65437 3.7021,-1.32787 2.3175,-0.22128 z"
         style="fill:#ffffff;fill-rule:evenodd;stroke:none;stroke-width:0.1;stroke-linecap:butt;stroke-linejoin:miter;stroke-miterlimit:4;stroke-dasharray:none;stroke-opacity:1" />
    </g>
    <g
       transform="matrix(1.7790514,-0.32600246,0.32600246,1.7790514,-2856.756,190.39345)"
       id="g4399"
       clip-path="url(#clipPath4604-7-2)">
      <path
         sodipodi:nodetypes="cccc"
         inkscape:connector-curvature="0"
         id="path4401"
         d="m 1532.4846,150.68876 c 1.7897,2.97957 2.2968,6.5867 -2.4488,6.24771 2.0937,-0.013 5.9062,0.1947 7.9999,0.51502 -1.5687,-2.53586 -3.4588,-5.17329 -5.5511,-6.76273 z"
         style="fill:#ffaaaa;fill-rule:evenodd;stroke:none;stroke-width:0.1;stroke-linecap:butt;stroke-linejoin:miter;stroke-miterlimit:4;stroke-dasharray:none;stroke-opacity:1" />
      <path
         style="fill:#ff8080;fill-rule:evenodd;stroke:none;stroke-width:0.1;stroke-linecap:butt;stroke-linejoin:miter;stroke-miterlimit:4;stroke-dasharray:none;stroke-opacity:1"
         d="m 1533.0001,151.10447 c 1.7462,3.46044 1.9959,6.19573 -1.9483,5.84115 2.0937,-0.013 4.8902,0.18555 6.9839,0.50587 -1.6723,-2.45525 -3.1023,-4.63392 -5.0356,-6.34702 z"
         id="path4403"
         inkscape:connector-curvature="0"
         sodipodi:nodetypes="cccc" />
    </g>
    <path
       sodipodi:nodetypes="cccccccccsc"
       inkscape:connector-curvature="0"
       id="path4405"
       d="m -86.70538,-45.52247 c -12.54315,-0.27394 -30.35658,11.26702 -39.44141,13.59961 11.41014,1.81148 12.67913,-2.61078 24.46485,0.60351 l 0.002,-0.10742 c -3.38044,-0.8141 -7.25747,-3.30662 -5.94107,-6.09838 12.96592,-7.01218 23.32102,-8.6387 29.4606,0.4558 l 0.22852,-0.0312 c -0.94371,-2.28815 -2.32602,-4.35426 -5.17774,-6.25 3.88225,1.29192 6.17988,2.82055 8.92774,7.5 -2.20894,-6.98162 -6.82201,-9.54736 -12.52344,-9.67187 z"
       style="fill:#2b1100;fill-opacity:1;fill-rule:evenodd;stroke:none;stroke-width:0.1;stroke-linecap:butt;stroke-linejoin:miter;stroke-miterlimit:4;stroke-dasharray:none;stroke-opacity:1" />
    <path
       sodipodi:nodetypes="ccccccccc"
       inkscape:connector-curvature="0"
       id="path4407"
       d="m -91.47051,-61.03902 c 1.38367,0.93388 6.5525,1.15363 9.17767,3.63943 -2.57311,-0.16796 -5.09598,-1.18068 -7.05364,0.41887 1.48912,0.73622 2.05876,1.5065 2.78127,2.27111 -3.08445,-0.9425 -5.98572,-2.19035 -10.28529,-1.10767 0.22382,-1.35369 -9.87202,1.15519 -9.17764,0.94942 8.30735,-3.79765 14.08294,-3.32293 14.08294,-3.32293 1.5182,0.41053 1.02032,-1.19499 0.47469,-2.84826 z"
       style="fill:#502d16;fill-rule:evenodd;stroke:none;stroke-width:0.1;stroke-linecap:butt;stroke-linejoin:miter;stroke-miterlimit:4;stroke-dasharray:none;stroke-opacity:1" />
    <g
       id="g4409"
       transform="translate(-218.82452,-459.28419)">
      <path
         style="fill:#59312e;fill-opacity:1;fill-rule:evenodd;stroke:none;stroke-width:0.1;stroke-linecap:butt;stroke-linejoin:miter;stroke-miterlimit:4;stroke-dasharray:none;stroke-opacity:1"
         d="m 186.38909,432.18543 c 10.3732,9.08888 18.80343,3.44589 24.36091,-4.82322 -10.30358,10.81242 -13.18813,7.36577 -24.36091,4.82322 z"
         id="path4411"
         inkscape:connector-curvature="0"
         sodipodi:nodetypes="ccc" />
      <g
         id="g4413">
        <path
           sodipodi:nodetypes="ccsssc"
           inkscape:connector-curvature="0"
           id="path4415"
           d="m 183.67099,428.1637 c 2.21817,-6.10247 4.56109,-13.65296 18.91511,-12.59534 4.79488,0.0961 3.96593,5.3051 3.40164,7.34473 -1.16257,4.20212 -4.87418,4.4936 -7.82107,5.25061 -2.57216,0.66075 -5.89734,-3.09643 -11.3137,0.17677 -1.14435,0.69155 -2.2652,0.21788 -3.18198,-0.17677 z"
           style="fill:url(#radialGradient4439);fill-opacity:1;fill-rule:evenodd;stroke:none;stroke-width:0.1;stroke-linecap:butt;stroke-linejoin:miter;stroke-miterlimit:4;stroke-dasharray:none;stroke-opacity:1" />
        <g
           clip-path="url(#clipPath4756-3-1)"
           transform="matrix(0.76935078,0,0,0.76935078,-973.97189,306.21211)"
           id="g4417">
          <circle
             style="fill:#28170b;fill-opacity:1;stroke:none;stroke-width:0.13431254;stroke-linecap:square;stroke-linejoin:bevel;stroke-miterlimit:4;stroke-dasharray:none"
             id="circle4419"
             cx="1514.9369"
             cy="148.90938"
             r="9.8935575" />
          <circle
             r="6.3905501"
             cy="148.82001"
             cx="1514.9194"
             id="circle4421"
             style="fill:url(#radialGradient4441);fill-opacity:1;stroke:none;stroke-width:0.08675654;stroke-linecap:square;stroke-linejoin:bevel;stroke-miterlimit:4;stroke-dasharray:none" />
          <path
             style="fill:#ffffff;fill-rule:evenodd;stroke:none;stroke-width:0.1;stroke-linecap:butt;stroke-linejoin:miter;stroke-miterlimit:4;stroke-dasharray:none;stroke-opacity:1"
             d="m 1517.4534,147.3683 c -2.0146,1.46724 -4.5499,2.87783 -6.7611,2.8656 -0.1772,-0.28137 1.3474,-0.85638 2.0501,-1.73288 -1.7972,1.44637 -2.8259,1.48173 -2.6626,1.24649 0.1858,-0.65526 3.724,-3.15148 6.8822,-3.28416 0.4526,0.1218 -1.4564,0.82077 -1.8261,1.12616 1.181,-0.65437 3.7021,-1.32787 2.3175,-0.22128 z"
             id="path4423"
             inkscape:connector-curvature="0"
             sodipodi:nodetypes="ccccccc" />
        </g>
        <g
           clip-path="url(#clipPath4788-6-7)"
           id="g4425">
          <path
             sodipodi:nodetypes="cccc"
             inkscape:connector-curvature="0"
             id="path4427"
             d="m 184.32812,426.19033 c -0.0936,1.70381 0.38333,1.96326 1.875,2.43751 -1.17086,0.55653 -2.33015,0.0658 -3.73438,0 z"
             style="fill:#ffaaaa;fill-opacity:1;fill-rule:evenodd;stroke:none;stroke-width:0.1;stroke-linecap:butt;stroke-linejoin:miter;stroke-miterlimit:4;stroke-dasharray:none;stroke-opacity:1" />
          <path
             style="fill:#ff8080;fill-opacity:1;fill-rule:evenodd;stroke:none;stroke-width:0.1;stroke-linecap:butt;stroke-linejoin:miter;stroke-miterlimit:4;stroke-dasharray:none;stroke-opacity:1"
             d="m 184.32812,426.19033 c -0.46169,2.33403 -0.65713,1.97337 1.875,2.43751 -1.17086,0.55653 -2.65827,0.26892 -4.0625,0.20312 z"
             id="path4429"
             inkscape:connector-curvature="0"
             sodipodi:nodetypes="cccc" />
        </g>
        <path
           inkscape:connector-curvature="0"
           id="path4431"
           d="m 204.625,413.36328 c -3.71582,0.0744 -6.09757,1.71682 -9.19922,1.63086 -10.36396,1.20969 -12.54463,10.17399 -12.95703,13.63281 1.63414,-6.05702 5.22264,-10.51009 11.08008,-12.27734 0.15964,-0.0501 0.31303,-0.10427 0.47851,-0.15039 0.25461,-0.0688 0.52222,-0.12082 0.78516,-0.17969 0.36408,-0.0835 0.72582,-0.16959 1.11719,-0.23437 0.0489,-0.008 0.10123,-0.0119 0.15039,-0.0195 1.84626,-0.29189 3.98106,-0.38329 6.50586,-0.19726 0.64671,0.013 1.18407,0.12603 1.64062,0.30469 0.0134,0.002 0.0257,0.002 0.0391,0.004 0.005,0.006 0.009,0.013 0.0137,0.0195 2.86451,1.17616 2.19407,5.26423 1.70898,7.01758 -0.0278,0.10033 -0.0651,0.18728 -0.0957,0.28321 0.26948,0.46422 0.67417,0.88674 1.28906,1.2539 l -3.10742,1.53125 c -0.84147,0.69585 -1.84448,1.11376 -2.88477,1.42383 l -0.2832,0.13867 c 2.5451,0.11048 4.9031,0.36895 10.51953,-1.94531 0.96804,-3.15675 -2.25953,-4.63517 -1.13086,-6.55469 0.88743,-1.50924 1.8676,-4.19811 -1.43359,-5.11133 -1.61153,-0.4458 -2.99772,-0.59511 -4.23633,-0.57031 z"
           style="fill:#2b1100;fill-opacity:1;fill-rule:evenodd;stroke:none;stroke-width:0.1;stroke-linecap:butt;stroke-linejoin:miter;stroke-miterlimit:4;stroke-dasharray:none;stroke-opacity:1" />
        <path
           inkscape:connector-curvature="0"
           id="path4433"
           d="m 206.17969,396.29883 c 1.24442,0.91604 1.99829,1.90749 2.42773,2.94922 -7.23131,-2.00776 -12.76497,4.53214 -19.65039,6.23242 l 2.43359,0.70898 c -3.0855,1.07983 -5.87667,3.03097 -8.23242,6.27539 10.63994,-5.58239 19.73824,-7.26318 28.42969,-6.86132 2.66584,0.12328 3.73324,1.49382 5.1543,3.85937 -0.58432,-4.50393 -1.33118,-8.88237 -2.25196,-13.11328 -0.69447,0.007 -1.38424,0.0888 -2.06054,0.24609 0.45675,0.54842 0.92714,1.07687 1.17578,1.9336 -2.92631,-1.13447 -3.6316,-2.07583 -7.42578,-2.23047 z"
           style="fill:#2b1100;fill-rule:evenodd;stroke:none;stroke-width:0.1;stroke-linecap:butt;stroke-linejoin:miter;stroke-miterlimit:4;stroke-dasharray:none;stroke-opacity:1" />
      </g>
    </g>
    <g
       id="g5697"
       transform="matrix(0.53364446,0,0,0.53364446,142.72374,35.88525)"
       clip-path="url(#clipPath5711-5)">
      <path
         sodipodi:nodetypes="cccc"
         inkscape:connector-curvature="0"
         id="path4401-3"
         d="m 172.33834,84.929727 c 4.15532,4.717361 6.23341,10.969315 -2.31977,11.913312 3.72056,-0.705679 10.57091,-1.579054 14.40013,-1.69174 -3.61749,-4.000025 -7.83988,-8.075972 -12.08036,-10.221572 z"
         style="fill:#ffaaaa;fill-rule:evenodd;stroke:none;stroke-width:0.1;stroke-linecap:butt;stroke-linejoin:miter;stroke-miterlimit:4;stroke-dasharray:none;stroke-opacity:1" />
      <path
         style="fill:#ff8080;fill-rule:evenodd;stroke:none;stroke-width:0.1;stroke-linecap:butt;stroke-linejoin:miter;stroke-miterlimit:4;stroke-dasharray:none;stroke-opacity:1"
         d="m 173.39097,85.501242 c 4.23469,5.587035 5.57063,10.371854 -1.5619,11.026857 3.72056,-0.705679 8.76041,-1.264114 12.58963,-1.3768 -3.77552,-3.822842 -7.02982,-7.232625 -11.02773,-9.650057 z"
         id="path4403-6"
         inkscape:connector-curvature="0"
         sodipodi:nodetypes="cccc" />
    </g>
    <g
       clip-path="url(#clipPath4234)"
       transform="matrix(0.38293555,0.17759457,-0.17759457,0.38293555,-324.40884,-242.69623)"
       id="g4215">
      <circle
         style="fill:#28170b;fill-opacity:1;stroke:none;stroke-width:0.13431254;stroke-linecap:square;stroke-linejoin:bevel;stroke-miterlimit:4;stroke-dasharray:none"
         id="circle4217"
         cx="1514.9369"
         cy="148.90938"
         r="9.8935575" />
      <circle
         r="6.3905501"
         cy="148.82001"
         cx="1514.9194"
         id="circle4219"
         style="fill:url(#radialGradient4223);fill-opacity:1;stroke:none;stroke-width:0.08675654;stroke-linecap:square;stroke-linejoin:bevel;stroke-miterlimit:4;stroke-dasharray:none" />
      <path
         style="fill:#ffffff;fill-rule:evenodd;stroke:none;stroke-width:0.1;stroke-linecap:butt;stroke-linejoin:miter;stroke-miterlimit:4;stroke-dasharray:none;stroke-opacity:1"
         d="m 1516.879,146.4492 c -2.0146,1.46724 -4.5499,2.87783 -6.7611,2.8656 -0.1772,-0.28137 1.3474,-0.85638 2.0501,-1.73288 -1.7972,1.44637 -2.8259,1.48173 -2.6626,1.24649 0.1858,-0.65526 3.724,-3.15148 6.8822,-3.28416 0.4526,0.1218 -1.4564,0.82077 -1.8261,1.12616 1.181,-0.65437 3.7021,-1.32787 2.3175,-0.22128 z"
         id="path4221"
         inkscape:connector-curvature="0"
         sodipodi:nodetypes="ccccccc" />
    </g>
  </g>
</svg>
