<?xml version="1.0" encoding="UTF-8" standalone="no"?>
<!-- Created with Inkscape (http://www.inkscape.org/) -->

<svg
   xmlns:dc="http://purl.org/dc/elements/1.1/"
   xmlns:cc="http://creativecommons.org/ns#"
   xmlns:rdf="http://www.w3.org/1999/02/22-rdf-syntax-ns#"
   xmlns:svg="http://www.w3.org/2000/svg"
   xmlns="http://www.w3.org/2000/svg"
   xmlns:xlink="http://www.w3.org/1999/xlink"
   xmlns:sodipodi="http://sodipodi.sourceforge.net/DTD/sodipodi-0.dtd"
   xmlns:inkscape="http://www.inkscape.org/namespaces/inkscape"
   width="210mm"
   height="297mm"
   viewBox="0 0 210 297"
   version="1.1"
   id="svg8"
   inkscape:version="0.92.0 r15299"
   sodipodi:docname="3DTEXT.svg"
   inkscape:export-filename="D:\Hiburan\Gambar\Inkscape\3DTEXT.png"
   inkscape:export-xdpi="96"
   inkscape:export-ydpi="96">
  <sodipodi:namedview
     id="base"
     pagecolor="#ffffff"
     bordercolor="#666666"
     borderopacity="1.0"
     inkscape:pageopacity="0.0"
     inkscape:pageshadow="2"
     inkscape:zoom="0.7"
     inkscape:cx="-1090.1634"
     inkscape:cy="1106.5394"
     inkscape:document-units="mm"
     inkscape:current-layer="layer1"
     showgrid="false"
     inkscape:window-width="1366"
     inkscape:window-height="705"
     inkscape:window-x="-8"
     inkscape:window-y="-8"
     inkscape:window-maximized="1" />
  <defs
     id="defs2">
    <linearGradient
       inkscape:collect="always"
       id="linearGradient5993">
      <stop
         style="stop-color:#ffffff;stop-opacity:1;"
         offset="0"
         id="stop5989" />
      <stop
         style="stop-color:#ffffff;stop-opacity:0;"
         offset="1"
         id="stop5991" />
    </linearGradient>
    <linearGradient
       inkscape:collect="always"
       id="linearGradient5486">
      <stop
         style="stop-color:#2196f3;stop-opacity:1;"
         offset="0"
         id="stop5482" />
      <stop
         style="stop-color:#1a237e;stop-opacity:1"
         offset="1"
         id="stop5484" />
    </linearGradient>
    <radialGradient
       inkscape:collect="always"
       xlink:href="#linearGradient5486"
       id="radialGradient5490"
       cx="-350.83063"
       cy="-90.287109"
       fx="-350.83063"
       fy="-90.287109"
       r="187.50143"
       gradientTransform="matrix(0.64375664,0.23401879,-0.12215461,0.33603221,-136.79934,53.840797)"
       gradientUnits="userSpaceOnUse" />
    <linearGradient
       inkscape:collect="always"
       xlink:href="#linearGradient5993"
       id="linearGradient5995"
       x1="-962.70453"
       y1="-32.549942"
       x2="-955.21844"
       y2="-259.18076"
       gradientUnits="userSpaceOnUse" />
  </defs>
  <metadata
     id="metadata5">
    <rdf:RDF>
      <cc:Work
         rdf:about="">
        <dc:format>image/svg+xml</dc:format>
        <dc:type
           rdf:resource="http://purl.org/dc/dcmitype/StillImage" />
        <dc:title />
      </cc:Work>
    </rdf:RDF>
  </metadata>
  <g
     inkscape:label="Layer 1"
     inkscape:groupmode="layer"
     id="layer1">
    <rect
       style="opacity:0.98999999;fill:#ffffff;fill-opacity:1;stroke:none;stroke-width:0.2;stroke-linecap:square;stroke-linejoin:miter;stroke-miterlimit:4;stroke-dasharray:none;stroke-dashoffset:0;stroke-opacity:1;paint-order:stroke fill markers"
       id="rect4586"
       width="412.66415"
       height="141.1183"
       x="-453.28912"
       y="-111.92237" />
    <path
       style="font-style:normal;font-variant:normal;font-weight:900;font-stretch:normal;font-size:medium;line-height:14.94454098px;font-family:Arial;-inkscape-font-specification:'Arial Heavy';letter-spacing:0px;word-spacing:0px;fill:#01579b;fill-opacity:1;stroke:none;stroke-width:0.59778166"
       d="m -353.36398,-70.581458 c 0,0 -80.65704,56.168058 -80.65704,56.168058 0,0 15.87198,-0.02401 15.87198,-0.02401 0,0 37.07897,-28.081125 37.07897,-28.081125 0,0 6.88579,-0.01405 6.88579,-0.01405 5.07314,-0.01035 10.82224,-1.701733 16.9582,-4.922677 5.7963,-3.033674 11.33997,-6.959132 16.48627,-11.555034 4.56003,-4.072333 6.9157,-6.972613 7.34581,-8.896228 0.425,-1.838683 -1.0613,-2.72347 -4.44404,-2.714786 0,0 -15.52594,0.03985 -15.52594,0.03985 m 35.33343,-0.0907 c 0,0 -75.43736,56.197403 -75.43736,56.197403 0,0 16.17598,-0.02447 16.17598,-0.02447 0,0 16.64616,-14.102945 16.64616,-14.102945 0,0 16.18711,-0.02878 16.18711,-0.02878 0,0 -9.79329,14.096863 -9.79329,14.096863 0,0 16.58454,-0.02509 16.58454,-0.02509 0,0 29.83536,-56.139161 29.83536,-56.139161 0,0 -10.1985,0.02618 -10.1985,0.02618 m 24.61487,-0.06319 c 0,0 -39.10622,56.168382 -39.10622,56.168382 0,0 14.91725,-0.02257 14.91725,-0.02257 0,0 22.22874,-37.844553 22.22874,-37.844553 0,0 -2.99247,37.81545 -2.99247,37.81545 0,0 14.97072,-0.02265 14.97072,-0.02265 0,0 18.96248,-56.168453 18.96248,-56.168453 0,0 -8.82955,0.02267 -8.82955,0.02267 0,0 -10.59301,23.701443 -10.59301,23.701443 0,0 -0.8174,-23.672153 -0.8174,-23.672153 0,0 -8.74054,0.02244 -8.74054,0.02244 m 33.11733,-0.08501 c 0,0 -2.60529,9.09817 -2.60529,9.09817 0,0 10.63648,-0.02549 10.63648,-0.02549 0,0 -7.90282,47.071248 -7.90282,47.071248 0,0 15.90551,-0.02406 15.90551,-0.02406 0,0 2.4303,-47.072184 2.4303,-47.072184 0,0 10.64489,-0.02551 10.64489,-0.02551 0,0 -0.60993,-9.09533 -0.60993,-9.09533 0,0 -28.49914,0.07316 -28.49914,0.07316 m 38.21268,-0.09809 c 0,0 -8.82894,56.197759 -8.82894,56.197759 0,0 16.27512,-0.02462 16.27512,-0.02462 0,0 -0.09,-14.116261 -0.09,-14.116261 0,0 16.27608,-0.02893 16.27608,-0.02893 0,0 6.99581,14.110123 6.99581,14.110123 0,0 16.68626,-0.02524 16.68626,-0.02524 0,0 -37.07939,-56.139091 -37.07939,-56.139091 0,0 -10.23493,0.02627 -10.23493,0.02627 m 24.70372,-0.06341 c 0,0 27.78766,56.168399 27.78766,56.168399 0,0 15.00816,-0.02271 15.00816,-0.02271 0,0 -22.89176,-37.860035 -22.89176,-37.860035 0,0 42.24611,37.830753 42.24611,37.830753 0,0 15.0633,-0.02279 15.0633,-0.02279 0,0 -48.12826,-56.168282 -48.12826,-56.168282 0,0 -8.86183,0.02275 -8.86183,0.02275 0,0 17.67903,23.684174 17.67903,23.684174 0,0 -29.13067,-23.654778 -29.13067,-23.654778 0,0 -8.77174,0.02252 -8.77174,0.02252 m 43.32795,-0.111222 c 0,0 38.64947,56.197636 38.64947,56.197636 0,0 16.345726,-0.02473 16.345726,-0.02473 0,0 -12.038526,-14.125625 -12.038526,-14.125625 0,0 16.339419,-0.02905 16.339419,-0.02905 0,0 18.981012,14.119448 18.981012,14.119448 0,0 16.758742,-0.02535 16.758742,-0.02535 0,0 -84.774393,-56.138668 -84.774393,-56.138668 0,0 -10.26145,0.02634 -10.26145,0.02634 m -199.63484,7.837838 c 0,0 2.90147,-0.007 2.90147,-0.007 1.90447,-0.0046 2.65984,0.424952 2.2611,1.301322 -0.40673,0.893932 -1.42767,2.009046 -3.09365,3.361358 -1.76648,1.43388 -3.69378,2.649887 -5.77218,3.629569 -2.09382,0.977997 -4.24735,1.476836 -6.4289,1.481735 0,0 -2.77255,0.0062 -2.77255,0.0062 0,0 12.90471,-9.773163 12.90471,-9.773163 m 31.63383,2.180144 c 0,0 -12.28354,17.84968 -12.28354,17.84968 0,0 -8.93083,0.01832 -8.93083,0.01832 0,0 21.21437,-17.868004 21.21437,-17.868004 m 107.38216,-0.256297 c 0,0 8.96299,17.842063 8.96299,17.842063 0,0 -8.97409,0.01841 -8.97409,0.01841 0,0 0.0111,-17.860475 0.0111,-17.860475 m 76.17019,-0.181801 c 0,0 24.0962,17.836531 24.0962,17.836531 0,0 -9.00536,0.01848 -9.00536,0.01848 0,0 -15.09084,-17.855008 -15.09084,-17.855008"
       id="path4515"
       inkscape:connector-curvature="0" />
    <g
       id="g5383"
       style="fill:#0a0e32;stroke:#000000;fill-opacity:1;stroke-width:0;stroke-opacity:0.6;stroke-miterlimit:4;stroke-dasharray:none">
      <path
         id="path5207"
         d="M-353.36398 -79.48003L-353.36398 -70.581458L-434.02102 -14.4134L-434.02102 -23.311972L-353.36398 -79.48003"
         style="fill:#0a0e32;fill-opacity:1;stroke-width:0;stroke-miterlimit:4;stroke-dasharray:none" />
      <path
         id="path5209"
         d="M-434.02102 -23.311972L-434.02102 -14.4134L-418.14904 -14.43741L-418.14904 -23.335982L-434.02102 -23.311972"
         style="fill:#0a0e32;fill-opacity:1;stroke-width:0;stroke-miterlimit:4;stroke-dasharray:none" />
      <path
         id="path5211"
         d="M-418.14904 -23.335982L-418.14904 -14.43741L-381.07007 -42.518535L-381.07007 -51.417107L-418.14904 -23.335982"
         style="fill:#0a0e32;fill-opacity:1;stroke-width:0;stroke-miterlimit:4;stroke-dasharray:none" />
      <path
         id="path5213"
         d="M-381.07007 -51.417107L-381.07007 -42.518535L-374.18428 -42.532585L-374.18428 -51.431157L-381.07007 -51.417107"
         style="fill:#0a0e32;fill-opacity:1;stroke-width:0;stroke-miterlimit:4;stroke-dasharray:none" />
      <path
         id="path5215"
         d="M-374.18428 -51.431157L-374.18428 -42.532585L-357.22608 -47.455262L-357.22608 -56.353834L-374.18428 -51.431157"
         style="fill:#0a0e32;fill-opacity:1;stroke-width:0;stroke-miterlimit:4;stroke-dasharray:none" />
      <path
         id="path5217"
         d="M-357.22608 -56.353834L-357.22608 -47.455262L-340.73981 -59.010296L-340.73981 -67.908868L-357.22608 -56.353834"
         style="fill:#0a0e32;fill-opacity:1;stroke-width:0;stroke-miterlimit:4;stroke-dasharray:none" />
      <path
         id="path5219"
         d="M-340.73981 -67.908868L-340.73981 -59.010296L-333.394 -67.906524L-333.394 -76.805096L-340.73981 -67.908868"
         style="fill:#0a0e32;fill-opacity:1;stroke-width:0;stroke-miterlimit:4;stroke-dasharray:none" />
      <path
         id="path5221"
         d="M-333.394 -76.805096L-333.394 -67.906524L-337.83804 -70.62131L-337.83804 -79.519882L-333.394 -76.805096"
         style="fill:#0a0e32;fill-opacity:1;stroke-width:0;stroke-miterlimit:4;stroke-dasharray:none" />
      <path
         id="path5223"
         d="M-337.83804 -79.519882L-337.83804 -70.62131L-353.36398 -70.58146L-353.36398 -79.480032L-337.83804 -79.519882"
         style="fill:#0a0e32;fill-opacity:1;stroke-width:0;stroke-miterlimit:4;stroke-dasharray:none" />
      <path
         id="path5225"
         d="M-353.36398 -79.480032L-353.36398 -70.58146L-353.36398 -70.581458L-353.36398 -79.48003L-353.36398 -79.480032"
         style="fill:#0a0e32;fill-opacity:1;stroke-width:0;stroke-miterlimit:4;stroke-dasharray:none" />
      <path
         id="path5227"
         d="M-318.03055 -79.570732L-318.03055 -70.67216L-393.46791 -14.474757L-393.46791 -23.373329L-318.03055 -79.570732"
         style="fill:#0a0e32;fill-opacity:1;stroke-width:0;stroke-miterlimit:4;stroke-dasharray:none" />
      <path
         id="path5229"
         d="M-393.46791 -23.373329L-393.46791 -14.474757L-377.29193 -14.499227L-377.29193 -23.397799L-393.46791 -23.373329"
         style="fill:#0a0e32;fill-opacity:1;stroke-width:0;stroke-miterlimit:4;stroke-dasharray:none" />
      <path
         id="path5231"
         d="M-377.29193 -23.397799L-377.29193 -14.499227L-360.64577 -28.602172L-360.64577 -37.500744L-377.29193 -23.397799"
         style="fill:#0a0e32;fill-opacity:1;stroke-width:0;stroke-miterlimit:4;stroke-dasharray:none" />
      <path
         id="path5233"
         d="M-360.64577 -37.500744L-360.64577 -28.602172L-344.45866 -28.630952L-344.45866 -37.529524L-360.64577 -37.500744"
         style="fill:#0a0e32;fill-opacity:1;stroke-width:0;stroke-miterlimit:4;stroke-dasharray:none" />
      <path
         id="path5235"
         d="M-344.45866 -37.529524L-344.45866 -28.630952L-354.25195 -14.534089L-354.25195 -23.432661L-344.45866 -37.529524"
         style="fill:#0a0e32;fill-opacity:1;stroke-width:0;stroke-miterlimit:4;stroke-dasharray:none" />
      <path
         id="path5237"
         d="M-354.25195 -23.432661L-354.25195 -14.534089L-337.66741 -14.559179L-337.66741 -23.457751L-354.25195 -23.432661"
         style="fill:#0a0e32;fill-opacity:1;stroke-width:0;stroke-miterlimit:4;stroke-dasharray:none" />
      <path
         id="path5239"
         d="M-337.66741 -23.457751L-337.66741 -14.559179L-307.83205 -70.69834L-307.83205 -79.596912L-337.66741 -23.457751"
         style="fill:#0a0e32;fill-opacity:1;stroke-width:0;stroke-miterlimit:4;stroke-dasharray:none" />
      <path
         id="path5241"
         d="M-307.83205 -79.596912L-307.83205 -70.69834L-318.03055 -70.67216L-318.03055 -79.570732L-307.83205 -79.596912"
         style="fill:#0a0e32;fill-opacity:1;stroke-width:0;stroke-miterlimit:4;stroke-dasharray:none" />
      <path
         id="path5243"
         d="M-318.03055 -79.570732L-318.03055 -70.67216L-318.03055 -70.67216L-318.03055 -79.570732L-318.03055 -79.570732"
         style="fill:#0a0e32;fill-opacity:1;stroke-width:0;stroke-miterlimit:4;stroke-dasharray:none" />
      <path
         id="path5245"
         d="M-293.41568 -79.633922L-293.41568 -70.73535L-332.5219 -14.566968L-332.5219 -23.46554L-293.41568 -79.633922"
         style="fill:#0a0e32;fill-opacity:1;stroke-width:0;stroke-miterlimit:4;stroke-dasharray:none" />
      <path
         id="path5247"
         d="M-332.5219 -23.46554L-332.5219 -14.566968L-317.60465 -14.589538L-317.60465 -23.48811L-332.5219 -23.46554"
         style="fill:#0a0e32;fill-opacity:1;stroke-width:0;stroke-miterlimit:4;stroke-dasharray:none" />
      <path
         id="path5249"
         d="M-317.60465 -23.48811L-317.60465 -14.589538L-295.37591 -52.434091L-295.37591 -61.332663L-317.60465 -23.48811"
         style="fill:#0a0e32;fill-opacity:1;stroke-width:0;stroke-miterlimit:4;stroke-dasharray:none" />
      <path
         id="path5251"
         d="M-295.37591 -61.332663L-295.37591 -52.434091L-298.36838 -14.618641L-298.36838 -23.517213L-295.37591 -61.332663"
         style="fill:#0a0e32;fill-opacity:1;stroke-width:0;stroke-miterlimit:4;stroke-dasharray:none" />
      <path
         id="path5253"
         d="M-298.36838 -23.517213L-298.36838 -14.618641L-283.39766 -14.641291L-283.39766 -23.539863L-298.36838 -23.517213"
         style="fill:#0a0e32;fill-opacity:1;stroke-width:0;stroke-miterlimit:4;stroke-dasharray:none" />
      <path
         id="path5255"
         d="M-283.39766 -23.539863L-283.39766 -14.641291L-264.43518 -70.809744L-264.43518 -79.708316L-283.39766 -23.539863"
         style="fill:#0a0e32;fill-opacity:1;stroke-width:0;stroke-miterlimit:4;stroke-dasharray:none" />
      <path
         id="path5257"
         d="M-264.43518 -79.708316L-264.43518 -70.809744L-273.26473 -70.787074L-273.26473 -79.685646L-264.43518 -79.708316"
         style="fill:#0a0e32;fill-opacity:1;stroke-width:0;stroke-miterlimit:4;stroke-dasharray:none" />
      <path
         id="path5259"
         d="M-273.26473 -79.685646L-273.26473 -70.787074L-283.85774 -47.085631L-283.85774 -55.984203L-273.26473 -79.685646"
         style="fill:#0a0e32;fill-opacity:1;stroke-width:0;stroke-miterlimit:4;stroke-dasharray:none" />
      <path
         id="path5261"
         d="M-283.85774 -55.984203L-283.85774 -47.085631L-284.67514 -70.757784L-284.67514 -79.656356L-283.85774 -55.984203"
         style="fill:#0a0e32;fill-opacity:1;stroke-width:0;stroke-miterlimit:4;stroke-dasharray:none" />
      <path
         id="path5263"
         d="M-284.67514 -79.656356L-284.67514 -70.757784L-293.41568 -70.735344L-293.41568 -79.633916L-284.67514 -79.656356"
         style="fill:#0a0e32;fill-opacity:1;stroke-width:0;stroke-miterlimit:4;stroke-dasharray:none" />
      <path
         id="path5265"
         d="M-293.41568 -79.633916L-293.41568 -70.735344L-293.41568 -70.73535L-293.41568 -79.633922L-293.41568 -79.633916"
         style="fill:#0a0e32;fill-opacity:1;stroke-width:0;stroke-miterlimit:4;stroke-dasharray:none" />
      <path
         id="path5267"
         d="M-260.29835 -79.718926L-260.29835 -70.820354L-262.90364 -61.722184L-262.90364 -70.620756L-260.29835 -79.718926"
         style="fill:#0a0e32;fill-opacity:1;stroke-width:0;stroke-miterlimit:4;stroke-dasharray:none" />
      <path
         id="path5269"
         d="M-262.90364 -70.620756L-262.90364 -61.722184L-252.26716 -61.747674L-252.26716 -70.646246L-262.90364 -70.620756"
         style="fill:#0a0e32;fill-opacity:1;stroke-width:0;stroke-miterlimit:4;stroke-dasharray:none" />
      <path
         id="path5271"
         d="M-252.26716 -70.646246L-252.26716 -61.747674L-260.16998 -14.676426L-260.16998 -23.574998L-252.26716 -70.646246"
         style="fill:#0a0e32;fill-opacity:1;stroke-width:0;stroke-miterlimit:4;stroke-dasharray:none" />
      <path
         id="path5273"
         d="M-260.16998 -23.574998L-260.16998 -14.676426L-244.26447 -14.700486L-244.26447 -23.599058L-260.16998 -23.574998"
         style="fill:#0a0e32;fill-opacity:1;stroke-width:0;stroke-miterlimit:4;stroke-dasharray:none" />
      <path
         id="path5275"
         d="M-244.26447 -23.599058L-244.26447 -14.700486L-241.83417 -61.77267L-241.83417 -70.671242L-244.26447 -23.599058"
         style="fill:#0a0e32;fill-opacity:1;stroke-width:0;stroke-miterlimit:4;stroke-dasharray:none" />
      <path
         id="path5277"
         d="M-241.83417 -70.671242L-241.83417 -61.77267L-231.18928 -61.79818L-231.18928 -70.696752L-241.83417 -70.671242"
         style="fill:#0a0e32;fill-opacity:1;stroke-width:0;stroke-miterlimit:4;stroke-dasharray:none" />
      <path
         id="path5279"
         d="M-231.18928 -70.696752L-231.18928 -61.79818L-231.79921 -70.89351L-231.79921 -79.792082L-231.18928 -70.696752"
         style="fill:#0a0e32;fill-opacity:1;stroke-width:0;stroke-miterlimit:4;stroke-dasharray:none" />
      <path
         id="path5281"
         d="M-231.79921 -79.792082L-231.79921 -70.89351L-260.29835 -70.82035L-260.29835 -79.718922L-231.79921 -79.792082"
         style="fill:#0a0e32;fill-opacity:1;stroke-width:0;stroke-miterlimit:4;stroke-dasharray:none" />
      <path
         id="path5283"
         d="M-260.29835 -79.718922L-260.29835 -70.82035L-260.29835 -70.820354L-260.29835 -79.718926L-260.29835 -79.718922"
         style="fill:#0a0e32;fill-opacity:1;stroke-width:0;stroke-miterlimit:4;stroke-dasharray:none" />
      <path
         id="path5285"
         d="M-222.08567 -79.817012L-222.08567 -70.91844L-230.91461 -14.720681L-230.91461 -23.619253L-222.08567 -79.817012"
         style="fill:#0a0e32;fill-opacity:1;stroke-width:0;stroke-miterlimit:4;stroke-dasharray:none" />
      <path
         id="path5287"
         d="M-230.91461 -23.619253L-230.91461 -14.720681L-214.63949 -14.745301L-214.63949 -23.643873L-230.91461 -23.619253"
         style="fill:#0a0e32;fill-opacity:1;stroke-width:0;stroke-miterlimit:4;stroke-dasharray:none" />
      <path
         id="path5289"
         d="M-214.63949 -23.643873L-214.63949 -14.745301L-214.72949 -28.861562L-214.72949 -37.760134L-214.63949 -23.643873"
         style="fill:#0a0e32;fill-opacity:1;stroke-width:0;stroke-miterlimit:4;stroke-dasharray:none" />
      <path
         id="path5291"
         d="M-214.72949 -37.760134L-214.72949 -28.861562L-198.45341 -28.890492L-198.45341 -37.789064L-214.72949 -37.760134"
         style="fill:#0a0e32;fill-opacity:1;stroke-width:0;stroke-miterlimit:4;stroke-dasharray:none" />
      <path
         id="path5293"
         d="M-198.45341 -37.789064L-198.45341 -28.890492L-191.4576 -14.780369L-191.4576 -23.678941L-198.45341 -37.789064"
         style="fill:#0a0e32;fill-opacity:1;stroke-width:0;stroke-miterlimit:4;stroke-dasharray:none" />
      <path
         id="path5295"
         d="M-191.4576 -23.678941L-191.4576 -14.780369L-174.77134 -14.805609L-174.77134 -23.704181L-191.4576 -23.678941"
         style="fill:#0a0e32;fill-opacity:1;stroke-width:0;stroke-miterlimit:4;stroke-dasharray:none" />
      <path
         id="path5297"
         d="M-174.77134 -23.704181L-174.77134 -14.805609L-211.85073 -70.9447L-211.85073 -79.843272L-174.77134 -23.704181"
         style="fill:#0a0e32;fill-opacity:1;stroke-width:0;stroke-miterlimit:4;stroke-dasharray:none" />
      <path
         id="path5299"
         d="M-211.85073 -79.843272L-211.85073 -70.9447L-222.08566 -70.91843L-222.08566 -79.817002L-211.85073 -79.843272"
         style="fill:#0a0e32;fill-opacity:1;stroke-width:0;stroke-miterlimit:4;stroke-dasharray:none" />
      <path
         id="path5301"
         d="M-222.08566 -79.817002L-222.08566 -70.91843L-222.08567 -70.91844L-222.08567 -79.817012L-222.08566 -79.817002"
         style="fill:#0a0e32;fill-opacity:1;stroke-width:0;stroke-miterlimit:4;stroke-dasharray:none" />
      <path
         id="path5303"
         d="M-197.38194 -79.880412L-197.38194 -70.98184L-169.59428 -14.813441L-169.59428 -23.712013L-197.38194 -79.880412"
         style="fill:#0a0e32;fill-opacity:1;stroke-width:0;stroke-miterlimit:4;stroke-dasharray:none" />
      <path
         id="path5305"
         d="M-169.59428 -23.712013L-169.59428 -14.813441L-154.58612 -14.836151L-154.58612 -23.734723L-169.59428 -23.712013"
         style="fill:#0a0e32;fill-opacity:1;stroke-width:0;stroke-miterlimit:4;stroke-dasharray:none" />
      <path
         id="path5307"
         d="M-154.58612 -23.734723L-154.58612 -14.836151L-177.47788 -52.696186L-177.47788 -61.594758L-154.58612 -23.734723"
         style="fill:#0a0e32;fill-opacity:1;stroke-width:0;stroke-miterlimit:4;stroke-dasharray:none" />
      <path
         id="path5309"
         d="M-177.47788 -61.594758L-177.47788 -52.696186L-135.23177 -14.865433L-135.23177 -23.764005L-177.47788 -61.594758"
         style="fill:#0a0e32;fill-opacity:1;stroke-width:0;stroke-miterlimit:4;stroke-dasharray:none" />
      <path
         id="path5311"
         d="M-135.23177 -23.764005L-135.23177 -14.865433L-120.16847 -14.888223L-120.16847 -23.786795L-135.23177 -23.764005"
         style="fill:#0a0e32;fill-opacity:1;stroke-width:0;stroke-miterlimit:4;stroke-dasharray:none" />
      <path
         id="path5313"
         d="M-120.16847 -23.786795L-120.16847 -14.888223L-168.29673 -71.056505L-168.29673 -79.955077L-120.16847 -23.786795"
         style="fill:#0a0e32;fill-opacity:1;stroke-width:0;stroke-miterlimit:4;stroke-dasharray:none" />
      <path
         id="path5315"
         d="M-168.29673 -79.955077L-168.29673 -71.056505L-177.15856 -71.033755L-177.15856 -79.932327L-168.29673 -79.955077"
         style="fill:#0a0e32;fill-opacity:1;stroke-width:0;stroke-miterlimit:4;stroke-dasharray:none" />
      <path
         id="path5317"
         d="M-177.15856 -79.932327L-177.15856 -71.033755L-159.47953 -47.349581L-159.47953 -56.248153L-177.15856 -79.932327"
         style="fill:#0a0e32;fill-opacity:1;stroke-width:0;stroke-miterlimit:4;stroke-dasharray:none" />
      <path
         id="path5319"
         d="M-159.47953 -56.248153L-159.47953 -47.349581L-188.6102 -71.004359L-188.6102 -79.902931L-159.47953 -56.248153"
         style="fill:#0a0e32;fill-opacity:1;stroke-width:0;stroke-miterlimit:4;stroke-dasharray:none" />
      <path
         id="path5321"
         d="M-188.6102 -79.902931L-188.6102 -71.004359L-197.38194 -70.981839L-197.38194 -79.880411L-188.6102 -79.902931"
         style="fill:#0a0e32;fill-opacity:1;stroke-width:0;stroke-miterlimit:4;stroke-dasharray:none" />
      <path
         id="path5323"
         d="M-197.38194 -79.880411L-197.38194 -70.981839L-197.38194 -70.98184L-197.38194 -79.880412L-197.38194 -79.880411"
         style="fill:#0a0e32;fill-opacity:1;stroke-width:0;stroke-miterlimit:4;stroke-dasharray:none" />
      <path
         id="path5325"
         d="M-154.05399 -79.991633L-154.05399 -71.093061L-115.40452 -14.895425L-115.40452 -23.793997L-154.05399 -79.991633"
         style="fill:#0a0e32;fill-opacity:1;stroke-width:0;stroke-miterlimit:4;stroke-dasharray:none" />
      <path
         id="path5327"
         d="M-115.40452 -23.793997L-115.40452 -14.895425L-99.058794 -14.920155L-99.058789 -23.818727L-115.40452 -23.793997"
         style="fill:#0a0e32;fill-opacity:1;stroke-width:0;stroke-miterlimit:4;stroke-dasharray:none" />
      <path
         id="path5329"
         d="M-99.058789 -23.818727L-99.058794 -14.920155L-111.09732 -29.04578L-111.09732 -37.944352L-99.058789 -23.818727"
         style="fill:#0a0e32;fill-opacity:1;stroke-width:0;stroke-miterlimit:4;stroke-dasharray:none" />
      <path
         id="path5331"
         d="M-111.09732 -37.944352L-111.09732 -29.04578L-94.757901 -29.07483L-94.757901 -37.973402L-111.09732 -37.944352"
         style="fill:#0a0e32;fill-opacity:1;stroke-width:0;stroke-miterlimit:4;stroke-dasharray:none" />
      <path
         id="path5333"
         d="M-94.757901 -37.973402L-94.757901 -29.07483L-75.776889 -14.955382L-75.776889 -23.853954L-94.757901 -37.973402"
         style="fill:#0a0e32;fill-opacity:1;stroke-width:0;stroke-miterlimit:4;stroke-dasharray:none" />
      <path
         id="path5335"
         d="M-75.776889 -23.853954L-75.776889 -14.955382L-59.018147 -14.980732L-59.018147 -23.879304L-75.776889 -23.853954"
         style="fill:#0a0e32;fill-opacity:1;stroke-width:0;stroke-miterlimit:4;stroke-dasharray:none" />
      <path
         id="path5337"
         d="M-59.018147 -23.879304L-59.018147 -14.980732L-143.79254 -71.1194L-143.79254 -80.017972L-59.018147 -23.879304"
         style="fill:#0a0e32;fill-opacity:1;stroke-width:0;stroke-miterlimit:4;stroke-dasharray:none" />
      <path
         id="path5339"
         d="M-143.79254 -80.017972L-143.79254 -71.1194L-154.05399 -71.09306L-154.05399 -79.991632L-143.79254 -80.017972"
         style="fill:#0a0e32;fill-opacity:1;stroke-width:0;stroke-miterlimit:4;stroke-dasharray:none" />
      <path
         id="path5341"
         d="M-154.05399 -79.991632L-154.05399 -71.09306L-154.05399 -71.093061L-154.05399 -79.991633L-154.05399 -79.991632"
         style="fill:#0a0e32;fill-opacity:1;stroke-width:0;stroke-miterlimit:4;stroke-dasharray:none" />
      <path
         id="path5343"
         d="M-353.68883 -72.153794L-353.68883 -63.255222L-350.78736 -63.262222L-350.78736 -72.160794L-353.68883 -72.153794"
         style="fill:#0a0e32;fill-opacity:1;stroke-width:0;stroke-miterlimit:4;stroke-dasharray:none" />
      <path
         id="path5345"
         d="M-350.78736 -72.160794L-350.78736 -63.262222L-348.52626 -61.9609L-348.52626 -70.859472L-350.78736 -72.160794"
         style="fill:#0a0e32;fill-opacity:1;stroke-width:0;stroke-miterlimit:4;stroke-dasharray:none" />
      <path
         id="path5347"
         d="M-348.52626 -70.859472L-348.52626 -61.9609L-351.61991 -58.599542L-351.61991 -67.498114L-348.52626 -70.859472"
         style="fill:#0a0e32;fill-opacity:1;stroke-width:0;stroke-miterlimit:4;stroke-dasharray:none" />
      <path
         id="path5349"
         d="M-351.61991 -67.498114L-351.61991 -58.599542L-357.39209 -54.969973L-357.39209 -63.868545L-351.61991 -67.498114"
         style="fill:#0a0e32;fill-opacity:1;stroke-width:0;stroke-miterlimit:4;stroke-dasharray:none" />
      <path
         id="path5351"
         d="M-357.39209 -63.868545L-357.39209 -54.969973L-363.82099 -53.488238L-363.82099 -62.38681L-357.39209 -63.868545"
         style="fill:#0a0e32;fill-opacity:1;stroke-width:0;stroke-miterlimit:4;stroke-dasharray:none" />
      <path
         id="path5353"
         d="M-363.82099 -62.38681L-363.82099 -53.488238L-366.59354 -53.482038L-366.59354 -62.38061L-363.82099 -62.38681"
         style="fill:#0a0e32;fill-opacity:1;stroke-width:0;stroke-miterlimit:4;stroke-dasharray:none" />
      <path
         id="path5355"
         d="M-366.59354 -62.38061L-366.59354 -53.482038L-353.68883 -63.255201L-353.68883 -72.153773L-366.59354 -62.38061"
         style="fill:#0a0e32;fill-opacity:1;stroke-width:0;stroke-miterlimit:4;stroke-dasharray:none" />
      <path
         id="path5357"
         d="M-353.68883 -72.153773L-353.68883 -63.255201L-353.68883 -63.255222L-353.68883 -72.153794L-353.68883 -72.153773"
         style="fill:#0a0e32;fill-opacity:1;stroke-width:0;stroke-miterlimit:4;stroke-dasharray:none" />
      <path
         id="path5359"
         d="M-322.055 -69.973629L-322.055 -61.075057L-334.33854 -43.225377L-334.33854 -52.123949L-322.055 -69.973629"
         style="fill:#0a0e32;fill-opacity:1;stroke-width:0;stroke-miterlimit:4;stroke-dasharray:none" />
      <path
         id="path5361"
         d="M-334.33854 -52.123949L-334.33854 -43.225377L-343.26937 -43.207057L-343.26937 -52.105629L-334.33854 -52.123949"
         style="fill:#0a0e32;fill-opacity:1;stroke-width:0;stroke-miterlimit:4;stroke-dasharray:none" />
      <path
         id="path5363"
         d="M-343.26937 -52.105629L-343.26937 -43.207057L-322.055 -61.075061L-322.055 -69.973633L-343.26937 -52.105629"
         style="fill:#0a0e32;fill-opacity:1;stroke-width:0;stroke-miterlimit:4;stroke-dasharray:none" />
      <path
         id="path5365"
         d="M-322.055 -69.973633L-322.055 -61.075061L-322.055 -61.075057L-322.055 -69.973629L-322.055 -69.973633"
         style="fill:#0a0e32;fill-opacity:1;stroke-width:0;stroke-miterlimit:4;stroke-dasharray:none" />
      <path
         id="path5367"
         d="M-214.67284 -70.22993L-214.67284 -61.331358L-205.70985 -43.489295L-205.70985 -52.387867L-214.67284 -70.22993"
         style="fill:#0a0e32;fill-opacity:1;stroke-width:0;stroke-miterlimit:4;stroke-dasharray:none" />
      <path
         id="path5369"
         d="M-205.70985 -52.387867L-205.70985 -43.489295L-214.68394 -43.470885L-214.68394 -52.369457L-205.70985 -52.387867"
         style="fill:#0a0e32;fill-opacity:1;stroke-width:0;stroke-miterlimit:4;stroke-dasharray:none" />
      <path
         id="path5371"
         d="M-214.68394 -52.369457L-214.68394 -43.470885L-214.67284 -61.33136L-214.67284 -70.229932L-214.68394 -52.369457"
         style="fill:#0a0e32;fill-opacity:1;stroke-width:0;stroke-miterlimit:4;stroke-dasharray:none" />
      <path
         id="path5373"
         d="M-214.67284 -70.229932L-214.67284 -61.33136L-214.67284 -61.331358L-214.67284 -70.22993L-214.67284 -70.229932"
         style="fill:#0a0e32;fill-opacity:1;stroke-width:0;stroke-miterlimit:4;stroke-dasharray:none" />
      <path
         id="path5375"
         d="M-138.50265 -70.411733L-138.50265 -61.513161L-114.40645 -43.67663L-114.40645 -52.575202L-138.50265 -70.411733"
         style="fill:#0a0e32;fill-opacity:1;stroke-width:0;stroke-miterlimit:4;stroke-dasharray:none" />
      <path
         id="path5377"
         d="M-114.40645 -52.575202L-114.40645 -43.67663L-123.41181 -43.65815L-123.41181 -52.556722L-114.40645 -52.575202"
         style="fill:#0a0e32;fill-opacity:1;stroke-width:0;stroke-miterlimit:4;stroke-dasharray:none" />
      <path
         id="path5379"
         d="M-123.41181 -52.556722L-123.41181 -43.65815L-138.50265 -61.513158L-138.50265 -70.41173L-123.41181 -52.556722"
         style="fill:#0a0e32;fill-opacity:1;stroke-width:0;stroke-miterlimit:4;stroke-dasharray:none" />
      <path
         id="path5381"
         d="M-138.50265 -70.41173L-138.50265 -61.513158L-138.50265 -61.513161L-138.50265 -70.411733L-138.50265 -70.41173"
         style="fill:#0a0e32;fill-opacity:1;stroke-width:0;stroke-miterlimit:4;stroke-dasharray:none" />
    </g>
    <path
       inkscape:connector-curvature="0"
       id="path4586"
       d="m -353.36398,-79.48003 c 0,0 -80.65704,56.168058 -80.65704,56.168058 0,0 15.87198,-0.02401 15.87198,-0.02401 0,0 37.07897,-28.081125 37.07897,-28.081125 0,0 6.88579,-0.01405 6.88579,-0.01405 5.07314,-0.01035 10.82224,-1.701733 16.9582,-4.922677 5.7963,-3.033674 11.33997,-6.959132 16.48627,-11.555034 4.56003,-4.072333 6.9157,-6.972613 7.34581,-8.896228 0.425,-1.838683 -1.0613,-2.72347 -4.44404,-2.714786 0,0 -15.52594,0.03985 -15.52594,0.03985 m 35.33343,-0.0907 c 0,0 -75.43736,56.197403 -75.43736,56.197403 0,0 16.17598,-0.02447 16.17598,-0.02447 0,0 16.64616,-14.102945 16.64616,-14.102945 0,0 16.18711,-0.02878 16.18711,-0.02878 0,0 -9.79329,14.096863 -9.79329,14.096863 0,0 16.58454,-0.02509 16.58454,-0.02509 0,0 29.83536,-56.139161 29.83536,-56.139161 0,0 -10.1985,0.02618 -10.1985,0.02618 m 24.61487,-0.06319 c 0,0 -39.10622,56.168382 -39.10622,56.168382 0,0 14.91725,-0.02257 14.91725,-0.02257 0,0 22.22874,-37.844553 22.22874,-37.844553 0,0 -2.99247,37.81545 -2.99247,37.81545 0,0 14.97072,-0.02265 14.97072,-0.02265 0,0 18.96248,-56.168453 18.96248,-56.168453 0,0 -8.82955,0.02267 -8.82955,0.02267 0,0 -10.59301,23.701443 -10.59301,23.701443 0,0 -0.8174,-23.672153 -0.8174,-23.672153 0,0 -8.74054,0.02244 -8.74054,0.02244 m 33.11733,-0.08501 c 0,0 -2.60529,9.09817 -2.60529,9.09817 0,0 10.63648,-0.02549 10.63648,-0.02549 0,0 -7.90282,47.071248 -7.90282,47.071248 0,0 15.90551,-0.02406 15.90551,-0.02406 0,0 2.4303,-47.072184 2.4303,-47.072184 0,0 10.64489,-0.02551 10.64489,-0.02551 0,0 -0.60993,-9.09533 -0.60993,-9.09533 0,0 -28.49914,0.07316 -28.49914,0.07316 m 38.21268,-0.09809 c 0,0 -8.82894,56.197759 -8.82894,56.197759 0,0 16.27512,-0.02462 16.27512,-0.02462 0,0 -0.09,-14.116261 -0.09,-14.116261 0,0 16.27608,-0.02893 16.27608,-0.02893 0,0 6.99581,14.110123 6.99581,14.110123 0,0 16.68626,-0.02524 16.68626,-0.02524 0,0 -37.07939,-56.139091 -37.07939,-56.139091 0,0 -10.23493,0.02627 -10.23493,0.02627 m 24.70372,-0.06341 c 0,0 27.78766,56.168399 27.78766,56.168399 0,0 15.00816,-0.02271 15.00816,-0.02271 0,0 -22.89176,-37.860035 -22.89176,-37.860035 0,0 42.24611,37.830753 42.24611,37.830753 0,0 15.0633,-0.02279 15.0633,-0.02279 0,0 -48.12826,-56.168282 -48.12826,-56.168282 0,0 -8.86183,0.02275 -8.86183,0.02275 0,0 17.67903,23.684174 17.67903,23.684174 0,0 -29.13067,-23.654778 -29.13067,-23.654778 0,0 -8.77174,0.02252 -8.77174,0.02252 m 43.32795,-0.111222 c 0,0 38.64947,56.197636 38.64947,56.197636 0,0 16.345731,-0.02473 16.345731,-0.02473 0,0 -12.038531,-14.125625 -12.038531,-14.125625 0,0 16.339419,-0.02905 16.339419,-0.02905 0,0 18.981012,14.119448 18.981012,14.119448 0,0 16.758742,-0.02535 16.758742,-0.02535 0,0 -84.774393,-56.138668 -84.774393,-56.138668 0,0 -10.26145,0.02634 -10.26145,0.02634 m -199.63484,7.837838 c 0,0 2.90147,-0.007 2.90147,-0.007 1.90447,-0.0046 2.65984,0.424952 2.2611,1.301322 -0.40673,0.893932 -1.42767,2.009046 -3.09365,3.361358 -1.76648,1.43388 -3.69378,2.649887 -5.77218,3.629569 -2.09382,0.977997 -4.24735,1.476836 -6.4289,1.481735 0,0 -2.77255,0.0062 -2.77255,0.0062 0,0 12.90471,-9.773163 12.90471,-9.773163 m 31.63383,2.180144 c 0,0 -12.28354,17.84968 -12.28354,17.84968 0,0 -8.93083,0.01832 -8.93083,0.01832 0,0 21.21437,-17.868004 21.21437,-17.868004 m 107.38216,-0.256297 c 0,0 8.96299,17.842063 8.96299,17.842063 0,0 -8.97409,0.01841 -8.97409,0.01841 0,0 0.0111,-17.860475 0.0111,-17.860475 m 76.17019,-0.181801 c 0,0 24.0962,17.836531 24.0962,17.836531 0,0 -9.00536,0.01848 -9.00536,0.01848 0,0 -15.09084,-17.855008 -15.09084,-17.855008"
       style="font-style:normal;font-variant:normal;font-weight:900;font-stretch:normal;font-size:medium;line-height:14.94454098px;font-family:Arial;-inkscape-font-specification:'Arial Heavy';letter-spacing:0px;word-spacing:0px;fill:url(#radialGradient5490);fill-opacity:1;stroke:none;stroke-width:0.59778166" />
    <path
       style="fill:#000000;stroke:none;stroke-width:0.26458332px;stroke-linecap:butt;stroke-linejoin:miter;stroke-opacity:1"
       d="m -127.2656,-32.084932 11.9061,11.830498 -0.0443,5.520556 -4.76655,-6.890313 0.003,-2.001057 z"
       id="path5528"
       inkscape:connector-curvature="0"
       sodipodi:nodetypes="cccccc" />
    <path
       style="font-style:normal;font-variant:normal;font-weight:900;font-stretch:normal;font-size:medium;line-height:14.94454098px;font-family:Arial;-inkscape-font-specification:'Arial Heavy';letter-spacing:0px;word-spacing:0px;fill:url(#radialGradient5490);fill-opacity:1;stroke:none;stroke-width:0.59778166"
       d="m -353.36398,-79.48003 c 0,0 -80.65704,56.168058 -80.65704,56.168058 0,0 15.87198,-0.02401 15.87198,-0.02401 0,0 37.07897,-28.081125 37.07897,-28.081125 0,0 6.88579,-0.01405 6.88579,-0.01405 5.07314,-0.01035 10.82224,-1.701733 16.9582,-4.922677 5.7963,-3.033674 11.33997,-6.959132 16.48627,-11.555034 4.56003,-4.072333 6.9157,-6.972613 7.34581,-8.896228 0.425,-1.838683 -1.0613,-2.72347 -4.44404,-2.714786 0,0 -15.52594,0.03985 -15.52594,0.03985 m 35.33343,-0.0907 c 0,0 -75.43736,56.197403 -75.43736,56.197403 0,0 16.17598,-0.02447 16.17598,-0.02447 0,0 16.64616,-14.102945 16.64616,-14.102945 0,0 16.18711,-0.02878 16.18711,-0.02878 0,0 -9.79329,14.096863 -9.79329,14.096863 0,0 16.58454,-0.02509 16.58454,-0.02509 0,0 29.83536,-56.139161 29.83536,-56.139161 0,0 -10.1985,0.02618 -10.1985,0.02618 m 24.61487,-0.06319 c 0,0 -39.10622,56.168382 -39.10622,56.168382 0,0 14.91725,-0.02257 14.91725,-0.02257 0,0 22.22874,-37.844553 22.22874,-37.844553 0,0 -2.99247,37.81545 -2.99247,37.81545 0,0 14.97072,-0.02265 14.97072,-0.02265 0,0 18.96248,-56.168453 18.96248,-56.168453 0,0 -8.82955,0.02267 -8.82955,0.02267 0,0 -10.59301,23.701443 -10.59301,23.701443 0,0 -0.8174,-23.672153 -0.8174,-23.672153 0,0 -8.74054,0.02244 -8.74054,0.02244 m 33.11733,-0.08501 c 0,0 -2.60529,9.09817 -2.60529,9.09817 0,0 10.63648,-0.02549 10.63648,-0.02549 0,0 -7.90282,47.071248 -7.90282,47.071248 0,0 15.90551,-0.02406 15.90551,-0.02406 0,0 2.4303,-47.072184 2.4303,-47.072184 0,0 10.64489,-0.02551 10.64489,-0.02551 0,0 -0.60993,-9.09533 -0.60993,-9.09533 0,0 -28.49914,0.07316 -28.49914,0.07316 m 38.21268,-0.09809 c 0,0 -8.82894,56.197759 -8.82894,56.197759 0,0 16.27512,-0.02462 16.27512,-0.02462 0,0 -0.09,-14.116261 -0.09,-14.116261 0,0 16.27608,-0.02893 16.27608,-0.02893 0,0 6.99581,14.110123 6.99581,14.110123 0,0 16.68626,-0.02524 16.68626,-0.02524 0,0 -37.07939,-56.139091 -37.07939,-56.139091 0,0 -10.23493,0.02627 -10.23493,0.02627 m 24.70372,-0.06341 c 0,0 27.78766,56.168399 27.78766,56.168399 0,0 15.00816,-0.02271 15.00816,-0.02271 0,0 -22.89176,-37.860035 -22.89176,-37.860035 0,0 42.24611,37.830753 42.24611,37.830753 0,0 15.0633,-0.02279 15.0633,-0.02279 0,0 -48.12826,-56.168282 -48.12826,-56.168282 0,0 -8.86183,0.02275 -8.86183,0.02275 0,0 17.67903,23.684174 17.67903,23.684174 0,0 -29.13067,-23.654778 -29.13067,-23.654778 0,0 -8.77174,0.02252 -8.77174,0.02252 m 43.32795,-0.111222 c 0,0 38.64947,56.197636 38.64947,56.197636 0,0 16.345731,-0.02473 16.345731,-0.02473 0,0 -12.038531,-14.125625 -12.038531,-14.125625 0,0 16.339419,-0.02905 16.339419,-0.02905 0,0 18.981012,14.119448 18.981012,14.119448 0,0 16.758742,-0.02535 16.758742,-0.02535 0,0 -84.774393,-56.138668 -84.774393,-56.138668 0,0 -10.26145,0.02634 -10.26145,0.02634 m -199.63484,7.837838 c 0,0 2.90147,-0.007 2.90147,-0.007 1.90447,-0.0046 2.65984,0.424952 2.2611,1.301322 -0.40673,0.893932 -1.42767,2.009046 -3.09365,3.361358 -1.76648,1.43388 -3.69378,2.649887 -5.77218,3.629569 -2.09382,0.977997 -4.24735,1.476836 -6.4289,1.481735 0,0 -2.77255,0.0062 -2.77255,0.0062 0,0 12.90471,-9.773163 12.90471,-9.773163 m 31.63383,2.180144 c 0,0 -12.28354,17.84968 -12.28354,17.84968 0,0 -8.93083,0.01832 -8.93083,0.01832 0,0 21.21437,-17.868004 21.21437,-17.868004 m 107.38216,-0.256297 c 0,0 8.96299,17.842063 8.96299,17.842063 0,0 -8.97409,0.01841 -8.97409,0.01841 0,0 0.0111,-17.860475 0.0111,-17.860475 m 76.17019,-0.181801 c 0,0 24.0962,17.836531 24.0962,17.836531 0,0 -9.00536,0.01848 -9.00536,0.01848 0,0 -15.09084,-17.855008 -15.09084,-17.855008"
       id="path5909"
       inkscape:connector-curvature="0" />
    <path
       style="font-style:normal;font-variant:normal;font-weight:900;font-stretch:normal;font-size:medium;line-height:14.94454098px;font-family:Arial;-inkscape-font-specification:'Arial Heavy';letter-spacing:0px;word-spacing:0px;fill:url(#linearGradient5995);fill-opacity:1;stroke:none;stroke-width:2.25933218;opacity:0.6"
       d="M -543.46875 -302.42969 L -582.25195 -302.33008 L -476.37891 -148.38867 C -426.94485 -150.5597 -376.91387 -153.95602 -326.27344 -158.60156 L -543.46875 -302.42969 z M -636.08203 -302.19336 L -669.57617 -302.10547 L -602.75781 -212.5918 L -712.85742 -301.99609 L -746.00977 -301.91016 L -668.9707 -146.18555 C -652.05974 -145.81457 -635.07427 -145.59538 -618.01562 -145.52734 L -670.7832 -232.79883 L -573.49609 -145.68164 C -550.2576 -145.94608 -526.88191 -146.48751 -503.37109 -147.31055 L -636.08203 -302.19336 z M -800.69531 -301.76953 L -839.37891 -301.66992 L -862.06836 -157.24414 C -808.32064 -152.20794 -753.78713 -148.7828 -698.46094 -146.98438 L -800.69531 -301.76953 z M -876.0918 -301.57617 L -983.80469 -301.30078 L -993.65234 -266.91406 L -953.45117 -267.00977 L -969.79883 -169.63477 C -953.07132 -167.35075 -936.26515 -165.2261 -919.38086 -163.26367 L -914.01953 -267.10352 L -873.78711 -267.20117 L -876.0918 -301.57617 z M -999.43945 -301.25977 L -1032.8125 -301.17383 L -1072.8477 -211.59375 L -1075.9375 -301.0625 L -1108.9727 -300.97852 L -1174.7734 -206.4668 C -1161.9508 -203.59021 -1149.0786 -200.81477 -1136.1582 -198.13867 L -1116.3809 -231.80859 L -1119.3164 -194.71484 C -1093.1717 -189.49331 -1066.8283 -184.68139 -1040.2832 -180.28125 L -999.43945 -301.25977 z M -1163.459 -300.83789 L -1202.0059 -300.74023 L -1289.8242 -235.31836 C -1280.2678 -232.66503 -1270.6849 -230.06734 -1261.0723 -227.5293 L -1217.2148 -264.4668 L -1245.4355 -223.45898 C -1233.4494 -220.38201 -1221.4191 -217.39607 -1209.3457 -214.49805 L -1163.459 -300.83789 z M -1276.8691 -300.54688 L -1335.5488 -300.39648 L -1386.9902 -264.57422 C -1377.7515 -261.56984 -1368.4824 -258.6257 -1359.1895 -255.73242 L -1336.7773 -272.70703 L -1325.8105 -272.73438 C -1318.6126 -272.75176 -1315.7566 -271.12672 -1317.2637 -267.81445 C -1318.8009 -264.43581 -1322.6604 -260.22243 -1328.957 -255.11133 C -1331.6223 -252.94788 -1334.3894 -250.92195 -1337.2461 -249.02539 C -1327.3874 -246.06236 -1317.4994 -243.15881 -1307.5801 -240.32031 C -1300.849 -245.47373 -1294.2591 -250.92785 -1287.8359 -256.66406 C -1270.6012 -272.05556 -1261.6979 -283.01675 -1260.0723 -290.28711 C -1258.466 -297.23646 -1264.084 -300.5797 -1276.8691 -300.54688 z M -523.47461 -266.12305 L -432.40234 -198.70898 L -466.4375 -198.63867 L -523.47461 -266.12305 z M -811.36133 -265.43555 L -777.48633 -198.00195 L -811.4043 -197.93164 L -811.36133 -265.43555 z "
       id="path5971"
       transform="scale(0.26458333)" />
  </g>
</svg>
