<?xml version="1.0" encoding="UTF-8" standalone="no"?>
<!-- Created with Inkscape (http://www.inkscape.org/) -->

<svg
   xmlns:dc="http://purl.org/dc/elements/1.1/"
   xmlns:cc="http://creativecommons.org/ns#"
   xmlns:rdf="http://www.w3.org/1999/02/22-rdf-syntax-ns#"
   xmlns:svg="http://www.w3.org/2000/svg"
   xmlns="http://www.w3.org/2000/svg"
   xmlns:sodipodi="http://sodipodi.sourceforge.net/DTD/sodipodi-0.dtd"
   xmlns:inkscape="http://www.inkscape.org/namespaces/inkscape"
   width="210mm"
   height="297mm"
   viewBox="0 0 210 297"
   version="1.1"
   id="svg8"
   inkscape:version="0.92.1 unknown"
   sodipodi:docname="Akang Coffee.svg"
   inkscape:export-filename="/media/pantana/Pantana/Hiburan/Gambar/Inkscape/Akang1.png"
   inkscape:export-xdpi="96"
   inkscape:export-ydpi="96">
  <defs
     id="defs2" />
  <sodipodi:namedview
     id="base"
     pagecolor="#ffffff"
     bordercolor="#666666"
     borderopacity="1.0"
     inkscape:pageopacity="0.0"
     inkscape:pageshadow="2"
     inkscape:zoom="0.90509668"
     inkscape:cx="468.16719"
     inkscape:cy="703.41071"
     inkscape:document-units="mm"
     inkscape:current-layer="layer1"
     showgrid="false"
     showguides="true"
     inkscape:guide-bbox="true"
     inkscape:object-nodes="false"
     inkscape:snap-nodes="true"
     inkscape:window-width="1321"
     inkscape:window-height="744"
     inkscape:window-x="45"
     inkscape:window-y="24"
     inkscape:window-maximized="1"
     inkscape:object-paths="false" />
  <metadata
     id="metadata5">
    <rdf:RDF>
      <cc:Work
         rdf:about="">
        <dc:format>image/svg+xml</dc:format>
        <dc:type
           rdf:resource="http://purl.org/dc/dcmitype/StillImage" />
        <dc:title />
      </cc:Work>
    </rdf:RDF>
  </metadata>
  <g
     inkscape:label="Layer 1"
     inkscape:groupmode="layer"
     id="layer1">
    <rect
       style="opacity:1;fill:#fafafa;fill-opacity:1;stroke:none;stroke-width:0.02317247;stroke-linecap:round;stroke-linejoin:round;stroke-miterlimit:4;stroke-dasharray:none;stroke-opacity:1"
       id="rect4957"
       width="206.43228"
       height="206.43228"
       x="0.12421981"
       y="-2.4239235"
       inkscape:export-xdpi="96"
       inkscape:export-ydpi="96" />
    <g
       id="g4526"
       inkscape:export-xdpi="96"
       inkscape:export-ydpi="96">
      <path
         sodipodi:nodetypes="sssccssssccss"
         inkscape:connector-curvature="0"
         id="path4485"
         d="M 135.88968,128.40342 H 72.23894 c -1.546323,0 -3.283089,-1.57678 -3.288044,-3.45408 l -0.06213,-23.53693 c -0.02804,-1.06594 0.820448,-2.796614 1.389932,-3.78302 L 92.516177,58.92836 c 0.802516,-1.39666 1.685176,-2.017415 3.442018,-2.011506 l 16.265125,0.05471 c 2.04881,0.0069 2.6673,0.534554 3.37208,1.755269 l 21.8613,37.864878 c 0.9567,1.403316 0.96725,2.189531 0.95991,3.869839 l -0.0789,25.25735 c -0.004,1.26625 -1.00774,2.68452 -2.44802,2.68452 z"
         inkscape:transform-center-y="-30.091274"
         inkscape:transform-center-x="-1.647619e-06"
         style="opacity:1;fill:#271f42;fill-opacity:1;stroke:none;stroke-width:0.013125;stroke-linecap:round;stroke-linejoin:round;stroke-miterlimit:4;stroke-dasharray:none;stroke-opacity:1" />
      <path
         sodipodi:nodetypes="sssssss"
         inkscape:connector-curvature="0"
         id="path4768"
         d="M 111.00457,92.253987 H 96.567074 c -0.966206,0 -1.727167,-1.726745 -1.249122,-2.554748 l 7.067178,-12.240702 c 0.6937,-1.201528 2.32747,-1.317812 3.07517,-0.02274 l 7.06718,12.240702 c 0.53044,0.918758 -0.23461,2.577503 -1.52291,2.577503 z"
         inkscape:transform-center-y="-5.8695518"
         style="opacity:1;fill:#fafafa;fill-opacity:1;stroke:none;stroke-width:0.01007809;stroke-linecap:round;stroke-linejoin:round;stroke-miterlimit:4;stroke-dasharray:none;stroke-opacity:1" />
      <path
         inkscape:connector-curvature="0"
         d="m 99.18425,106.48369 c -4.922615,-0.006 -8.633318,0.031 -9.024679,0.0969 -0.521827,0.0878 -1.021359,0.3345 -1.110183,0.54831 -0.288733,0.69497 0.399667,7.36717 1.043192,10.1105 1.029725,4.3897 2.905816,8.66593 4.634642,10.56357 l 0.797262,0.87476 h 8.070076 8.06962 l 0.7986,-0.87639 c 0.43913,-0.48203 1.25905,-1.72099 1.82193,-2.75335 0.97259,-1.7838 1.10234,-1.90062 2.61303,-2.35319 6.88078,-2.06133 10.42172,-6.51508 8.28383,-10.41906 -1.00357,-1.8326 -2.77108,-2.8572 -5.17188,-2.99839 l -1.92508,-0.11316 0.13707,-0.87232 c 0.27851,-1.77326 0.86124,-1.69778 -13.78886,-1.78863 -1.83213,-0.0113 -3.6077,-0.0178 -5.24857,-0.0195 z m 21.55351,5.28117 c 0.78605,0.0188 1.14532,0.18161 1.74967,0.65129 1.01022,0.78512 1.41612,1.93204 1.12208,3.16853 -0.28936,1.21683 -2.20035,3.08711 -3.90216,3.81903 -1.43258,0.61614 -3.17585,0.87896 -3.17585,0.4787 0,-0.15468 0.7332,-3.72607 1.44601,-7.04413 0.20623,-0.95997 0.23102,-0.97351 1.89952,-1.05469 0.18129,-0.009 0.34533,-0.0152 0.49581,-0.0183 0.13168,-0.002 0.25263,-0.003 0.36492,-3.4e-4 z"
         style="fill:#fafafa;stroke-width:0.28914759"
         id="path4504" />
      <rect
         ry="1.225866"
         y="129.37131"
         x="85.599571"
         height="2.4517319"
         width="36.431934"
         id="rect4625"
         style="opacity:1;fill:#271f42;fill-opacity:1;stroke:none;stroke-width:0.00659462;stroke-linecap:round;stroke-linejoin:round;stroke-miterlimit:4;stroke-dasharray:none;stroke-opacity:1" />
      <rect
         style="opacity:1;fill:#271f42;fill-opacity:1;stroke:none;stroke-width:0.00546224;stroke-linecap:round;stroke-linejoin:round;stroke-miterlimit:4;stroke-dasharray:none;stroke-opacity:1"
         id="rect4627"
         width="24.994431"
         height="2.4517319"
         x="91.318321"
         y="132.61053"
         ry="1.225866" />
      <path
         sodipodi:nodetypes="ccc"
         inkscape:connector-curvature="0"
         id="path4749"
         d="m 104.939,86.704259 c -3.41362,10.134589 -12.268049,5.660617 -4.06891,15.672621 -4.101662,-6.37075 6.62048,-4.126493 4.06891,-15.672621 z"
         style="fill:#271f42;fill-opacity:1;fill-rule:evenodd;stroke:none;stroke-width:0.07016423px;stroke-linecap:butt;stroke-linejoin:miter;stroke-opacity:1" />
      <path
         style="fill:#fafafa;fill-opacity:1;fill-rule:evenodd;stroke:none;stroke-width:0.11658492px;stroke-linecap:butt;stroke-linejoin:miter;stroke-opacity:1"
         d="m 103.51535,83.209635 c 6.00459,10.01967 -8.752824,11.307318 2.3776,24.948965 -6.819101,-12.410052 6.95411,-13.9713 -2.3776,-24.948965 z"
         id="path4751"
         inkscape:connector-curvature="0"
         sodipodi:nodetypes="ccc" />
      <g
         style="fill:#271f42;fill-opacity:1"
         transform="matrix(0.49606308,0,0,0.49606308,159.61396,32.968363)"
         id="g4806">
        <text
           xml:space="preserve"
           style="font-style:normal;font-weight:normal;font-size:22.47844124px;line-height:125%;font-family:sans-serif;letter-spacing:0px;word-spacing:0px;fill:#271f42;fill-opacity:1;stroke:none;stroke-width:0.561961px;stroke-linecap:butt;stroke-linejoin:miter;stroke-opacity:1"
           x="-175.97516"
           y="232.1286"
           id="text4781"
           transform="scale(1.0476679,0.95450095)"><tspan
             sodipodi:role="line"
             id="tspan4779"
             x="-175.97516"
             y="232.1286"
             style="font-style:normal;font-variant:normal;font-weight:bold;font-stretch:normal;font-size:22.47821808px;font-family:'Ubuntu Mono';-inkscape-font-specification:'Ubuntu Mono, Bold';font-variant-ligatures:normal;font-variant-caps:normal;font-variant-numeric:normal;font-feature-settings:normal;text-align:start;writing-mode:lr-tb;text-anchor:start;fill:#271f42;fill-opacity:1;stroke-width:0.561961px">Akang Coffee</tspan></text>
        <ellipse
           style="opacity:1;fill:#271f42;fill-opacity:1;stroke:none;stroke-width:0.02645833;stroke-linecap:round;stroke-linejoin:round;stroke-miterlimit:4;stroke-dasharray:none;stroke-opacity:1"
           id="path4801"
           cx="-96.016579"
           cy="216.55186"
           rx="3.1404169"
           ry="4.0090427" />
      </g>
      <path
         id="path4787"
         style="fill:#fafafa;stroke-width:0.02674008"
         d="m 111.46184,139.55257 c -0.47917,-3.4e-4 -0.84038,0.003 -0.87847,0.009 -0.0508,0.008 -0.0994,0.0294 -0.10807,0.0482 -0.0281,0.0611 0.0389,0.64728 0.10155,0.8883 0.10023,0.38568 0.28285,0.76139 0.45114,0.92811 l 0.0776,0.0769 h 0.78555 0.78551 l 0.0777,-0.077 c 0.0428,-0.0424 0.12256,-0.15121 0.17735,-0.24191 0.0947,-0.15672 0.1073,-0.16699 0.25436,-0.20675 0.66978,-0.1811 1.01446,-0.57241 0.80636,-0.91541 -0.0977,-0.16101 -0.26974,-0.25103 -0.50344,-0.26343 l -0.18739,-0.01 0.0133,-0.0766 c 0.0271,-0.1558 0.0838,-0.14917 -1.34223,-0.15715 -0.17834,-0.001 -0.35117,-0.001 -0.5109,-0.001 z m 2.09806,0.464 c 0.0765,0.001 0.11149,0.016 0.17032,0.0572 0.0983,0.069 0.13784,0.16975 0.10922,0.27839 -0.0282,0.10691 -0.21419,0.27123 -0.37984,0.33553 -0.13945,0.0541 -0.30914,0.0772 -0.30914,0.0421 0,-0.0136 0.0714,-0.32737 0.14075,-0.61889 0.0201,-0.0844 0.0225,-0.0855 0.1849,-0.0927 0.0177,-0.001 0.0336,-0.001 0.0483,-0.001 0.0128,-2.4e-4 0.0246,-2.4e-4 0.0355,-4e-5 z"
         inkscape:connector-curvature="0" />
      <path
         inkscape:transform-center-y="9.2463541"
         inkscape:transform-center-x="-3.3439593"
         style="fill:#271f42;fill-opacity:1;fill-rule:evenodd;stroke:none;stroke-width:0.08127979px;stroke-linecap:butt;stroke-linejoin:miter;stroke-opacity:1"
         d="m 103.5199,83.209064 c 7.91834,9.707492 -0.62223,10.937673 0.51393,19.636916 4.4016,-7.438225 7.90568,-12.415508 -0.51393,-19.636916 z"
         id="path5062"
         inkscape:connector-curvature="0"
         sodipodi:nodetypes="ccc" />
    </g>
  </g>
</svg>
