<?xml version="1.0" encoding="UTF-8" standalone="no"?>
<!-- Created with Inkscape (http://www.inkscape.org/) -->

<svg
   xmlns:dc="http://purl.org/dc/elements/1.1/"
   xmlns:cc="http://creativecommons.org/ns#"
   xmlns:rdf="http://www.w3.org/1999/02/22-rdf-syntax-ns#"
   xmlns:svg="http://www.w3.org/2000/svg"
   xmlns="http://www.w3.org/2000/svg"
   xmlns:sodipodi="http://sodipodi.sourceforge.net/DTD/sodipodi-0.dtd"
   xmlns:inkscape="http://www.inkscape.org/namespaces/inkscape"
   width="210mm"
   height="297mm"
   viewBox="0 0 744.09448819 1052.3622047"
   id="svg2"
   version="1.1"
   inkscape:version="0.91 r13725"
   sodipodi:docname="andi.svg">
  <defs
     id="defs4" />
  <sodipodi:namedview
     id="base"
     pagecolor="#ffffff"
     bordercolor="#666666"
     borderopacity="1.0"
     inkscape:pageopacity="0.0"
     inkscape:pageshadow="2"
     inkscape:zoom="0.24748737"
     inkscape:cx="204.83083"
     inkscape:cy="847.42038"
     inkscape:document-units="px"
     inkscape:current-layer="layer1"
     showgrid="false"
     inkscape:object-paths="true"
     showguides="false"
     inkscape:guide-bbox="true"
     inkscape:window-width="1366"
     inkscape:window-height="716"
     inkscape:window-x="0"
     inkscape:window-y="24"
     inkscape:window-maximized="1">
    <sodipodi:guide
       position="-2235.4181,2566.1774"
       orientation="0,1"
       id="guide4222" />
    <sodipodi:guide
       position="-2048.1331,2326.463"
       orientation="0,1"
       id="guide4226" />
  </sodipodi:namedview>
  <metadata
     id="metadata7">
    <rdf:RDF>
      <cc:Work
         rdf:about="">
        <dc:format>image/svg+xml</dc:format>
        <dc:type
           rdf:resource="http://purl.org/dc/dcmitype/StillImage" />
        <dc:title></dc:title>
      </cc:Work>
    </rdf:RDF>
  </metadata>
  <g
     inkscape:label="Layer 1"
     inkscape:groupmode="layer"
     id="layer1">
    <path
       style="font-style:normal;font-variant:normal;font-weight:normal;font-stretch:normal;font-size:medium;line-height:125%;font-family:'Virgo 01';-inkscape-font-specification:'Virgo 01, ';letter-spacing:0px;word-spacing:0px;fill:#2962ff;fill-opacity:1;stroke:none;stroke-width:1px;stroke-linecap:butt;stroke-linejoin:miter;stroke-opacity:1"
       d="m 370.29778,63.954653 c 6.12371,11.50755 27.31021,53.485857 63.6929,126.201687 l 228.56601,0 c 42.21371,-0.78172 63.32083,-22.41 63.32083,-64.88429 -0.26058,-39.868507 -19.80425,-60.063347 -58.63044,-60.584507 l -296.9493,-0.73289 z"
       id="path4169"
       inkscape:connector-curvature="0" />
    <path
       style="font-style:normal;font-variant:normal;font-weight:normal;font-stretch:normal;font-size:medium;line-height:125%;font-family:'Virgo 01';-inkscape-font-specification:'Virgo 01, ';letter-spacing:0px;word-spacing:0px;fill:#2962ff;fill-opacity:1;stroke:none;stroke-width:1px;stroke-linecap:butt;stroke-linejoin:miter;stroke-opacity:1"
       d="m 464.85191,251.91371 c 4.49359,9.00005 8.7948,17.61065 13.60347,27.24806 18.84893,37.5414 34.95742,70.10335 48.52289,98.0429 l 136.75128,-0.21381 c 40.91082,0 61.62681,-20.84603 62.14797,-62.53858 -0.26058,-41.17139 -20.97658,-62.01741 -62.14797,-62.53857 l -198.87764,0 z"
       id="path4160"
       inkscape:connector-curvature="0" />
    <path
       style="font-style:normal;font-variant:normal;font-weight:normal;font-stretch:normal;font-size:medium;line-height:125%;font-family:'Virgo 01';-inkscape-font-specification:'Virgo 01, ';letter-spacing:0px;word-spacing:0px;fill:#546e7a;fill-opacity:1;stroke:none;stroke-width:1px;stroke-linecap:butt;stroke-linejoin:miter;stroke-opacity:1"
       d="m 311.43281,59.301123 c -11.44034,0 -22.60224,3.07041 -33.48448,9.20912 -10.60325,5.85969 -18.83407,14.09047 -24.69369,24.6937 -5.8597,10.603227 -42.134,83.011447 -108.82267,217.225957 C 77.743236,444.36539 44.397973,517.19365 44.397973,528.91301 c 0,11.71936 2.930033,23.02055 8.789727,33.90282 6.138683,10.60322 14.509896,18.83403 25.113081,24.69369 10.603247,5.58065 21.62476,8.37137 33.065099,8.37137 l 342.85307,0 -64.43819,-134.77352 -170.42899,0 92.08104,-188.76392 91.67597,187.93543 66.37371,135.22888 -15.26354,0.37313 58.53584,0 c 11.16129,0 22.04247,-2.79072 32.64566,-8.37137 10.88223,-5.85966 19.2545,-14.09047 25.11413,-24.69369 6.13875,-10.88227 9.20601,-22.18346 9.20601,-33.90282 0,-11.71936 -33.62183,-84.54762 -100.86867,-218.48311 C 411.8842,176.21539 375.46957,103.80717 369.60987,93.203943 c -5.85969,-10.60323 -14.09039,-18.83401 -24.69363,-24.6937 -10.60325,-6.13871 -21.7641,-9.20912 -33.48343,-9.20912 z"
       id="path4172"
       inkscape:connector-curvature="0" />
    <path
       style="fill:none;fill-rule:evenodd;stroke:#ff0000;stroke-width:0.52629441px;stroke-linecap:butt;stroke-linejoin:miter;stroke-opacity:1"
       d="M 311.43318,272.34337 489.72846,636.90618"
       id="path4182"
       inkscape:connector-curvature="0" />
  </g>
</svg>
