<?xml version="1.0" encoding="UTF-8" standalone="no"?>
<!-- Created with Inkscape (http://www.inkscape.org/) -->

<svg
   xmlns:dc="http://purl.org/dc/elements/1.1/"
   xmlns:cc="http://creativecommons.org/ns#"
   xmlns:rdf="http://www.w3.org/1999/02/22-rdf-syntax-ns#"
   xmlns:svg="http://www.w3.org/2000/svg"
   xmlns="http://www.w3.org/2000/svg"
   xmlns:xlink="http://www.w3.org/1999/xlink"
   xmlns:sodipodi="http://sodipodi.sourceforge.net/DTD/sodipodi-0.dtd"
   xmlns:inkscape="http://www.inkscape.org/namespaces/inkscape"
   width="210mm"
   height="297mm"
   viewBox="0 0 744.09448819 1052.3622047"
   id="svg2"
   version="1.1"
   inkscape:version="0.91 r13725"
   sodipodi:docname="macan-bahagia.svg">
  <defs
     id="defs4">
    <linearGradient
       inkscape:collect="always"
       id="linearGradient7057">
      <stop
         style="stop-color:#e0e0e0;stop-opacity:1"
         offset="0"
         id="stop7059" />
      <stop
         style="stop-color:#757575;stop-opacity:1"
         offset="1"
         id="stop7061" />
    </linearGradient>
    <linearGradient
       inkscape:collect="always"
       id="linearGradient6863">
      <stop
         style="stop-color:#616161;stop-opacity:1;"
         offset="0"
         id="stop6865" />
      <stop
         style="stop-color:#616161;stop-opacity:0;"
         offset="1"
         id="stop6867" />
    </linearGradient>
    <linearGradient
       inkscape:collect="always"
       id="linearGradient6843">
      <stop
         style="stop-color:#2e7d32;stop-opacity:1"
         offset="0"
         id="stop6845" />
      <stop
         style="stop-color:#1b5e20;stop-opacity:1"
         offset="1"
         id="stop6847" />
    </linearGradient>
    <linearGradient
       inkscape:collect="always"
       id="linearGradient6520">
      <stop
         style="stop-color:#2196f3;stop-opacity:1;"
         offset="0"
         id="stop6522" />
      <stop
         style="stop-color:#e0f7fa;stop-opacity:1"
         offset="1"
         id="stop6524" />
    </linearGradient>
    <linearGradient
       inkscape:collect="always"
       id="linearGradient6504">
      <stop
         style="stop-color:#00c853;stop-opacity:1;"
         offset="0"
         id="stop6506" />
      <stop
         style="stop-color:#b9f6ca;stop-opacity:1"
         offset="1"
         id="stop6508" />
    </linearGradient>
    <clipPath
       clipPathUnits="userSpaceOnUse"
       id="clipPath5143">
      <path
         style="opacity:0.97000002;fill:#ffffff;fill-opacity:1;stroke:none;stroke-width:0.19733943;stroke-miterlimit:4;stroke-dasharray:none"
         d="m -862.18586,1251.8527 c 3e-5,0.9672 -1.38563,2.6216 -3.92133,2.6216 -2.53568,0 -4.59126,-0.7842 -4.59123,-1.7514 -3e-5,-0.9672 2.67393,-2.4876 5.20962,-2.4876 2.53568,0 3.30297,0.6503 3.30294,1.6174 z"
         id="path5145"
         inkscape:connector-curvature="0"
         sodipodi:nodetypes="cscsc" />
    </clipPath>
    <linearGradient
       inkscape:collect="always"
       xlink:href="#linearGradient6504"
       id="linearGradient6510"
       x1="-666.22137"
       y1="131.26436"
       x2="-688.01379"
       y2="521.26434"
       gradientUnits="userSpaceOnUse" />
    <clipPath
       clipPathUnits="userSpaceOnUse"
       id="clipPath6514">
      <rect
         y="-392.15591"
         x="-1064.7008"
         height="789.93927"
         width="789.93927"
         id="rect6516"
         style="opacity:0.97000002;fill:#e3dedb;fill-opacity:1;stroke:none;stroke-width:0.1;stroke-miterlimit:4;stroke-dasharray:none" />
    </clipPath>
    <linearGradient
       inkscape:collect="always"
       xlink:href="#linearGradient6520"
       id="linearGradient6526"
       x1="-926.12939"
       y1="-515.75775"
       x2="-804.76154"
       y2="-40.043419"
       gradientUnits="userSpaceOnUse"
       gradientTransform="translate(1042.4774,420.22346)" />
    <clipPath
       clipPathUnits="userSpaceOnUse"
       id="clipPath6534">
      <rect
         y="-392.15591"
         x="-1064.7008"
         height="789.93927"
         width="789.93927"
         id="rect6536"
         style="opacity:0.97000002;fill:url(#linearGradient6538);fill-opacity:1;stroke:none;stroke-width:0.1;stroke-miterlimit:4;stroke-dasharray:none" />
    </clipPath>
    <linearGradient
       inkscape:collect="always"
       xlink:href="#linearGradient6520"
       id="linearGradient6538"
       gradientUnits="userSpaceOnUse"
       x1="-926.12939"
       y1="-515.75775"
       x2="-804.76154"
       y2="-40.043419" />
    <filter
       inkscape:collect="always"
       style="color-interpolation-filters:sRGB"
       id="filter6722"
       x="-0.54"
       width="2.08"
       y="-0.54"
       height="2.08">
      <feGaussianBlur
         inkscape:collect="always"
         stdDeviation="17.27361"
         id="feGaussianBlur6724" />
    </filter>
    <filter
       inkscape:collect="always"
       style="color-interpolation-filters:sRGB"
       id="filter6788"
       x="-0.61200005"
       width="2.2240001"
       y="-0.61200005"
       height="2.2240001">
      <feGaussianBlur
         inkscape:collect="always"
         stdDeviation="19.576759"
         id="feGaussianBlur6790" />
    </filter>
    <clipPath
       clipPathUnits="userSpaceOnUse"
       id="clipPath6813">
      <rect
         y="-392.15591"
         x="-1064.7008"
         height="789.93927"
         width="789.93927"
         id="rect6815"
         style="opacity:0.97000002;fill:url(#linearGradient6817);fill-opacity:1;stroke:none;stroke-width:0.1;stroke-miterlimit:4;stroke-dasharray:none" />
    </clipPath>
    <linearGradient
       inkscape:collect="always"
       xlink:href="#linearGradient6520"
       id="linearGradient6817"
       gradientUnits="userSpaceOnUse"
       x1="-926.12939"
       y1="-515.75775"
       x2="-804.76154"
       y2="-40.043419" />
    <linearGradient
       inkscape:collect="always"
       xlink:href="#linearGradient6843"
       id="linearGradient6849"
       x1="-638.67334"
       y1="-194.70959"
       x2="-654.92474"
       y2="155.35286"
       gradientUnits="userSpaceOnUse" />
    <clipPath
       clipPathUnits="userSpaceOnUse"
       id="clipPath6853">
      <rect
         y="-509.79462"
         x="275.23511"
         height="934.72974"
         width="978.29767"
         id="rect6855"
         style="opacity:0.97000002;fill:url(#linearGradient6857);fill-opacity:1;stroke:none;stroke-width:0.1;stroke-miterlimit:4;stroke-dasharray:none"
         transform="scale(-1,1)" />
    </clipPath>
    <linearGradient
       inkscape:collect="always"
       xlink:href="#linearGradient6520"
       id="linearGradient6857"
       gradientUnits="userSpaceOnUse"
       x1="-926.12939"
       y1="-515.75775"
       x2="-804.76154"
       y2="-40.043419"
       gradientTransform="matrix(1.2384467,0,0,1.1832932,1593.8103,-45.759198)" />
    <linearGradient
       inkscape:collect="always"
       xlink:href="#linearGradient6863"
       id="linearGradient6869"
       x1="-291.2695"
       y1="181.81772"
       x2="-415.18781"
       y2="198.99031"
       gradientUnits="userSpaceOnUse"
       gradientTransform="matrix(1.0709654,0,0,1.0709654,20.113148,-15.186395)" />
    <filter
       inkscape:collect="always"
       style="color-interpolation-filters:sRGB"
       id="filter6899"
       x="-0.10094649"
       width="1.201893"
       y="-0.091515633"
       height="1.1830313">
      <feGaussianBlur
         inkscape:collect="always"
         stdDeviation="6.3475872"
         id="feGaussianBlur6901" />
    </filter>
    <clipPath
       clipPathUnits="userSpaceOnUse"
       id="clipPath6911">
      <path
         style="fill:#bdbdbd;fill-rule:evenodd;stroke:#000000;stroke-width:1px;stroke-linecap:butt;stroke-linejoin:miter;stroke-opacity:1"
         d="m -481.42857,216.64792 c -7.07491,-10.87074 30.9067,-52.75277 42.14285,-55 14.37787,-41.47643 22.16242,-26.81168 36.42858,-30 22.33143,-48.590421 54.3355,-82.597403 55,-27.14286 -2.74051,29.43229 22.30417,30.17969 4.28571,45.71428 -7.5738,6.52975 -6.42857,27.85715 -2.14286,36.42858 4.28572,8.57143 7.14286,34.28571 7.14286,34.28571 0,0 22.85714,11.42857 24.28572,17.14286 1.42857,5.71429 -3.95162,13.38051 -15.71429,18.57143 -13.72224,6.05568 -50.23672,5.68348 -62.85714,2.85714 -30.08422,-6.73735 -93.296,-39.42109 -88.57143,-42.85714 z"
         id="path6913"
         inkscape:connector-curvature="0"
         sodipodi:nodetypes="ccccsscsssc" />
    </clipPath>
    <linearGradient
       x1="16.666666"
       y1="56.666668"
       x2="6.6666665"
       y2="80"
       id="linearGradient3011"
       xlink:href="#linearGradient3821"
       gradientUnits="userSpaceOnUse"
       gradientTransform="matrix(3.4061019,0,0,3.4061019,-249.77526,-81.763755)" />
    <linearGradient
       id="linearGradient3821">
      <stop
         id="stop3823"
         style="stop-color:#b0bec5;stop-opacity:1"
         offset="0" />
      <stop
         id="stop3825"
         style="stop-color:#90a4ae;stop-opacity:1"
         offset="1" />
    </linearGradient>
    <radialGradient
       inkscape:collect="always"
       xlink:href="#linearGradient7057"
       id="radialGradient7063"
       cx="-215.71425"
       cy="156.66341"
       fx="-215.71425"
       fy="156.66341"
       r="30.67317"
       gradientTransform="matrix(2.2598546,-0.0685991,0.07512241,2.4747518,259.99966,-245.83743)"
       gradientUnits="userSpaceOnUse" />
  </defs>
  <sodipodi:namedview
     id="base"
     pagecolor="#ffffff"
     bordercolor="#666666"
     borderopacity="1.0"
     inkscape:pageopacity="0.0"
     inkscape:pageshadow="2"
     inkscape:zoom="0.35"
     inkscape:cx="367.1981"
     inkscape:cy="615.20623"
     inkscape:document-units="px"
     inkscape:current-layer="layer1"
     showgrid="false"
     inkscape:window-width="1366"
     inkscape:window-height="716"
     inkscape:window-x="0"
     inkscape:window-y="24"
     inkscape:window-maximized="1"
     inkscape:object-nodes="false" />
  <metadata
     id="metadata7">
    <rdf:RDF>
      <cc:Work
         rdf:about="">
        <dc:format>image/svg+xml</dc:format>
        <dc:type
           rdf:resource="http://purl.org/dc/dcmitype/StillImage" />
        <dc:title></dc:title>
      </cc:Work>
    </rdf:RDF>
  </metadata>
  <g
     inkscape:label="Layer 1"
     inkscape:groupmode="layer"
     id="layer1">
    <g
       id="g7182"
       inkscape:export-xdpi="90"
       inkscape:export-ydpi="90">
      <rect
         y="28.067545"
         x="-22.223379"
         height="789.93927"
         width="789.93927"
         id="rect6500"
         style="opacity:0.97000002;fill:url(#linearGradient6526);fill-opacity:1;stroke:none;stroke-width:0.1;stroke-miterlimit:4;stroke-dasharray:none" />
      <path
         transform="translate(1042.4774,420.22346)"
         clip-path="url(#clipPath6514)"
         sodipodi:nodetypes="ccccccc"
         inkscape:connector-curvature="0"
         id="path6502"
         d="M -1077.1429,138.07649 C -983.67111,93.634835 -851.76025,85.705424 -690,120.93363 c 129.65413,46.79945 319.70502,-73.822136 441.42857,5.71429 l 37.14286,300 -277.14286,34.28571 -592.85707,-45.71429 z"
         style="fill:url(#linearGradient6510);fill-opacity:1;fill-rule:evenodd;stroke:none;stroke-width:1px;stroke-linecap:butt;stroke-linejoin:miter;stroke-opacity:1" />
      <g
         transform="translate(1042.4774,420.22346)"
         clip-path="url(#clipPath6813)"
         id="g6807">
        <circle
           transform="matrix(2.442308,0,0,2.442308,339.06168,408.68629)"
           r="38.385799"
           cy="-293.16098"
           cx="-268.70059"
           id="circle6726"
           style="opacity:1;fill:#ffea00;fill-opacity:1;stroke:none;stroke-width:0.1;stroke-miterlimit:4;stroke-dasharray:none;filter:url(#filter6788)" />
        <circle
           style="opacity:1;fill:#fff8e1;fill-opacity:1;stroke:none;stroke-width:0.1;stroke-miterlimit:4;stroke-dasharray:none;filter:url(#filter6722)"
           id="path6540"
           cx="-268.70059"
           cy="-293.16098"
           r="38.385799"
           transform="matrix(1.9615388,0,0,1.9615388,215.93963,267.74351)" />
      </g>
      <path
         transform="matrix(0.92947017,0,0,1,1023.0985,420.22346)"
         clip-path="url(#clipPath6534)"
         sodipodi:nodetypes="ccccsccsccccsssscscsssssscssssccc"
         inkscape:connector-curvature="0"
         id="path6530"
         d="m -1082.8571,166.64792 70,-22.85714 95.71424,-20 72.85715,-11.42858 c 0,0 54.28571,17.14286 70,20 15.71428,2.85715 165.71428,20 165.71428,20 l 84.28572,-10 c 0,0 26.79309,-14.55673 42.85714,-8.57142 25.71429,9.58089 51.42857,7.50877 77.14286,0 15.23809,-9.03982 30.47619,-6.07258 45.71428,0 21.46568,8.71985 39.41594,3.37803 57.14286,-2.85715 15.27388,-8.20807 33.82402,-4.94927 52.85714,0 0,0 15.71429,-27.14285 15.71429,-41.428569 0,-14.285714 -40.41882,-41.343761 -45.71429,-68.571428 -6.60969,-33.984972 -6.2655,-76.151686 -42.85714,-72.857143 -28.63362,2.57804 -44.13896,-72.05324 -42.85714,-82.85714 2.49999,-21.07143 -41.42858,-62.85715 -41.42858,-62.85715 -6.60118,-22.17043 -14.31917,-26.63055 -19.52827,-20.62197 -4.12034,4.75272 -29.03343,25.23985 -44.75744,39.1934 -7.97081,0 -19.15496,15.71429 -17.14286,45.71429 2.06371,30.76949 5.71429,38.571427 -20,69.999998 -25.71428,31.428572 -14.28571,40 -51.42857,62.85714331 -37.14286,22.85714269 -100,55.71428569 -122.85714,34.28571469 -22.85714,-21.428572 -38.57143,-48.571429 -55.71429,-64.285715 -17.14285,-15.714285 -31.27536,-75.680701 -77.14285,-74.285711 -34.1394,1.0383 -61.42858,-37.14286 -61.42858,-37.14286 0,0 -9.78193,-65.13815 -56.99928,0 -16.02847,22.1119 -16.38982,3.12343 -31.57214,57.142857 -6.43873,22.909318 -20,54.285714 -22.85715,64.285714 -2.85714,10 8.67704,37.884856 -20.00004,45.714286 -30.7606,8.398275 -46.4398,42.010621 -45.7142,42.857143 -12.0877,-8.536039 -20.6951,-33.603123 -42.8572,5.714286 z"
         style="fill:url(#linearGradient6849);fill-opacity:1;fill-rule:evenodd;stroke:none;stroke-width:1px;stroke-linecap:butt;stroke-linejoin:miter;stroke-opacity:1" />
      <path
         transform="matrix(-0.8074631,0,0,0.84509909,-244.46557,458.89452)"
         style="fill:#1b5e20;fill-opacity:1;fill-rule:evenodd;stroke:none;stroke-width:1px;stroke-linecap:butt;stroke-linejoin:miter;stroke-opacity:1"
         d="m -1082.8571,166.64792 70,-22.85714 95.71424,-20 72.85715,-11.42858 c 0,0 54.28571,17.14286 70,20 15.71428,2.85715 165.71428,20 165.71428,20 l 84.28572,-10 c 0,0 26.79309,-14.55673 42.85714,-8.57142 25.71429,9.58089 51.42857,7.50877 77.14286,0 15.23809,-9.03982 30.47619,-6.07258 45.71428,0 21.46568,8.71985 39.41594,3.37803 57.14286,-2.85715 15.27388,-8.20807 33.82402,-4.94927 52.85714,0 0,0 15.71429,-27.14285 15.71429,-41.428569 0,-14.285714 -40.41882,-41.343761 -45.71429,-68.571428 -6.60969,-33.984972 -6.2655,-76.151686 -42.85714,-72.857143 -28.63362,2.57804 -44.13896,-72.05324 -42.85714,-82.85714 2.49999,-21.07143 -41.42858,-62.85715 -41.42858,-62.85715 -6.60118,-22.17043 -14.31917,-26.63055 -19.52827,-20.62197 -4.12034,4.75272 -29.03343,25.23985 -44.75744,39.1934 -7.97081,0 -19.15496,15.71429 -17.14286,45.71429 2.06371,30.76949 5.71429,38.571427 -20,69.999998 -25.71428,31.428572 -14.28571,40 -51.42857,62.85714331 -37.14286,22.85714269 -100,55.71428569 -122.85714,34.28571469 -22.85714,-21.428572 -38.57143,-48.571429 -55.71429,-64.285715 -17.14285,-15.714285 -31.27536,-75.680701 -77.14285,-74.285711 -34.1394,1.0383 -61.42858,-37.14286 -61.42858,-37.14286 0,0 -9.78193,-65.13815 -56.99928,0 -16.02847,22.1119 -16.38982,3.12343 -31.57214,57.142857 -6.43873,22.909318 -20,54.285714 -22.85715,64.285714 -2.85714,10 8.67704,37.884856 -20.00004,45.714286 -30.7606,8.398275 -46.4398,42.010621 -45.7142,42.857143 -73.643,-40.914656 -84.5064,92.71379 -30,98.57143 z"
         id="path6819"
         inkscape:connector-curvature="0"
         sodipodi:nodetypes="ccccsccsccccsssscscsssssscsssscc"
         clip-path="url(#clipPath6853)" />
      <g
         transform="translate(1042.4774,420.22346)"
         id="g7070">
        <g
           id="g6915"
           transform="matrix(1.1350949,-0.02381427,0.29296996,1.1142869,-310.07874,-75.749992)">
          <path
             style="fill:#bdbdbd;fill-rule:evenodd;stroke:none;stroke-width:1px;stroke-linecap:butt;stroke-linejoin:miter;stroke-opacity:1"
             d="m -482.85714,216.64792 c -7.07491,-10.87074 30.9067,-52.75277 42.14285,-55 14.37787,-41.47643 22.16242,-26.81168 36.42858,-30 22.33143,-48.590423 54.3355,-82.597403 55,-27.14286 -2.74051,29.43229 22.30417,30.17969 4.28571,45.71428 -7.5738,6.52975 -6.42857,27.85715 -2.14286,36.42858 4.28572,8.57143 7.14286,34.28571 7.14286,34.28571 0,0 22.85714,11.42857 24.28572,17.14286 1.42857,5.71429 -3.95162,13.38051 -15.71429,18.57143 -13.72224,6.05568 -50.23672,5.68348 -62.85714,2.85714 -30.08422,-6.73735 -93.296,-39.42109 -88.57143,-42.85714 z"
             id="path6903"
             inkscape:connector-curvature="0"
             sodipodi:nodetypes="ccccsscsssc" />
          <path
             clip-path="url(#clipPath6911)"
             style="fill:url(#linearGradient6869);fill-opacity:1;fill-rule:evenodd;stroke:none;stroke-width:0.83757633px;stroke-linecap:butt;stroke-linejoin:miter;stroke-opacity:1;filter:url(#filter6899)"
             d="m -476.67184,213.9022 c -6.3463,-9.75122 27.72378,-47.32005 37.80279,-49.33584 12.89716,-37.205 19.88002,-24.05049 32.67699,-26.91046 20.03163,-43.586351 48.73977,-74.091136 49.33584,-24.34756 -2.45827,26.40121 20.00718,27.07164 3.84435,41.00641 -6.79381,5.85728 -5.76653,24.98829 -1.92218,32.67698 3.84436,7.68871 6.40725,30.75481 6.40725,30.75481 0,0 20.50321,10.2516 21.78467,15.37741 1.28144,5.12581 -3.54467,12.00253 -14.09596,16.65886 -12.30906,5.43203 -45.06311,5.09817 -56.38381,2.5629 -26.98602,-6.0435 -83.68795,-35.36132 -79.44994,-38.44351 z"
             id="path6861"
             inkscape:connector-curvature="0"
             sodipodi:nodetypes="ccccsscsssc" />
        </g>
        <g
           id="g7065">
          <path
             clip-path="none"
             sodipodi:nodetypes="ccccccc"
             inkscape:connector-curvature="0"
             id="path4178"
             d="m -784.56436,144.50293 -50.67188,74.17572 37.91882,-2.43606 33.16595,-39.02132 12.81676,-32.41415 -5.85084,-4.0306 z"
             style="opacity:1;fill:#9e9e9e;fill-rule:evenodd;stroke:none;stroke-width:0.28222221px;stroke-linecap:butt;stroke-linejoin:miter;stroke-opacity:1" />
          <g
             style="opacity:1"
             transform="matrix(-0.54512921,0,0,0.54512921,-885.61896,72.347072)"
             id="g6975">
            <path
               inkscape:connector-curvature="0"
               d="m -222.78754,132.81818 -0.37498,21.93778 7.85931,20.02733 6.67917,-18.84621 0,-23.20166 23.57658,-0.13779 -9.34347,-11.88792 -42.72951,0.24957 -9.26057,11.9967 z m 0.29411,59.7989 -23.89399,-58.76694 14.4265,-0.0842 16.92837,43.49837 15.87959,-43.69007 14.11188,-0.0824 -23.25055,59.04242 z"
               style="font-style:normal;font-variant:normal;font-weight:bold;font-stretch:normal;font-size:medium;line-height:125.98684692px;font-family:Arial;-inkscape-font-specification:'Arial Bold';letter-spacing:0px;word-spacing:0px;opacity:1;fill:url(#radialGradient7063);fill-opacity:1;stroke:none;stroke-width:8.24700069;stroke-linecap:square;stroke-linejoin:bevel;stroke-miterlimit:4;stroke-dasharray:none"
               id="path4603" />
          </g>
        </g>
      </g>
      <g
         transform="matrix(1.7967473,0,0,1.7967473,681.60741,-2395.1931)"
         id="g6418">
        <path
           style="fill:#000000;stroke:none;stroke-width:1.5;stroke-miterlimit:4;stroke-dasharray:none"
           d="m -105.18322,1721.4448 c -4.93793,-1.762 -6.16168,-3.0082 -7.30707,-7.4411 -1.8783,-7.2695 -4.04149,-12.0757 -7.06255,-15.6916 -1.66015,-1.9871 -4.17878,-6.6803 -5.59698,-10.4295 -1.41818,-3.7491 -5.30485,-13.3556 -8.63704,-21.3478 -8.10457,-19.4387 -11.4656,-28.6982 -11.4656,-31.5874 0,-2.2093 -0.23855,-2.3474 -3.04687,-1.7631 -3.5403,0.7366 -12.88828,1.9303 -27.35041,3.4925 -12.41664,1.3414 -19.82841,0.3618 -34.06662,-4.5023 l -9.6201,-3.2866 -4.362,1.6659 c -5.3942,2.06 -12.6973,9.3609 -14.3386,14.334 -1.1067,3.3534 -1.0344,3.9168 0.8401,6.5493 1.128,1.5842 3.857,8.0551 6.0644,14.3797 6.3916,18.3133 7.3358,19.468 15.9194,19.468 3.1749,0 4.5731,0.5801 6.9137,2.8685 3.85743,3.7713 7.38609,10.9799 6.03576,12.3302 -0.57914,0.5791 -4.37097,0.9219 -9.05636,0.8187 -4.4331,-0.098 -9.4165,0.246 -11.0744,0.7638 -1.6578,0.5178 -7.0221,1.8836 -11.9205,3.035 -4.8984,1.1514 -9.6603,2.7279 -10.582,3.5033 -0.9217,0.7753 -4.0857,1.5811 -7.0313,1.7906 -4.6849,0.3332 -5.6101,0.1056 -7.3892,-1.8177 -2.356,-2.5471 -4.8301,-11.3693 -5.6497,-20.1457 l -0.5707,-6.1124 -6.1855,-4.6671 c -7.786,-5.8748 -9.364,-7.9366 -13.1722,-17.211 -1.6938,-4.125 -4.5565,-10.2421 -6.3614,-13.5937 -9.7132,-18.0363 -12.4299,-23.9321 -15.5512,-33.75 -1.8852,-5.9297 -3.881,-12.6168 -4.4351,-14.8602 -0.5541,-2.2436 -1.1343,-3.9311 -1.2892,-3.75 -0.155,0.1809 -0.537,4.5477 -0.8489,9.7039 -0.3118,5.1563 -1.2098,13.5938 -1.9956,18.75 -0.7857,5.1563 -2.4782,19.0782 -3.7611,30.9375 -3.0769,28.4442 -6.2074,39.6371 -12.3488,44.1517 -6.7943,4.9945 -12.7871,6.4929 -16.9844,4.2466 -4.6015,-2.4626 -3.4662,-9.5489 1.8928,-11.8137 3.7244,-1.5741 9.4006,-7.4634 10.8644,-11.2721 1.4221,-3.7006 2.6815,-10.6206 4.3418,-23.857 0.7471,-5.9568 1.9937,-15.893 2.7701,-22.0805 0.7764,-6.1875 2.4949,-20.7421 3.8188,-32.3437 2.4046,-21.0718 4.5897,-30.6347 11.8891,-52.0313 3.0208,-8.8548 8.0417,-14.7534 16.2355,-19.0733 4.5225,-2.3843 5.3071,-2.4796 22.2888,-2.7075 16.1717,-0.217 18.494,-0.4687 28.5937,-3.0983 17.2369,-4.488 44.79678,-5.5402 82.37144,-3.1446 7.88935,0.5031 9.83431,0.2356 24.60937,-3.3838 11.03316,-2.7027 16.04299,-4.3305 16.04299,-5.2126 0,-2.4426 3.60096,-3.4837 8.11635,-2.3467 2.29203,0.5771 4.52193,0.8302 4.95533,0.5623 1.092,-0.6749 25.726069,-4.2486 29.401619,-4.2654 1.64749,-0.01 4.81935,-0.6489 7.04856,-1.4253 14.943299,0.2067 20.350143,0.8423 22.47016,4.3243 0,0 -19.08173,-3.5808 -34.96077,3.6562 l -13.67137,12.8359 c 7.819301,-9.1833 -2.095239,6.6227 -2.811549,7.426 -3.50513,3.8705 -4.64699,5.8249 -4.43186,7.5855 l 1.16129,6.4632 c 0.37587,1.4976 1.12587,2.9964 1.66668,3.3306 0.5408,0.3342 0.72649,1.0232 0.41266,1.5309 0.40771,3.496 0.73556,6.9814 -0.6071,10.2441 0,0.9949 0.57305,2.5926 1.27343,3.5505 2.05673,5.289 -2.72471,11.236 -2.95654,16.9747 -0.37399,16.3591 1.83374,24.164 9.203289,32.5362 9.14531,10.3897 9.696922,14.492 26.548192,9.6686 l 6.009758,3.6259 c -2.20494,0.4572 -2.57813,0.9981 -2.57813,3.7367 0,5.1133 -2.55871,15.9377 -6.99094,29.5747 -6.19584,19.0632 -6.21006,19.1186 -6.41337,24.9931 l -0.18944,5.474 7.49903,1.2343 c 12.11587,1.9942 18.28222,7.0631 18.28222,15.0286 0,4.4046 -0.28049,4.6467 -6.79942,5.8677 -2.70563,0.5067 -6.81777,1.3461 -9.13808,1.8654 -2.32031,0.5193 -6.96094,1.1699 -10.3125,1.4457 -3.35156,0.2758 -8.69695,1.5202 -11.87865,2.7651 -6.589,2.5782 -7.847129,2.6694 -12.739609,0.9236 z"
           id="path6397"
           inkscape:connector-curvature="0"
           sodipodi:nodetypes="sscssssccccccssscccscscccsscsccccssscccsssssscssccccccccccsccccsccssscsscsscs" />
        <path
           style="fill:#faad1c;fill-opacity:1;stroke:none;stroke-width:0.1;stroke-miterlimit:4;stroke-dasharray:none"
           d="m -90.543405,1716.7241 c 4.62829,-1.617 7.89333,-2.2291 9.8915,-1.8542 3.39707,0.6372 7.408751,-0.5955 8.140101,-2.5013 0.78906,-2.0562 -1.73167,-8.1952 -4.617501,-11.2454 -2.17972,-2.3039 -2.33626,-2.7444 -0.87858,-2.4725 2.837451,0.5294 7.224571,6.7178 7.799121,11.0015 0.55893,4.1672 0.79854,4.3265 4.42867,2.9464 3.81843,-1.4518 3.0946,-6.7936 -1.62232,-11.9727 -3.58029,-3.931 -0.68666,-3.3833 3.08782,0.5845 2.92448,3.0743 3.75178,4.674 3.75178,7.2544 0,2.6463 0.32918,3.2482 1.64063,2.9997 1.09447,-0.2072 1.74096,-1.3566 1.94205,-3.4525 0.536359,-5.5906 -5.16632,-9.9094 -15.14574,-11.4703 -3.17938,-0.4973 -7.805681,-1.5638 -10.280671,-2.3699 -5.43692,-1.7709 -8.04654,-5.3742 -10.60495,-14.6433 -0.96066,-3.4805 -2.01209,-6.3281 -2.3365,-6.3281 -1.745728,0 -4.847265,10.906 -5.998785,21.0937 -1.50711,13.3338 -1.94205,14.7255 -4.48346,14.3465 -4.12107,-0.6146 -7.9333,-13.7135 -6.75599,-23.2136 0.75253,-6.0725 2.16019,-9.7557 5.83337,-15.2631 4.26033,-6.3878 7.168846,-13.4685 6.32945,-15.4088 -0.40711,-0.941 -0.91034,-2.7656 -1.11829,-4.0547 -0.20795,-1.2891 -1.40872,-6.428 -2.66836,-11.4199 -2.43823,-9.6625 -2.82416,-14.4283 -1.35276,-16.7051 0.67331,-1.0419 0.91251,-0.467 0.92315,2.2187 0.0132,3.337 0.18194,3.57 2.12373,2.9329 1.16015,-0.3806 4.007807,-0.8685 6.328125,-1.0841 2.32031,-0.2156 5.23762,-0.6117 6.48291,-0.8802 2.25642,-0.4866 2.2541,-0.4943 -0.67998,-2.2787 -11.309045,-6.8774 -16.881315,-17.9148 -17.970915,-35.5961 l -0.66439,-10.7813 -0.0445,9.8438 c -0.0245,5.4141 0.22927,12.375 0.56396,15.4687 0.34221,3.1633 0.0752,9.5228 -0.61009,14.5313 -0.96309,7.0387 -0.9913,11.2329 -0.13455,20.0022 1.31006,13.4091 0.86824,16.6448 -3.36142,24.6175 -2.07627,3.9137 -3.26847,7.4586 -3.26847,9.7184 0,6.8511 -4.38432,7.3603 -7.78526,0.9042 -2.08301,-3.9542 -1.62755,-8.7179 1.72109,-18.0012 2.20007,-6.099 2.35782,-7.6138 2.11156,-20.2756 -0.37558,-19.3112 2.31435,-46.9049 5.12384,-52.5612 1.42518,-2.8693 2.79465,-4.3453 4.21939,-4.5477 1.54456,-0.2193 2.10938,-0.9265 2.10938,-2.6412 0,-1.9909 1.46967,-5.2827 -0.32367,-4.745 -13.14663,-0.4291 -8.50805,4.4718 -14.27147,31.3577 -11.07021,1.0576 -2.06158,-14.5106 -7.45429,-22.033 -1.53542,-2.1418 -3.95295,10.1449 -6.87974,16.4946 -1.8555,4.0256 -3.46957,9.4582 -4.01607,13.5173 -1.33473,9.9136 -1.6412,11.0055 -3.08883,11.0055 -2.62975,0 -4.57946,-7.8487 -4.05159,-16.3098 0.42539,-6.8184 1.04191,-9.0051 4.6887,-16.6298 6.48302,-13.5548 11.29641,-20.9103 13.93239,-21.2908 3.20592,-0.4629 4.30963,-1.6397 5.00273,-5.3342 0.59778,-3.1865 0.69707,-3.2479 5.25432,-3.2479 2.55476,0 4.96142,0.026 5.34814,0.059 0.38672,0.033 0.60762,0.848 0.49089,1.8124 -0.18402,1.5203 0.25245,1.6802 3.28125,1.2024 3.50712,-0.5534 6.10869,-4.2769 6.13538,-6.4555 0.0106,-0.8662 -2.63219,-1.1719 -10.13166,-1.1719 l -10.14602,0 -6.63327,8.7723 c -7.7016,10.1851 -10.53879,7.4317 -5.16142,-5.2935 1.6023,-3.7917 3.70473,-9.1532 4.67207,-11.9146 0.96734,-2.7614 2.60647,-6.3922 3.64253,-8.0686 2.287,-3.7004 10.74559,-11.7545 12.34486,-11.7545 0.63418,0 -0.0399,-1.2452 -1.49803,-2.7671 l -2.65109,-2.7672 -4.20872,4.6811 c -5.12982,5.7056 -9.34082,8.2181 -10.16665,6.0661 -0.67281,-1.7534 2.67129,-7.3071 6.03435,-10.0216 l 2.51116,-2.0269 -2.34375,0.6165 c -22.56003,5.9344 -25.67074,6.4473 -36.30639,5.9868 -5.78882,-0.2507 -10.31146,-0.1101 -10.05031,0.3124 0.26114,0.4226 -1.00322,2.7046 -2.8097,5.0713 -3.86507,5.0635 -6.1461,12.0319 -6.1461,18.776 0,2.6604 -0.64402,6.9081 -1.43116,9.4392 -3.16786,10.1868 -3.32714,13.0195 -1.3015,23.1454 2.06998,10.3476 1.8389,23.6348 -0.39888,22.9357 -2.0059,-0.6267 -5.90791,-14.4891 -7.17506,-25.4903 -1.01361,-8.7999 -1.02928,-11.821 -0.0819,-15.7799 0.64446,-2.693 1.50668,-8.9313 1.91604,-13.8629 0.4448,-5.3586 1.4077,-10.2625 2.39306,-12.1875 2.80318,-5.476 7.21315,-10.4241 10.70687,-12.0134 3.3055,-1.5037 3.20751,-1.5228 -9.15568,-1.7821 l -12.49694,-0.2621 -5.49099,4.757 c -6.38944,5.5352 -7.16134,7.3922 -8.38014,20.1612 -0.9042,9.4736 -2.2412,14.5449 -5.3426,20.2651 -1.0667,1.9674 -1.8899,5.9743 -2.1886,10.6534 -0.6045,9.4685 -2.3952,10.146 -4.9556,1.875 -2.7731,-8.9579 -1.9471,-17.8299 2.5313,-27.1875 2.3979,-5.0104 3.8175,-9.5317 4.2767,-13.6207 0.753,-6.7051 2.8642,-11.7414 5.9731,-14.2491 1.982,-1.5986 1.9583,-1.62 -1.8128,-1.6406 -4.1797,-0.023 -6.4449,1.7575 -9.2184,7.2448 -2.6286,5.2007 -5.2418,3.5837 -5.2418,-3.2434 l 0,-3.3243 -3.9844,0.6271 c -2.1914,0.345 -8.1107,1.7676 -13.1539,3.1615 l -9.1694,2.5343 -3.4288,6.5677 c -3.3135,6.3467 -3.4222,6.8675 -3.2289,15.474 0.1241,5.5251 -0.3558,11.2196 -1.264,15 -1.3641,5.6776 -1.3438,6.6771 0.2973,14.636 1.9504,9.4597 1.7884,18.8512 -0.3982,23.0796 -1.7757,3.4339 -8.5121,7.942 -9.8574,6.5967 -0.6909,-0.6908 -0.4686,-1.7793 0.741,-3.6285 2.2953,-3.509 2.2586,-19.2029 -0.061,-26.1526 -0.8606,-2.5781 -1.822,-8.6013 -2.1365,-13.3849 l -0.5717,-8.6974 4.4782,-9.1151 c 2.463,-5.0133 5.6375,-11.5037 7.0544,-14.4231 l 2.5762,-5.3081 -3.253,-0.6102 c -3.6728,-0.6891 -3.3517,-0.9759 -10.4831,9.3597 -7.3205,10.6096 -10.7137,18.6087 -11.1315,26.2416 -0.377,6.8866 -0.4045,6.8068 7.1028,20.625 2.3544,4.3337 2.6232,14.303 0.5067,18.7978 -2.5096,5.3299 -4.1755,4.7639 -5.661,-1.9236 -0.6872,-3.0941 -2.2833,-6.891 -3.5467,-8.4375 l -2.2971,-2.8117 -0.043,6.5625 c -0.047,7.28 -2.8518,14.8013 -7.229,19.3891 -2.1574,2.2612 -2.2925,2.8187 -1.343,5.5422 0.5805,1.6654 2.5641,5.7256 4.4079,9.0226 2.5568,4.572 3.6352,5.7599 4.5441,5.0056 1.5621,-1.2963 4.1955,-11.4572 4.5087,-17.397 0.1389,-2.6333 0.6571,-4.5339 1.1826,-4.337 1.3727,0.5143 3.2485,7.4738 3.2649,12.1131 0.017,4.94 -2.6247,16.1433 -4.2104,17.8531 -0.9367,1.01 -0.2718,3.2866 3.4156,11.6951 2.5184,5.7426 5.2441,11.0845 6.0572,11.8709 1.2761,1.2342 1.2589,0.9167 -0.1254,-2.3202 -6.3273,-14.7954 -6.5686,-19.6918 -1.5116,-30.6704 1.5949,-3.4624 3.3189,-8.8972 3.831,-12.0772 1.0157,-6.3073 1.493,-7.286 2.8777,-5.9012 1.9119,1.9118 2.4699,9.2118 1.2105,15.8363 -2.2992,12.0936 -2.4482,15.8567 -0.8461,21.3675 0.8356,2.8746 2.5128,6.4148 3.7269,7.8671 3.117,3.7282 5.7691,9.3319 7.1064,15.0159 1.3188,5.6049 3.7949,8.6558 3.7949,4.6756 0,-3.5018 -2.427,-14.3347 -4.6408,-20.7135 -1.6652,-4.7983 -1.9217,-7.8244 -1.9217,-22.6733 0,-10.0523 0.4198,-18.2269 1.0155,-19.7751 0.5586,-1.4515 1.3029,-4.2935 1.654,-6.3155 0.3512,-2.022 1.1328,-3.8411 1.7369,-4.0425 1.7679,-0.5893 3.0823,6.0759 3.0938,15.6876 0.014,11.426 1.2554,18.8638 4.1396,24.7957 1.2664,2.6046 2.8113,6.7785 3.4332,9.2755 1.5918,6.3904 0.5883,19.9448 -1.8917,25.5511 l -1.9462,4.3998 2.1168,2.9109 c 1.1643,1.6009 2.9373,4.5218 3.94,6.491 2.6109,5.1275 3.8204,5.476 11.7659,3.39 3.8,-0.9977 7.8869,-1.814 9.082,-1.814 1.195,0 2.1727,-0.2387 2.1727,-0.5304 0,-1.2836 -2.2621,-4.7666 -4.0941,-6.3036 l -1.9996,-1.6778 2.3395,0.2715 c 1.5177,0.1762 3.1571,1.5373 4.6671,3.8751 2.1166,3.2768 2.6162,3.5567 5.511,3.087 1.7509,-0.2842 3.3989,-0.7321 3.6622,-0.9954 1.0903,-1.0904 -2.1516,-6.4381 -5.1296,-8.4617 -2.5929,-1.762 -3.7724,-2.0259 -6.1893,-1.3851 -1.6423,0.4355 -4.1383,1.0265 -5.5469,1.3134 -1.4085,0.2868 -4.0452,1.8248 -5.8593,3.4176 -3.8479,3.3786 -4.3749,2.25 -0.8856,-1.8967 1.3898,-1.6518 4.0728,-3.3439 6.3281,-3.9911 2.1534,-0.6179 4.0379,-1.2051 4.1878,-1.305 0.1498,-0.1 -0.5609,-1.6058 -1.5794,-3.3466 -1.0184,-1.7407 -2.7768,-5.6533 -3.9074,-8.6945 -1.7362,-4.6704 -2.2033,-5.2658 -3.0058,-3.8318 -0.5226,0.9338 -1.3162,5.309 -1.7636,9.7227 -0.8551,8.4364 -2.746,12.3623 -4.5671,9.4824 -0.4891,-0.7735 -0.8957,-2.3494 -0.9036,-3.5021 -0.01,-1.1529 -0.5254,-4.0066 -1.15,-6.3419 -0.9551,-3.5711 -0.8642,-5.5882 0.5718,-12.6925 1.6534,-8.1797 1.5106,-16.1427 -0.3097,-17.2677 -1.462,-0.9037 -5.7633,-11.0459 -7.1146,-16.776 -0.7475,-3.17 -1.3654,-8.6778 -1.373,-12.2397 -0.012,-5.5811 -0.6617,-8.0797 -4.7014,-18.0799 -2.5781,-6.382 -4.6875,-12.2734 -4.6875,-13.0917 0,-3.0295 2.4441,0.5513 5.6717,8.3098 l 3.2346,7.7754 0.2813,-4.8629 c 0.2138,-3.6964 -0.3649,-6.395 -2.4126,-11.25 -6.4907,-15.3889 -6.4449,-21.493 0.2713,-36.1368 2.4279,-5.2939 4.8327,-11.3128 5.344,-13.3753 2.0689,-8.3464 3.9935,-12.1764 6.2836,-12.5042 1.9275,-0.2759 2.1286,-0.034 1.5592,1.875 -0.3594,1.2055 -1.0467,5.3986 -1.5272,9.3181 -0.4804,3.9195 -2.3546,11.2178 -4.1647,16.2184 -4.169,11.517 -4.1662,15.225 0.022,28.237 4.1155,12.7877 5.1389,21.8263 2.8642,25.2978 -0.8738,1.3335 -2.5331,2.8549 -3.6874,3.3808 -1.6889,0.7695 -2.0281,1.5612 -1.7371,4.0539 0.3525,3.0195 0.4953,3.1114 5.6639,3.6447 2.9163,0.3009 6.2995,0.8395 7.5181,1.1969 2.0765,0.6089 2.1426,0.5128 1.0507,-1.5273 -0.6408,-1.1973 -1.7229,-7.2493 -2.4048,-13.4488 -1.0528,-9.573 -1.7004,-12.1268 -4.2967,-16.9445 -2.7114,-5.0314 -3.0611,-6.5237 -3.0923,-13.1994 -0.034,-7.2135 0.1725,-7.954 4.9573,-17.8011 2.9234,-6.0164 5.213,-12.1361 5.5245,-14.7664 0.2926,-2.4705 0.9011,-4.72 1.3521,-4.9988 1.3809,-0.8534 4.4948,7.3335 4.5166,11.8751 0.011,2.3551 -0.8394,7.4176 -1.8906,11.25 -1.0511,3.8323 -2.1632,11.2297 -2.4713,16.4387 -0.5284,8.9343 -0.3936,9.952 2.38,17.9627 3.2961,9.5204 3.8057,16.9612 1.5338,22.3985 -1.8857,4.5131 -1.8249,4.7707 1.2877,5.4544 1.4816,0.3254 7.6611,2.4764 13.7321,4.7798 6.07102,2.3035 11.22437,4.002 11.45191,3.7745 1.02419,-1.0242 -4.94287,-7.9401 -9.79741,-11.3553 -13.254,-9.3243 -15.4911,-19.2707 -7.4822,-33.2667 3.0519,-5.3335 3.0023,-4.9791 3.4482,-24.6094 0.043,-1.905 2.9709,-0.3429 4.3926,2.3438 2.178,4.1156 2.1579,14.797 -0.048,25.4714 -2.5348,12.2672 -1.0699,18.7967 5.80073,25.8567 3.39544,3.489 7.66396,11.3762 7.67398,14.1797 0.01,2.7783 2.42777,3.6377 10.20411,3.6266 l 4.33593,-0.01 -2.61843,-1.7265 c -6.06942,-4.0019 -13.22842,-12.0079 -16.04991,-17.9486 l -2.89416,-6.0938 0.24166,-17.6927 c 0.24109,-17.6508 0.2346,-17.7143 -2.73426,-26.7188 -3.61455,-10.9628 -4.04975,-19.2225 -1.33125,-25.2617 2.18398,-4.8513 3.3582,-4.0588 5.19105,3.5041 0.67724,2.7945 2.1982,7.0133 3.37992,9.375 1.98719,3.9716 2.21585,6.1252 3.04409,28.6691 0.81715,22.2425 1.09883,24.9508 3.21957,30.9555 3.02181,8.5561 5.94179,14.2443 9.27164,18.0615 1.47748,1.6937 2.68633,3.4867 2.68633,3.9844 0,0.4977 2.40594,0.9049 5.34652,0.9049 l 5.34651,0 -3.42525,-3.5156 c -3.95081,-4.0551 -7.89758,-12.1671 -6.56704,-13.4976 1.16939,-1.1694 9.23925,5.4595 12.96553,10.6505 2.57707,3.5899 3.32758,4.0429 7.03125,4.2442 2.28043,0.124 6.67468,-0.2979 9.765,-0.9375 5.16934,-1.0698 5.65749,-1.3878 6.10295,-3.9753 0.8419,-4.8902 2.31968,-2.636 2.90679,4.434 0.6055,7.2917 2.85336,13.945 11.72872,34.715 2.91748,6.8275 6.03874,14.5432 6.93614,17.1461 2.16802,6.2884 5.28778,12.3035 8.47594,16.3423 1.4328,1.8151 3.49771,6.3443 4.58868,10.065 3.04633,10.3892 6.78784,11.7582 19.755175,7.2276 z"
           id="path6395"
           inkscape:connector-curvature="0"
           sodipodi:nodetypes="ccsscscssscsscsssssscsscscsccscsssssssssscsccsssssscssssccscsssssccscscssccssscssscssccssssssccssccscssccscscccssccssscccccscsccccscsssscscccscsccccsccccscssccccccccccccccccsccsscccssscssccsccscccsscccscsscccscscccsscccscccsscsscscssssscsccccsssssscc" />
        <path
           style="fill:#000000"
           d="m -131.47579,1646.1739 c -0.9303,-0.9304 -1.47322,-3.1326 -1.47322,-5.9759 0,-2.4765 -0.59459,-6.188 -1.32132,-8.2477 -1.70038,-4.8194 -2.37513,-28.5398 -0.82652,-29.056 2.10237,-0.7008 6.86234,4.9193 8.73518,10.3135 2.67249,7.6976 3.0937,28.1529 0.65668,31.8901 -1.88555,2.8917 -3.62992,3.2169 -5.7708,1.076 z"
           id="path6393"
           inkscape:connector-curvature="0" />
        <g
           id="g6399">
          <path
             inkscape:connector-curvature="0"
             id="path6391"
             d="m -161.78535,1619.7415 c -4.87947,-3.3138 -8.63844,-8.8257 -10.31472,-15.1248 -2.5767,-9.6827 -1.54429,-16.5146 4.37997,-28.9841 3.67758,-7.7407 6.36958,-17.3722 6.40299,-22.909 0.0345,-5.7184 7.94509,-18.3628 13.31876,-21.289 2.3104,-1.2581 3.08099,0.6661 1.33431,3.3319 -3.28292,5.0104 -7.93937,18.4101 -9.45807,27.217 -1.03091,5.9783 -2.84502,12.0924 -5.00699,16.875 -3.04986,6.7469 -3.38304,8.275 -3.3177,15.2161 0.0642,6.8221 0.43447,8.4216 3.1954,13.8045 3.15542,6.1522 4.68305,7.7384 2.64845,2.7501 -0.60752,-1.4895 -1.14666,-7.5597 -1.1981,-13.4894 l -0.0936,-10.7813 4.81807,-9.4998 c 3.08725,-6.0873 5.55766,-12.6503 6.87686,-18.2693 2.27057,-9.6714 5.71047,-17.5055 9.23334,-21.0284 5.48383,-5.4839 6.51795,-0.034 2.0912,11.0218 -1.51898,3.7935 -3.21999,9.8371 -3.78002,13.4303 -1.61214,10.3434 -3.65068,15.3912 -8.16461,20.217 -2.26539,2.4218 -4.52382,5.8153 -5.01874,7.5409 -1.29978,4.5322 -1.07861,13.4024 0.52268,20.9622 1.63683,7.7276 1.73115,9.8441 0.43869,9.8441 -0.5232,0 -1.82149,-1.3711 -2.88507,-3.0469 -1.62404,-2.5588 -1.82648,-2.6715 -1.26382,-0.7031 0.36849,1.2891 0.84726,2.8166 1.06395,3.3947 0.81872,2.1838 -2.2762,1.9285 -5.8233,-0.4805 z"
             style="fill:#000000" />
          <path
             inkscape:connector-curvature="0"
             id="path6389"
             d="m -176.51122,1607.6867 c -4.0807,-4.6542 -4.7324,-7.6373 -4.03137,-18.4539 0.85059,-13.124 0.85169,-17.8907 0.007,-27.3679 -0.77555,-8.6947 0.49419,-13.9153 5.18248,-21.3079 2.93223,-4.6237 6.38388,-6.1206 5.17744,-2.2453 -0.36118,1.1601 -1.32232,5.5914 -2.13586,9.8472 -1.41637,7.4092 -1.39625,8.0738 0.47378,15.6488 2.07757,8.4156 2.05222,8.9009 -0.95762,18.3321 -2.09102,6.5522 -2.63847,16.5458 -1.27104,23.2031 0.88467,4.3071 0.0114,5.1445 -2.44414,2.3438 z"
             style="fill:#000000" />
          <path
             inkscape:connector-curvature="0"
             id="path6387"
             d="m -166.50033,1544.3964 c -0.24923,-0.6495 0.39682,-2.8481 1.43567,-4.8858 1.03885,-2.0376 1.88883,-4.4397 1.88883,-5.3379 0,-4.0506 13.79461,-13.8042 15.53674,-10.9854 0.29621,0.4793 -1.12324,2.8654 -3.15435,5.3026 -2.03111,2.4371 -4.58947,6.1996 -5.68525,8.3612 -1.75553,3.463 -7.13834,8.7262 -8.92443,8.7262 -0.35423,0 -0.84797,-0.5314 -1.09721,-1.1809 z"
             style="fill:#000000" />
        </g>
        <path
           style="fill:#faad1c;fill-opacity:1"
           d="m -245.99665,1705.4986 c 1.5332,-1.1211 1.3744,-1.6643 -2.262,-7.7344 -3.5902,-5.9932 -8.3643,-11.2489 -12.3293,-13.5731 -1.398,-0.8195 -1.5228,-0.5184 -1.0737,2.5898 1.0404,7.201 3.2444,15.7481 4.5905,17.8026 1.0855,1.6568 2.2689,2.1209 5.4076,2.1209 2.2098,0 4.76,-0.5426 5.6669,-1.2058 z"
           id="path6385"
           inkscape:connector-curvature="0" />
        <path
           style="fill:#faad1c;fill-opacity:1"
           d="m -206.50906,1696.9681 c 0,-1.0042 -5.4083,-9.3096 -6.0621,-9.3096 -0.1909,0 -0.9532,-0.2326 -1.694,-0.5169 -0.8951,-0.3435 -0.4037,1.386 1.4649,5.1563 1.9285,3.8907 3.3585,5.6731 4.55155,5.6731 0.95681,0 1.73965,-0.4513 1.73965,-1.0029 z"
           id="path6383"
           inkscape:connector-curvature="0" />
        <path
           style="fill:#faad1c;fill-opacity:1"
           d="m -81.595127,1685.7959 c 0.36419,-3.2191 2.96067,-12.8168 5.769961,-21.3281 7.27752,-22.0491 9.68191,-34.6941 6.59688,-34.6941 -0.83435,0 -1.47068,1.6466 -1.83939,4.7599 -0.94059,7.9418 -6.211401,17.7401 -9.542951,17.7401 -1.87144,0 -2.11127,-3.4775 -0.6789,-9.8438 3.0395,-13.5094 3.03794,-13.4056 0.21696,-14.389 -1.43943,-0.5017 -3.11298,-0.5391 -3.84658,-0.085 -0.71421,0.4415 -3.62252,1.0644 -6.4629,1.3844 -2.84037,0.3201 -6.559971,1.0113 -8.265761,1.5362 -2.865972,0.8818 -3.052702,1.1762 -2.459542,3.8768 0.35305,1.6075 1.13445,4.3453 1.73646,6.0841 l 1.094542,3.1616 2.595371,-4.7685 c 2.60709,-4.7901 5.45307,-6.2662 6.55332,-3.399 0.83215,2.1685 -1.67031,10.394 -4.43164,14.5666 l -2.52279,3.8123 2.30633,7.2351 c 1.26848,3.9793 2.57172,8.4531 2.8961,9.9418 l 0.58976,2.7065 3.20328,-3.4971 c 1.76179,-1.9234 3.74315,-3.3195 4.40301,-3.1025 2.30791,0.7592 1.92611,7.8779 -0.7413,13.8217 -2.39475,5.3362 -2.44197,5.7243 -0.96966,7.9714 0.85122,1.2991 1.90533,2.3621 2.34247,2.3621 0.43714,0 1.09277,-2.6338 1.45697,-5.8528 z"
           id="path6379"
           inkscape:connector-curvature="0" />
        <path
           style="fill:#faad1c;fill-opacity:1"
           d="m -236.4784,1637.3565 c 2.0635,-1.2753 0.9262,-2.1529 -2.6678,-2.0586 -2.0292,0.053 -3.9661,-0.1801 -4.3044,-0.5183 -1.1887,-1.1888 0.5239,-4.06 3.7146,-6.2274 3.0006,-2.0382 3.5683,-2.1139 8.2045,-1.0944 3.1895,0.7013 5.7939,0.787 7.2416,0.2381 1.985,-0.7527 1.2988,-1.151 -5.625,-3.2647 -11.0125,-3.3622 -16.6444,-4.0708 -17.3679,-2.1853 -0.9074,2.3644 1.1397,11.8248 3.87,17.885 l 2.5279,5.6111 1.6925,-3.8771 c 0.9309,-2.1324 2.1522,-4.1613 2.714,-4.5084 z"
           id="path6373"
           inkscape:connector-curvature="0" />
        <g
           id="g6404"
           transform="translate(-66.724439,259.70414)"
           style="fill:#faad1c;fill-opacity:1">
          <path
             id="path6381"
             d="m -262.16876,1430.127 c 1.3324,-2.6294 2.2887,-4.8457 2.1252,-4.9251 -0.1636,-0.08 -1.6303,-1.0764 -3.2593,-2.2157 l -2.9619,-2.0714 -1.6388,2.5433 c -0.9014,1.3988 -2.2053,2.8807 -2.8975,3.2931 -0.6923,0.4123 -1.2587,1.1059 -1.2587,1.5414 0,1.1922 5.291,6.6151 6.4541,6.6151 0.5579,0 2.1045,-2.1513 3.4369,-4.7807 z"
             style="fill:#faad1c;fill-opacity:1"
             inkscape:connector-curvature="0" />
          <path
             id="path6377"
             d="m -258.32356,1414.5027 c 0.594,-0.3788 1.3623,-2.5872 1.7073,-4.9075 0.6227,-4.1877 0.6032,-4.2262 -2.6468,-5.2277 -3.2691,-1.0073 -3.2751,-1.0037 -3.8488,2.3438 -0.316,1.8439 -0.8046,4.5128 -1.0857,5.9308 -0.4615,2.3277 -0.2535,2.5767 2.1414,2.5637 1.459,-0.01 3.1386,-0.3242 3.7326,-0.7031 z"
             style="fill:#faad1c;fill-opacity:1"
             inkscape:connector-curvature="0" />
          <path
             id="path6375"
             d="m -255.14446,1393.083 c 1.5219,-4.0028 1.1339,-7.8628 -0.7903,-7.8628 -0.9281,0 -2.1518,-0.4644 -2.7194,-1.0319 -1.2883,-1.2883 -1.7905,0.2942 -2.6578,8.3737 l -0.6371,5.9357 2.9537,-1.5274 c 1.6245,-0.84 3.3574,-2.5893 3.8509,-3.8873 z"
             style="fill:#faad1c;fill-opacity:1"
             inkscape:connector-curvature="0" />
          <path
             id="path6371"
             d="m -252.95816,1375.728 c 1.1393,-5.6968 0.7667,-7.1295 -1.9922,-7.6595 -1.418,-0.2724 -2.6701,-0.4054 -2.7824,-0.2957 -0.1124,0.1099 -0.4869,2.6039 -0.8322,5.5423 l -0.628,5.3426 2.8244,0 c 2.4133,0 2.9097,-0.4264 3.4104,-2.9297 z"
             style="fill:#faad1c;fill-opacity:1"
             inkscape:connector-curvature="0" />
          <path
             id="path6369"
             d="m -250.68116,1357.9129 c 0.2778,-2.3875 -1.4333,-3.5762 -5.2067,-3.6174 -1.887,-0.021 -1.4575,5.3983 0.4687,5.9132 3.0751,0.8219 4.4528,0.1543 4.738,-2.2958 z"
             style="fill:#faad1c;fill-opacity:1"
             inkscape:connector-curvature="0" />
          <path
             id="path6367"
             d="m -234.19276,1333.6577 c 0.1936,-9.5463 0.703,-13.259 2.7478,-20.0268 1.3806,-4.5694 2.5102,-9.3007 2.5102,-10.5141 0,-6.288 5.5325,-16.2915 14.8969,-26.9355 2.6349,-2.9949 4.7906,-5.9051 4.7906,-6.4671 0,-1.4641 -13.6488,-0.2754 -18.0756,1.5742 -4.7383,1.9799 -10.6765,7.4808 -13.1146,12.1491 -2.5192,4.8235 -11.1871,32.0929 -11.1952,35.2202 -0.01,3.4065 2.091,11.25 3.0118,11.25 1.0707,0 1.7039,-3.9635 1.7877,-11.1894 0.077,-6.6143 0.6818,-9.4356 2.0241,-9.4356 0.4808,0 0.8743,3.7104 0.8743,8.2455 0,8.0431 2.2298,19.1942 6.3186,31.5982 l 1.5451,4.6875 0.8203,-4.2187 c 0.4511,-2.3203 0.9272,-9.4922 1.058,-15.9375 z"
             style="fill:#faad1c;fill-opacity:1"
             inkscape:connector-curvature="0" />
          <path
             id="path6365"
             d="m -237.50126,1311.553 c -3.6813,-8.322 -0.8472,-23.4072 6.1115,-32.5307 3.1558,-4.1375 6.205,-5.6558 6.205,-3.0896 0,0.8112 -0.3542,1.475 -0.787,1.475 -1.9173,0 -4.2808,11.4511 -6.4677,31.3363 -0.8803,8.0044 -2.3925,8.8435 -5.0618,2.809 z"
             style="fill:#faad1c;fill-opacity:1"
             inkscape:connector-curvature="0" />
          <path
             id="path6359"
             d="m -249.41216,1341.7412 c 0.2944,-4.6217 0.1154,-5.1594 -2.1501,-6.4575 l -2.4713,-1.4161 -0.6148,4.6348 c -0.5432,4.095 -0.3646,4.8436 1.5337,6.4265 1.1818,0.9853 2.426,1.8054 2.765,1.8226 0.339,0.017 0.7609,-2.2375 0.9375,-5.0103 z"
             style="fill:#faad1c;fill-opacity:1"
             inkscape:connector-curvature="0" />
        </g>
        <g
           id="g6414"
           style="fill:#faad1c;fill-opacity:1"
           transform="translate(-66.802537,260.93518)">
          <path
             id="path6333"
             d="m -40.09868,1305.1732 c 0.33061,-2.0024 1.212441,-6.7349 0.977471,-6.9698 -0.235788,-0.2358 -7.729343,-3.1823 -8.138819,1.1729 l -1.053282,4.5903 c 0.26001,0.2601 -0.40627,2.4599 -1.48059,4.8886 -1.07434,2.4287 -1.95334,4.5498 -1.95334,4.7134 0,0.1637 2.48568,-0.8392 5.52373,-2.2286 5.08257,-2.3243 5.57174,-2.8169 6.12485,-6.1668 z"
             style="fill:#faad1c;fill-opacity:1"
             inkscape:connector-curvature="0"
             sodipodi:nodetypes="ccccssccc" />
          <path
             id="path6329"
             d="m -53.440256,1290.0062 7.90226,2.368 c -0.40016,1.347 0.825466,0.034 3.571306,0.034 3.86821,0 4.02609,-0.6135 1.45484,-5.6536 -1.6266,-3.1884 -2.44212,-3.7929 -5.85937,-4.3434 l -3.96979,-0.6395 2.8125,-0.8266 c 1.54688,-0.4546 3.44531,-0.9489 4.21875,-1.0985 0.77344,-0.1495 1.55958,-1.0581 1.74698,-2.0192 0.1874,-0.961 0.87442,-2.6086 1.52672,-3.6614 1.05232,-1.6983 0.83925,-2.2061 -1.89036,-4.505 l -3.07636,-2.591 -3.78528,4.3003 c -3.43177,3.8987 -7.46596,12.4873 -9.11114,19.3973 -1.01287,4.2541 0.862264,4.676 4.458944,-0.7609 z"
             style="fill:#faad1c;fill-opacity:1"
             inkscape:connector-curvature="0"
             sodipodi:nodetypes="ccssscccccscssc" />
        </g>
        <path
           style="fill:#faad1c;fill-opacity:1"
           d="m -89.078526,1510.3329 c 2.68111,-1.4465 2.94968,-1.782 1.15223,-1.4397 -2.36722,0.4509 -16.470564,2.3515 -17.645954,2.378 -0.34941,0.01 -0.003,0.4516 0.77096,0.9861 2.07646,1.4347 11.673688,0.2602 15.722764,-1.9244 z"
           id="path6327"
           inkscape:connector-curvature="0" />
        <g
           id="g5398"
           transform="translate(792.85714,271.42857)">
          <path
             sodipodi:nodetypes="cccsccccccc"
             inkscape:connector-curvature="0"
             id="path5112"
             d="m -897.32143,1280.0408 c -0.48641,3.7049 -0.97833,7.4015 -0.53571,12.5 -2.49049,14.5373 -4.09659,29.1677 2.32142,44.6428 14.46547,21.2137 34.02551,20.6767 56.99987,13.2283 15.579,-5.0507 20.51416,-14.2447 20.32156,-27.514 -0.51672,-16.7846 9.90637,-31.6653 7.85715,-50.8928 20.98156,-17.2669 9.92395,-15.2892 -3.21429,-13.3929 -4.53875,-21.4869 -48.50288,-34.8734 -71.07143,-15.8929 -10.22475,2.2618 -15.85364,-1.3854 -23.03571,-3.0357 -16.20236,-4.3009 5.99042,13.6673 10.89285,21.6072 -5.31614,4.2521 -3.7098,11.1962 -0.53571,18.75 z"
             style="fill:#faad1c;fill-opacity:1;fill-rule:evenodd;stroke:#000000;stroke-width:2;stroke-linecap:butt;stroke-linejoin:miter;stroke-miterlimit:4;stroke-dasharray:none;stroke-opacity:1" />
          <path
             sodipodi:nodetypes="ccccsccc"
             inkscape:connector-curvature="0"
             id="path5114"
             d="m -897.32143,1280.0408 c -0.94704,28.8216 14.2944,22.0285 26.07143,22.8571 24.92298,0.7767 55.35412,6.5526 57.5,-25.5357 -0.0907,6.3862 -1.20675,8.8876 -2.14286,13.75 0.17348,15.9572 -9.95102,25.7061 -11.42857,33.75 -1.52683,8.3122 -14.02735,11.1652 -26.78571,17.3214 -24.14849,1.8983 -42.36275,-1.9102 -40.89286,-43.5714 -3.55792,-6.1905 -2.24709,-12.3809 -2.32143,-18.5714 z"
             style="fill:#000000;fill-rule:evenodd;stroke:#000000;stroke-width:1px;stroke-linecap:butt;stroke-linejoin:miter;stroke-opacity:1" />
          <g
             style="stroke:#ffffff;stroke-width:0.5;stroke-miterlimit:4;stroke-dasharray:none"
             transform="translate(-202.47957,-13.218641)"
             id="g5116">
            <path
               style="fill:#ffffff;stroke:#ffffff;stroke-width:0.5;stroke-miterlimit:4;stroke-dasharray:none"
               d="m -657.52783,1347.641 c 0,-2.0886 -0.35087,-2.6484 -1.40625,-2.2434 -1.43208,0.5496 -1.91462,3.2681 -0.78125,4.4015 1.34002,1.34 2.1875,0.504 2.1875,-2.1581 z"
               id="path5055"
               inkscape:connector-curvature="0" />
            <path
               style="fill:#ffffff;stroke:#ffffff;stroke-width:0.5;stroke-miterlimit:4;stroke-dasharray:none"
               d="m -651.59899,1349.1095 c 0.57867,-1.508 -0.0986,-2.4354 -1.77858,-2.4354 -0.70067,0 -0.96751,0.7446 -0.67191,1.875 0.57029,2.1808 1.72717,2.4454 2.45049,0.5604 z"
               id="path5053"
               inkscape:connector-curvature="0" />
            <path
               style="fill:#ffffff;stroke:#ffffff;stroke-width:0.5;stroke-miterlimit:4;stroke-dasharray:none"
               d="m -668.77784,1347.1428 c 0,-1.289 -0.42188,-2.3437 -0.9375,-2.3437 -1.04735,0 -1.28503,3.09 -0.3125,4.0625 1.03345,1.0335 1.25,0.7357 1.25,-1.7188 z"
               id="path5049"
               inkscape:connector-curvature="0" />
            <path
               style="fill:#ffffff;stroke:#ffffff;stroke-width:0.5;stroke-miterlimit:4;stroke-dasharray:none"
               d="m -663.15283,1347.6116 c 0,-1.0417 -0.625,-1.875 -1.40625,-1.875 -1.42726,0 -1.92306,1.9832 -0.78125,3.125 1.18856,1.1885 2.1875,0.6177 2.1875,-1.25 z"
               id="path5047"
               inkscape:connector-curvature="0" />
            <path
               style="fill:#ffffff;stroke:#ffffff;stroke-width:0.5;stroke-miterlimit:4;stroke-dasharray:none"
               d="m -672.91372,1345.0382 c -1.02412,-1.0241 -1.72638,0.6045 -0.9911,2.2986 0.6972,1.6062 0.74774,1.6048 1.13619,-0.033 0.2236,-0.9427 0.15831,-1.9622 -0.14509,-2.2656 z"
               id="path5045"
               inkscape:connector-curvature="0" />
            <path
               style="fill:#ffffff;stroke:#ffffff;stroke-width:0.5;stroke-miterlimit:4;stroke-dasharray:none"
               d="m -645.50876,1347.3458 c 1.20757,-1.4551 -0.11528,-3.9989 -1.60177,-3.0802 -1.2311,0.7608 -1.4117,4.2835 -0.2196,4.2835 0.45249,0 1.27211,-0.5415 1.82137,-1.2033 z"
               id="path5043"
               inkscape:connector-curvature="0" />
            <path
               style="fill:#ffffff;stroke:#ffffff;stroke-width:0.5;stroke-miterlimit:4;stroke-dasharray:none"
               d="m -676.27784,1343.8286 c 0,-1.565 -0.71093,-3.9305 -1.57983,-5.2566 -1.48655,-2.2687 -1.65259,-2.3116 -2.8125,-0.7253 -1.74949,2.3926 -1.53483,4.1661 0.80575,6.6575 2.72199,2.8975 3.58658,2.7346 3.58658,-0.6756 z"
               id="path5041"
               inkscape:connector-curvature="0" />
            <path
               style="fill:#ffffff;stroke:#ffffff;stroke-width:0.5;stroke-miterlimit:4;stroke-dasharray:none"
               d="m -637.42069,1342.0409 c 2.26528,-2.5032 0.8604,-6.6589 -2.64621,-7.8278 -1.41797,-0.4726 -2.77145,-0.666 -3.00773,-0.4297 -0.89018,0.8901 1.6834,10.0782 2.82293,10.0782 0.65079,0 1.92475,-0.8194 2.83101,-1.8207 z"
               id="path5039"
               inkscape:connector-curvature="0" />
            <path
               style="fill:#ffffff;stroke:#ffffff;stroke-width:0.5;stroke-miterlimit:4;stroke-dasharray:none"
               d="m -675.98272,1326.4861 c 2.63927,-5.5347 2.18512,-6.9995 -2.17012,-6.9995 -3.67388,0 -3.75,0.068 -3.75,3.3428 0,3.8534 1.40423,6.9697 3.1406,6.9697 0.65979,0 1.91057,-1.4909 2.77952,-3.313 z"
               id="path5037"
               inkscape:connector-curvature="0" />
            <path
               style="fill:#ffffff;stroke:#ffffff;stroke-width:0.5;stroke-miterlimit:4;stroke-dasharray:none"
               d="m -638.77784,1327.1038 c 0,-0.4511 0.26367,-2.1386 0.58594,-3.75 l 0.58593,-2.9297 -4.33593,0 c -2.38477,0 -4.33594,0.2318 -4.33594,0.5153 0,1.2861 2.89387,5.9264 3.96465,6.3572 1.92918,0.7763 3.53535,0.6886 3.53535,-0.1928 z"
               id="path5035"
               inkscape:connector-curvature="0" />
            <path
               style="fill:#ffffff;stroke:#ffffff;stroke-width:0.5;stroke-miterlimit:4;stroke-dasharray:none"
               d="m -668.99269,1319.6624 c 0.20729,-0.6219 -0.49101,-1.1133 -1.58203,-1.1133 -1.94749,0 -2.53118,0.9845 -1.30859,2.2071 0.86857,0.8685 2.43396,0.2761 2.89062,-1.0938 z"
               id="path5033"
               inkscape:connector-curvature="0" />
            <path
               sodipodi:nodetypes="sssss"
               style="fill:#ffffff;stroke:#ffffff;stroke-width:0.5;stroke-miterlimit:4;stroke-dasharray:none"
               d="m -664.77529,1319.9237 c 0,-0.7734 -0.67442,-1.3746 -1.19004,-1.3746 -0.51563,0 -1.15848,0.8222 -1.15848,1.5956 0,0.7735 0.42188,1.4063 0.93751,1.4063 0.51562,0 1.41101,-0.8538 1.41101,-1.6273 z"
               id="path5031"
               inkscape:connector-curvature="0" />
            <path
               sodipodi:nodetypes="cssc"
               style="fill:#ffffff;stroke:#ffffff;stroke-width:0.5;stroke-miterlimit:4;stroke-dasharray:none"
               d="m -658.69926,1320.1897 c -0.59066,-1.7739 -3.51607,-2.0261 -3.51607,-0.3031 0,0.8696 0.17021,2.0432 1.32177,2.0432 1.14561,0 2.42316,-1.0527 2.1943,-1.7401 z"
               id="path5029"
               inkscape:connector-curvature="0" />
            <path
               sodipodi:nodetypes="sssss"
               style="fill:#ffffff;stroke:#ffffff;stroke-width:0.5;stroke-miterlimit:4;stroke-dasharray:none"
               d="m -653.02023,1320.6135 c 0,-0.5156 -1.17949,-1.1269 -1.69511,-1.1269 -0.51563,0 -0.9375,0.4219 -0.9375,0.9375 0,0.5156 0.35874,1.3794 0.87437,1.3794 0.51562,0 1.75824,-0.6744 1.75824,-1.19 z"
               id="path5027"
               inkscape:connector-curvature="0" />
          </g>
          <path
             sodipodi:nodetypes="ccccccc"
             inkscape:connector-curvature="0"
             id="path5132"
             d="m -869.10714,1271.8265 c 3.45282,2.8888 5.66515,1.101 9.31317,1.2947 1.73495,-1.0786 5.11197,-1.1213 7.31602,0.068 2.13811,0.04 7.02708,-1.2596 10.15652,1.1825 -6.34138,2.3555 -12.04042,10.1101 -16.29371,8.9304 -2.86991,-0.5178 -13.22461,-7.0329 -10.492,-11.4751 z"
             style="fill:#000000;fill-rule:evenodd;stroke:none;stroke-width:0.30000001;stroke-linecap:butt;stroke-linejoin:miter;stroke-miterlimit:4;stroke-dasharray:none;stroke-opacity:1" />
          <path
             sodipodi:nodetypes="cscsc"
             inkscape:connector-curvature="0"
             id="path5134"
             d="m -860.39738,1252.8365 c 5e-5,1.4283 -2.65803,3.8713 -7.52217,3.8713 -4.86414,0 -8.80728,-1.158 -8.80723,-2.5863 -5e-5,-1.4283 5.12932,-3.6736 9.99346,-3.6736 4.86413,0 6.33599,0.9602 6.33594,2.3886 z"
             style="opacity:0.97000002;fill:#000000;fill-opacity:1;stroke:none;stroke-width:0.30000001;stroke-miterlimit:4;stroke-dasharray:none" />
          <path
             style="opacity:0.97000002;fill:#ffffff;fill-opacity:1;stroke:none;stroke-width:0.19733943;stroke-miterlimit:4;stroke-dasharray:none"
             d="m -863.55323,1253.8622 c 3e-5,1.0708 -1.53409,2.9025 -4.34146,2.9025 -2.80735,0 -5.08317,-0.8682 -5.08313,-1.939 -4e-5,-1.0709 2.96041,-2.7542 5.76777,-2.7542 2.80735,0 3.65685,0.72 3.65682,1.7907 z"
             id="path5137"
             inkscape:connector-curvature="0"
             sodipodi:nodetypes="cscsc" />
          <path
             transform="matrix(1.1071392,0,0,1.1071392,91.00655,-132.11306)"
             clip-path="url(#clipPath5143)"
             sodipodi:nodetypes="cscsc"
             inkscape:connector-curvature="0"
             id="path5139"
             d="m -865.02287,1254.0464 c 10e-6,0.3961 -0.38938,1.0734 -1.10193,1.0734 -0.71257,0 -1.29021,-0.321 -1.2902,-0.7169 -1e-5,-0.396 0.7514,-1.0184 1.46397,-1.0184 0.71256,0 0.92817,0.2661 0.92816,0.6619 z"
             style="opacity:0.97000002;fill:#000000;fill-opacity:1;stroke:none;stroke-width:0.06693565;stroke-miterlimit:4;stroke-dasharray:none" />
          <path
             style="opacity:0.97000002;fill:#000000;fill-opacity:1;stroke:none;stroke-width:0.30000001;stroke-miterlimit:4;stroke-dasharray:none"
             d="m -830.97096,1259.2054 c -0.52084,1.4717 -4.18182,2.844 -9.25079,0.7496 -5.069,-2.0945 -8.75592,-4.9853 -8.23498,-6.457 0.52087,-1.4714 6.6851,-1.576 11.75408,0.5181 5.06899,2.0945 6.25262,3.7176 5.7317,5.189 z"
             id="path5147"
             inkscape:connector-curvature="0"
             sodipodi:nodetypes="cscsc" />
          <path
             sodipodi:nodetypes="cscsc"
             inkscape:connector-curvature="0"
             id="path5149"
             d="m -834.63379,1258.9034 c -0.3905,1.1032 -2.65723,2.3297 -5.58284,1.121 -2.92557,-1.2091 -4.9806,-3.0834 -4.59003,-4.1868 0.39048,-1.1032 4.08949,-1.5625 7.01508,-0.3536 2.92559,1.2086 3.5483,2.3164 3.15779,3.4194 z"
             style="opacity:0.97000002;fill:#ffffff;fill-opacity:1;stroke:none;stroke-width:0.19733943;stroke-miterlimit:4;stroke-dasharray:none" />
          <path
             transform="matrix(1.1537666,0.47672702,-0.40376644,1.1406438,665.58353,242.01273)"
             style="opacity:0.97000002;fill:#000000;fill-opacity:1;stroke:none;stroke-width:0.06693565;stroke-miterlimit:4;stroke-dasharray:none"
             d="m -865.02287,1254.0464 c 10e-6,0.3961 -0.38938,1.0734 -1.10193,1.0734 -0.71257,0 -1.29021,-0.321 -1.2902,-0.7169 -1e-5,-0.396 0.7514,-1.0184 1.46397,-1.0184 0.71256,0 0.92817,0.2661 0.92816,0.6619 z"
             id="path5151"
             inkscape:connector-curvature="0"
             sodipodi:nodetypes="cscsc"
             clip-path="url(#clipPath5143)" />
          <path
             sodipodi:nodetypes="ccc"
             inkscape:connector-curvature="0"
             id="path5153"
             d="m -858.60319,1255.3682 c -3.26762,3.1815 -6.83854,5.021 -12.08771,3.2284 1.81834,3.151 11.00711,2.0855 12.08771,-3.2284 z"
             style="color:#000000;font-style:normal;font-variant:normal;font-weight:normal;font-stretch:normal;font-size:medium;line-height:normal;font-family:sans-serif;text-indent:0;text-align:start;text-decoration:none;text-decoration-line:none;text-decoration-style:solid;text-decoration-color:#000000;letter-spacing:normal;word-spacing:normal;text-transform:none;direction:ltr;block-progression:tb;writing-mode:lr-tb;baseline-shift:baseline;text-anchor:start;white-space:normal;clip-rule:nonzero;display:inline;overflow:visible;visibility:visible;opacity:1;isolation:auto;mix-blend-mode:normal;color-interpolation:sRGB;color-interpolation-filters:linearRGB;solid-color:#000000;solid-opacity:1;fill:#000000;fill-opacity:1;fill-rule:evenodd;stroke:none;stroke-width:1px;stroke-linecap:butt;stroke-linejoin:miter;stroke-miterlimit:4;stroke-dasharray:none;stroke-dashoffset:0;stroke-opacity:1;color-rendering:auto;image-rendering:auto;shape-rendering:auto;text-rendering:auto;enable-background:accumulate" />
          <path
             sodipodi:nodetypes="cccsccsc"
             inkscape:connector-curvature="0"
             id="path5157"
             d="m -850.05097,1243.5356 -1.55105,1.0994 c 0.8453,1.4574 2.95168,1.8505 4.83415,2.24 1.88248,0.3893 4.19826,0.2495 6.46923,0.4448 4.54195,0.3906 9.20117,1.1236 11.75254,4.7789 -2.4843,-5.5805 -9.41108,-6.1757 -11.55853,-6.3759 -2.29621,-0.1976 -4.5147,-0.089 -6.26536,-0.4502 -1.75066,-0.3622 -3.06859,-0.6811 -3.68098,-1.737 z"
             style="color:#000000;font-style:normal;font-variant:normal;font-weight:normal;font-stretch:normal;font-size:medium;line-height:normal;font-family:sans-serif;text-indent:0;text-align:start;text-decoration:none;text-decoration-line:none;text-decoration-style:solid;text-decoration-color:#000000;letter-spacing:normal;word-spacing:normal;text-transform:none;direction:ltr;block-progression:tb;writing-mode:lr-tb;baseline-shift:baseline;text-anchor:start;white-space:normal;clip-rule:nonzero;display:inline;overflow:visible;visibility:visible;opacity:1;isolation:auto;mix-blend-mode:normal;color-interpolation:sRGB;color-interpolation-filters:linearRGB;solid-color:#000000;solid-opacity:1;fill:#000000;fill-opacity:1;fill-rule:evenodd;stroke:none;stroke-width:1px;stroke-linecap:butt;stroke-linejoin:miter;stroke-miterlimit:4;stroke-dasharray:none;stroke-dashoffset:0;stroke-opacity:1;color-rendering:auto;image-rendering:auto;shape-rendering:auto;text-rendering:auto;enable-background:accumulate" />
          <path
             sodipodi:nodetypes="ccccc"
             inkscape:connector-curvature="0"
             id="path5159"
             d="m -858.69618,1243.9249 c -3.95365,0.9789 -7.56021,0.7962 -11.47575,0.7503 -3.91556,-0.045 -7.08168,1.1731 -10.04242,5.0364 6.51166,-5.9666 15.9873,-1.2469 21.76778,-3.3199 z"
             style="color:#000000;font-style:normal;font-variant:normal;font-weight:normal;font-stretch:normal;font-size:medium;line-height:normal;font-family:sans-serif;text-indent:0;text-align:start;text-decoration:none;text-decoration-line:none;text-decoration-style:solid;text-decoration-color:#000000;letter-spacing:normal;word-spacing:normal;text-transform:none;direction:ltr;block-progression:tb;writing-mode:lr-tb;baseline-shift:baseline;text-anchor:start;white-space:normal;clip-rule:nonzero;display:inline;overflow:visible;visibility:visible;opacity:1;isolation:auto;mix-blend-mode:normal;color-interpolation:sRGB;color-interpolation-filters:linearRGB;solid-color:#000000;solid-opacity:1;fill:#000000;fill-opacity:1;fill-rule:evenodd;stroke:none;stroke-width:1px;stroke-linecap:butt;stroke-linejoin:miter;stroke-miterlimit:4;stroke-dasharray:none;stroke-dashoffset:0;stroke-opacity:1;color-rendering:auto;image-rendering:auto;shape-rendering:auto;text-rendering:auto;enable-background:accumulate" />
          <path
             style="color:#000000;font-style:normal;font-variant:normal;font-weight:normal;font-stretch:normal;font-size:medium;line-height:normal;font-family:sans-serif;text-indent:0;text-align:start;text-decoration:none;text-decoration-line:none;text-decoration-style:solid;text-decoration-color:#000000;letter-spacing:normal;word-spacing:normal;text-transform:none;direction:ltr;block-progression:tb;writing-mode:lr-tb;baseline-shift:baseline;text-anchor:start;white-space:normal;clip-rule:nonzero;display:inline;overflow:visible;visibility:visible;opacity:1;isolation:auto;mix-blend-mode:normal;color-interpolation:sRGB;color-interpolation-filters:linearRGB;solid-color:#000000;solid-opacity:1;fill:#000000;fill-opacity:1;fill-rule:evenodd;stroke:none;stroke-width:1px;stroke-linecap:butt;stroke-linejoin:miter;stroke-miterlimit:4;stroke-dasharray:none;stroke-dashoffset:0;stroke-opacity:1;color-rendering:auto;image-rendering:auto;shape-rendering:auto;text-rendering:auto;enable-background:accumulate"
             d="m -858.60319,1255.3682 c -3.26762,3.1815 -6.83854,5.021 -12.08771,3.2284 1.81834,3.151 11.00711,2.0855 12.08771,-3.2284 z"
             id="path5169"
             inkscape:connector-curvature="0"
             sodipodi:nodetypes="ccc" />
          <path
             sodipodi:nodetypes="ccc"
             inkscape:connector-curvature="0"
             id="path5180"
             d="m -847.45455,1260.1796 c 2.26875,3.0083 4.71183,4.674 8.20352,2.6692 -1.15355,3.2003 -7.35889,2.5465 -8.20352,-2.6692 z"
             style="color:#000000;font-style:normal;font-variant:normal;font-weight:normal;font-stretch:normal;font-size:medium;line-height:normal;font-family:sans-serif;text-indent:0;text-align:start;text-decoration:none;text-decoration-line:none;text-decoration-style:solid;text-decoration-color:#000000;letter-spacing:normal;word-spacing:normal;text-transform:none;direction:ltr;block-progression:tb;writing-mode:lr-tb;baseline-shift:baseline;text-anchor:start;white-space:normal;clip-rule:nonzero;display:inline;overflow:visible;visibility:visible;opacity:1;isolation:auto;mix-blend-mode:normal;color-interpolation:sRGB;color-interpolation-filters:linearRGB;solid-color:#000000;solid-opacity:1;fill:#000000;fill-opacity:1;fill-rule:evenodd;stroke:none;stroke-width:1px;stroke-linecap:butt;stroke-linejoin:miter;stroke-miterlimit:4;stroke-dasharray:none;stroke-dashoffset:0;stroke-opacity:1;color-rendering:auto;image-rendering:auto;shape-rendering:auto;text-rendering:auto;enable-background:accumulate" />
          <g
             id="g5213">
            <g
               id="g5197"
               style="fill:#ffffff">
              <path
                 sodipodi:nodetypes="ccc"
                 inkscape:connector-curvature="0"
                 id="path5182"
                 d="m -793.54826,1295.3555 c -13.98592,-6.1444 -44.11959,-4.283 -52.78684,-0.03 6.24423,-2.7145 46.85447,-2.8972 52.78684,0.03 z"
                 style="color:#000000;font-style:normal;font-variant:normal;font-weight:normal;font-stretch:normal;font-size:medium;line-height:normal;font-family:sans-serif;text-indent:0;text-align:start;text-decoration:none;text-decoration-line:none;text-decoration-style:solid;text-decoration-color:#000000;letter-spacing:normal;word-spacing:normal;text-transform:none;direction:ltr;block-progression:tb;writing-mode:lr-tb;baseline-shift:baseline;text-anchor:start;white-space:normal;clip-rule:nonzero;display:inline;overflow:visible;visibility:visible;opacity:1;isolation:auto;mix-blend-mode:normal;color-interpolation:sRGB;color-interpolation-filters:linearRGB;solid-color:#000000;solid-opacity:1;fill:#ffffff;fill-opacity:1;fill-rule:evenodd;stroke:none;stroke-width:1px;stroke-linecap:butt;stroke-linejoin:miter;stroke-miterlimit:4;stroke-dasharray:none;stroke-dashoffset:0;stroke-opacity:1;color-rendering:auto;image-rendering:auto;shape-rendering:auto;text-rendering:auto;enable-background:accumulate" />
              <path
                 style="color:#000000;font-style:normal;font-variant:normal;font-weight:normal;font-stretch:normal;font-size:medium;line-height:normal;font-family:sans-serif;text-indent:0;text-align:start;text-decoration:none;text-decoration-line:none;text-decoration-style:solid;text-decoration-color:#000000;letter-spacing:normal;word-spacing:normal;text-transform:none;direction:ltr;block-progression:tb;writing-mode:lr-tb;baseline-shift:baseline;text-anchor:start;white-space:normal;clip-rule:nonzero;display:inline;overflow:visible;visibility:visible;opacity:1;isolation:auto;mix-blend-mode:normal;color-interpolation:sRGB;color-interpolation-filters:linearRGB;solid-color:#000000;solid-opacity:1;fill:#ffffff;fill-opacity:1;fill-rule:evenodd;stroke:none;stroke-width:1px;stroke-linecap:butt;stroke-linejoin:miter;stroke-miterlimit:4;stroke-dasharray:none;stroke-dashoffset:0;stroke-opacity:1;color-rendering:auto;image-rendering:auto;shape-rendering:auto;text-rendering:auto;enable-background:accumulate"
                 d="m -785.72822,1279.4256 c -17.55375,-2.9318 -51.35112,5.523 -60.08158,11.5916 6.3829,-4.0301 52.55033,-13.1491 60.08158,-11.5916 z"
                 id="path5186"
                 inkscape:connector-curvature="0"
                 sodipodi:nodetypes="ccc" />
              <path
                 sodipodi:nodetypes="ccc"
                 inkscape:connector-curvature="0"
                 id="path5188"
                 d="m -791.24523,1270.5649 c -16.06669,-1.6467 -45.33823,9.1392 -52.44153,15.7705 5.24122,-4.4456 45.51295,-16.7736 52.44153,-15.7705 z"
                 style="color:#000000;font-style:normal;font-variant:normal;font-weight:normal;font-stretch:normal;font-size:medium;line-height:normal;font-family:sans-serif;text-indent:0;text-align:start;text-decoration:none;text-decoration-line:none;text-decoration-style:solid;text-decoration-color:#000000;letter-spacing:normal;word-spacing:normal;text-transform:none;direction:ltr;block-progression:tb;writing-mode:lr-tb;baseline-shift:baseline;text-anchor:start;white-space:normal;clip-rule:nonzero;display:inline;overflow:visible;visibility:visible;opacity:1;isolation:auto;mix-blend-mode:normal;color-interpolation:sRGB;color-interpolation-filters:linearRGB;solid-color:#000000;solid-opacity:1;fill:#ffffff;fill-opacity:1;fill-rule:evenodd;stroke:none;stroke-width:1px;stroke-linecap:butt;stroke-linejoin:miter;stroke-miterlimit:4;stroke-dasharray:none;stroke-dashoffset:0;stroke-opacity:1;color-rendering:auto;image-rendering:auto;shape-rendering:auto;text-rendering:auto;enable-background:accumulate" />
              <path
                 style="color:#000000;font-style:normal;font-variant:normal;font-weight:normal;font-stretch:normal;font-size:medium;line-height:normal;font-family:sans-serif;text-indent:0;text-align:start;text-decoration:none;text-decoration-line:none;text-decoration-style:solid;text-decoration-color:#000000;letter-spacing:normal;word-spacing:normal;text-transform:none;direction:ltr;block-progression:tb;writing-mode:lr-tb;baseline-shift:baseline;text-anchor:start;white-space:normal;clip-rule:nonzero;display:inline;overflow:visible;visibility:visible;opacity:1;isolation:auto;mix-blend-mode:normal;color-interpolation:sRGB;color-interpolation-filters:linearRGB;solid-color:#000000;solid-opacity:1;fill:#ffffff;fill-opacity:1;fill-rule:evenodd;stroke:none;stroke-width:1px;stroke-linecap:butt;stroke-linejoin:miter;stroke-miterlimit:4;stroke-dasharray:none;stroke-dashoffset:0;stroke-opacity:1;color-rendering:auto;image-rendering:auto;shape-rendering:auto;text-rendering:auto;enable-background:accumulate"
                 d="m -814.65807,1267.7372 c -10.46836,0.073 -25.44303,8.7345 -27.88379,13.3198 1.93398,-3.1064 23.28254,-13.4692 27.88379,-13.3198 z"
                 id="path5190"
                 inkscape:connector-curvature="0"
                 sodipodi:nodetypes="ccc" />
            </g>
            <g
               style="fill:#000000"
               id="g5203"
               transform="translate(0.12626906,-0.37880717)">
              <path
                 style="color:#000000;font-style:normal;font-variant:normal;font-weight:normal;font-stretch:normal;font-size:medium;line-height:normal;font-family:sans-serif;text-indent:0;text-align:start;text-decoration:none;text-decoration-line:none;text-decoration-style:solid;text-decoration-color:#000000;letter-spacing:normal;word-spacing:normal;text-transform:none;direction:ltr;block-progression:tb;writing-mode:lr-tb;baseline-shift:baseline;text-anchor:start;white-space:normal;clip-rule:nonzero;display:inline;overflow:visible;visibility:visible;opacity:1;isolation:auto;mix-blend-mode:normal;color-interpolation:sRGB;color-interpolation-filters:linearRGB;solid-color:#000000;solid-opacity:1;fill:#000000;fill-opacity:1;fill-rule:evenodd;stroke:none;stroke-width:1px;stroke-linecap:butt;stroke-linejoin:miter;stroke-miterlimit:4;stroke-dasharray:none;stroke-dashoffset:0;stroke-opacity:1;color-rendering:auto;image-rendering:auto;shape-rendering:auto;text-rendering:auto;enable-background:accumulate"
                 d="m -793.54826,1295.3555 c -13.98592,-6.1444 -44.11959,-4.283 -52.78684,-0.03 6.24423,-2.7145 46.85447,-2.8972 52.78684,0.03 z"
                 id="path5205"
                 inkscape:connector-curvature="0"
                 sodipodi:nodetypes="ccc" />
              <path
                 sodipodi:nodetypes="ccc"
                 inkscape:connector-curvature="0"
                 id="path5207"
                 d="m -785.72822,1279.4256 c -17.55375,-2.9318 -51.35112,5.523 -60.08158,11.5916 6.3829,-4.0301 52.55033,-13.1491 60.08158,-11.5916 z"
                 style="color:#000000;font-style:normal;font-variant:normal;font-weight:normal;font-stretch:normal;font-size:medium;line-height:normal;font-family:sans-serif;text-indent:0;text-align:start;text-decoration:none;text-decoration-line:none;text-decoration-style:solid;text-decoration-color:#000000;letter-spacing:normal;word-spacing:normal;text-transform:none;direction:ltr;block-progression:tb;writing-mode:lr-tb;baseline-shift:baseline;text-anchor:start;white-space:normal;clip-rule:nonzero;display:inline;overflow:visible;visibility:visible;opacity:1;isolation:auto;mix-blend-mode:normal;color-interpolation:sRGB;color-interpolation-filters:linearRGB;solid-color:#000000;solid-opacity:1;fill:#000000;fill-opacity:1;fill-rule:evenodd;stroke:none;stroke-width:1px;stroke-linecap:butt;stroke-linejoin:miter;stroke-miterlimit:4;stroke-dasharray:none;stroke-dashoffset:0;stroke-opacity:1;color-rendering:auto;image-rendering:auto;shape-rendering:auto;text-rendering:auto;enable-background:accumulate" />
              <path
                 style="color:#000000;font-style:normal;font-variant:normal;font-weight:normal;font-stretch:normal;font-size:medium;line-height:normal;font-family:sans-serif;text-indent:0;text-align:start;text-decoration:none;text-decoration-line:none;text-decoration-style:solid;text-decoration-color:#000000;letter-spacing:normal;word-spacing:normal;text-transform:none;direction:ltr;block-progression:tb;writing-mode:lr-tb;baseline-shift:baseline;text-anchor:start;white-space:normal;clip-rule:nonzero;display:inline;overflow:visible;visibility:visible;opacity:1;isolation:auto;mix-blend-mode:normal;color-interpolation:sRGB;color-interpolation-filters:linearRGB;solid-color:#000000;solid-opacity:1;fill:#000000;fill-opacity:1;fill-rule:evenodd;stroke:none;stroke-width:1px;stroke-linecap:butt;stroke-linejoin:miter;stroke-miterlimit:4;stroke-dasharray:none;stroke-dashoffset:0;stroke-opacity:1;color-rendering:auto;image-rendering:auto;shape-rendering:auto;text-rendering:auto;enable-background:accumulate"
                 d="m -791.24523,1270.5649 c -16.06669,-1.6467 -45.33823,9.1392 -52.44153,15.7705 5.24122,-4.4456 45.51295,-16.7736 52.44153,-15.7705 z"
                 id="path5209"
                 inkscape:connector-curvature="0"
                 sodipodi:nodetypes="ccc" />
              <path
                 sodipodi:nodetypes="ccc"
                 inkscape:connector-curvature="0"
                 id="path5211"
                 d="m -814.65807,1267.7372 c -10.46836,0.073 -25.44303,8.7345 -27.88379,13.3198 1.93398,-3.1064 23.28254,-13.4692 27.88379,-13.3198 z"
                 style="color:#000000;font-style:normal;font-variant:normal;font-weight:normal;font-stretch:normal;font-size:medium;line-height:normal;font-family:sans-serif;text-indent:0;text-align:start;text-decoration:none;text-decoration-line:none;text-decoration-style:solid;text-decoration-color:#000000;letter-spacing:normal;word-spacing:normal;text-transform:none;direction:ltr;block-progression:tb;writing-mode:lr-tb;baseline-shift:baseline;text-anchor:start;white-space:normal;clip-rule:nonzero;display:inline;overflow:visible;visibility:visible;opacity:1;isolation:auto;mix-blend-mode:normal;color-interpolation:sRGB;color-interpolation-filters:linearRGB;solid-color:#000000;solid-opacity:1;fill:#000000;fill-opacity:1;fill-rule:evenodd;stroke:none;stroke-width:1px;stroke-linecap:butt;stroke-linejoin:miter;stroke-miterlimit:4;stroke-dasharray:none;stroke-dashoffset:0;stroke-opacity:1;color-rendering:auto;image-rendering:auto;shape-rendering:auto;text-rendering:auto;enable-background:accumulate" />
            </g>
          </g>
          <g
             transform="matrix(-1.0792484,0.21249595,0.19318359,0.98116263,-2031.8142,203.42897)"
             id="g5225">
            <g
               style="fill:#ffffff"
               id="g5227">
              <path
                 style="color:#000000;font-style:normal;font-variant:normal;font-weight:normal;font-stretch:normal;font-size:medium;line-height:normal;font-family:sans-serif;text-indent:0;text-align:start;text-decoration:none;text-decoration-line:none;text-decoration-style:solid;text-decoration-color:#000000;letter-spacing:normal;word-spacing:normal;text-transform:none;direction:ltr;block-progression:tb;writing-mode:lr-tb;baseline-shift:baseline;text-anchor:start;white-space:normal;clip-rule:nonzero;display:inline;overflow:visible;visibility:visible;opacity:1;isolation:auto;mix-blend-mode:normal;color-interpolation:sRGB;color-interpolation-filters:linearRGB;solid-color:#000000;solid-opacity:1;fill:#ffffff;fill-opacity:1;fill-rule:evenodd;stroke:none;stroke-width:1px;stroke-linecap:butt;stroke-linejoin:miter;stroke-miterlimit:4;stroke-dasharray:none;stroke-dashoffset:0;stroke-opacity:1;color-rendering:auto;image-rendering:auto;shape-rendering:auto;text-rendering:auto;enable-background:accumulate"
                 d="m -793.54826,1295.3555 c -13.98592,-6.1444 -44.11959,-4.283 -52.78684,-0.03 6.24423,-2.7145 46.85447,-2.8972 52.78684,0.03 z"
                 id="path5229"
                 inkscape:connector-curvature="0"
                 sodipodi:nodetypes="ccc" />
              <path
                 sodipodi:nodetypes="ccc"
                 inkscape:connector-curvature="0"
                 id="path5231"
                 d="m -785.72822,1279.4256 c -17.55375,-2.9318 -51.35112,5.523 -60.08158,11.5916 6.3829,-4.0301 52.55033,-13.1491 60.08158,-11.5916 z"
                 style="color:#000000;font-style:normal;font-variant:normal;font-weight:normal;font-stretch:normal;font-size:medium;line-height:normal;font-family:sans-serif;text-indent:0;text-align:start;text-decoration:none;text-decoration-line:none;text-decoration-style:solid;text-decoration-color:#000000;letter-spacing:normal;word-spacing:normal;text-transform:none;direction:ltr;block-progression:tb;writing-mode:lr-tb;baseline-shift:baseline;text-anchor:start;white-space:normal;clip-rule:nonzero;display:inline;overflow:visible;visibility:visible;opacity:1;isolation:auto;mix-blend-mode:normal;color-interpolation:sRGB;color-interpolation-filters:linearRGB;solid-color:#000000;solid-opacity:1;fill:#ffffff;fill-opacity:1;fill-rule:evenodd;stroke:none;stroke-width:1px;stroke-linecap:butt;stroke-linejoin:miter;stroke-miterlimit:4;stroke-dasharray:none;stroke-dashoffset:0;stroke-opacity:1;color-rendering:auto;image-rendering:auto;shape-rendering:auto;text-rendering:auto;enable-background:accumulate" />
              <path
                 style="color:#000000;font-style:normal;font-variant:normal;font-weight:normal;font-stretch:normal;font-size:medium;line-height:normal;font-family:sans-serif;text-indent:0;text-align:start;text-decoration:none;text-decoration-line:none;text-decoration-style:solid;text-decoration-color:#000000;letter-spacing:normal;word-spacing:normal;text-transform:none;direction:ltr;block-progression:tb;writing-mode:lr-tb;baseline-shift:baseline;text-anchor:start;white-space:normal;clip-rule:nonzero;display:inline;overflow:visible;visibility:visible;opacity:1;isolation:auto;mix-blend-mode:normal;color-interpolation:sRGB;color-interpolation-filters:linearRGB;solid-color:#000000;solid-opacity:1;fill:#ffffff;fill-opacity:1;fill-rule:evenodd;stroke:none;stroke-width:1px;stroke-linecap:butt;stroke-linejoin:miter;stroke-miterlimit:4;stroke-dasharray:none;stroke-dashoffset:0;stroke-opacity:1;color-rendering:auto;image-rendering:auto;shape-rendering:auto;text-rendering:auto;enable-background:accumulate"
                 d="m -791.24523,1270.5649 c -16.06669,-1.6467 -45.33823,9.1392 -52.44153,15.7705 5.24122,-4.4456 45.51295,-16.7736 52.44153,-15.7705 z"
                 id="path5233"
                 inkscape:connector-curvature="0"
                 sodipodi:nodetypes="ccc" />
              <path
                 sodipodi:nodetypes="ccc"
                 inkscape:connector-curvature="0"
                 id="path5235"
                 d="m -814.65807,1267.7372 c -10.46836,0.073 -25.44303,8.7345 -27.88379,13.3198 1.93398,-3.1064 23.28254,-13.4692 27.88379,-13.3198 z"
                 style="color:#000000;font-style:normal;font-variant:normal;font-weight:normal;font-stretch:normal;font-size:medium;line-height:normal;font-family:sans-serif;text-indent:0;text-align:start;text-decoration:none;text-decoration-line:none;text-decoration-style:solid;text-decoration-color:#000000;letter-spacing:normal;word-spacing:normal;text-transform:none;direction:ltr;block-progression:tb;writing-mode:lr-tb;baseline-shift:baseline;text-anchor:start;white-space:normal;clip-rule:nonzero;display:inline;overflow:visible;visibility:visible;opacity:1;isolation:auto;mix-blend-mode:normal;color-interpolation:sRGB;color-interpolation-filters:linearRGB;solid-color:#000000;solid-opacity:1;fill:#ffffff;fill-opacity:1;fill-rule:evenodd;stroke:none;stroke-width:1px;stroke-linecap:butt;stroke-linejoin:miter;stroke-miterlimit:4;stroke-dasharray:none;stroke-dashoffset:0;stroke-opacity:1;color-rendering:auto;image-rendering:auto;shape-rendering:auto;text-rendering:auto;enable-background:accumulate" />
            </g>
            <g
               transform="translate(0.12626906,-0.37880717)"
               id="g5237"
               style="fill:#000000">
              <path
                 sodipodi:nodetypes="ccc"
                 inkscape:connector-curvature="0"
                 id="path5239"
                 d="m -793.54826,1295.3555 c -13.98592,-6.1444 -44.11959,-4.283 -52.78684,-0.03 6.24423,-2.7145 46.85447,-2.8972 52.78684,0.03 z"
                 style="color:#000000;font-style:normal;font-variant:normal;font-weight:normal;font-stretch:normal;font-size:medium;line-height:normal;font-family:sans-serif;text-indent:0;text-align:start;text-decoration:none;text-decoration-line:none;text-decoration-style:solid;text-decoration-color:#000000;letter-spacing:normal;word-spacing:normal;text-transform:none;direction:ltr;block-progression:tb;writing-mode:lr-tb;baseline-shift:baseline;text-anchor:start;white-space:normal;clip-rule:nonzero;display:inline;overflow:visible;visibility:visible;opacity:1;isolation:auto;mix-blend-mode:normal;color-interpolation:sRGB;color-interpolation-filters:linearRGB;solid-color:#000000;solid-opacity:1;fill:#000000;fill-opacity:1;fill-rule:evenodd;stroke:none;stroke-width:1px;stroke-linecap:butt;stroke-linejoin:miter;stroke-miterlimit:4;stroke-dasharray:none;stroke-dashoffset:0;stroke-opacity:1;color-rendering:auto;image-rendering:auto;shape-rendering:auto;text-rendering:auto;enable-background:accumulate" />
              <path
                 style="color:#000000;font-style:normal;font-variant:normal;font-weight:normal;font-stretch:normal;font-size:medium;line-height:normal;font-family:sans-serif;text-indent:0;text-align:start;text-decoration:none;text-decoration-line:none;text-decoration-style:solid;text-decoration-color:#000000;letter-spacing:normal;word-spacing:normal;text-transform:none;direction:ltr;block-progression:tb;writing-mode:lr-tb;baseline-shift:baseline;text-anchor:start;white-space:normal;clip-rule:nonzero;display:inline;overflow:visible;visibility:visible;opacity:1;isolation:auto;mix-blend-mode:normal;color-interpolation:sRGB;color-interpolation-filters:linearRGB;solid-color:#000000;solid-opacity:1;fill:#000000;fill-opacity:1;fill-rule:evenodd;stroke:none;stroke-width:1px;stroke-linecap:butt;stroke-linejoin:miter;stroke-miterlimit:4;stroke-dasharray:none;stroke-dashoffset:0;stroke-opacity:1;color-rendering:auto;image-rendering:auto;shape-rendering:auto;text-rendering:auto;enable-background:accumulate"
                 d="m -785.72822,1279.4256 c -17.55375,-2.9318 -51.35112,5.523 -60.08158,11.5916 6.3829,-4.0301 52.55033,-13.1491 60.08158,-11.5916 z"
                 id="path5241"
                 inkscape:connector-curvature="0"
                 sodipodi:nodetypes="ccc" />
              <path
                 sodipodi:nodetypes="ccc"
                 inkscape:connector-curvature="0"
                 id="path5243"
                 d="m -791.24523,1270.5649 c -16.06669,-1.6467 -45.33823,9.1392 -52.44153,15.7705 5.24122,-4.4456 45.51295,-16.7736 52.44153,-15.7705 z"
                 style="color:#000000;font-style:normal;font-variant:normal;font-weight:normal;font-stretch:normal;font-size:medium;line-height:normal;font-family:sans-serif;text-indent:0;text-align:start;text-decoration:none;text-decoration-line:none;text-decoration-style:solid;text-decoration-color:#000000;letter-spacing:normal;word-spacing:normal;text-transform:none;direction:ltr;block-progression:tb;writing-mode:lr-tb;baseline-shift:baseline;text-anchor:start;white-space:normal;clip-rule:nonzero;display:inline;overflow:visible;visibility:visible;opacity:1;isolation:auto;mix-blend-mode:normal;color-interpolation:sRGB;color-interpolation-filters:linearRGB;solid-color:#000000;solid-opacity:1;fill:#000000;fill-opacity:1;fill-rule:evenodd;stroke:none;stroke-width:1px;stroke-linecap:butt;stroke-linejoin:miter;stroke-miterlimit:4;stroke-dasharray:none;stroke-dashoffset:0;stroke-opacity:1;color-rendering:auto;image-rendering:auto;shape-rendering:auto;text-rendering:auto;enable-background:accumulate" />
              <path
                 style="color:#000000;font-style:normal;font-variant:normal;font-weight:normal;font-stretch:normal;font-size:medium;line-height:normal;font-family:sans-serif;text-indent:0;text-align:start;text-decoration:none;text-decoration-line:none;text-decoration-style:solid;text-decoration-color:#000000;letter-spacing:normal;word-spacing:normal;text-transform:none;direction:ltr;block-progression:tb;writing-mode:lr-tb;baseline-shift:baseline;text-anchor:start;white-space:normal;clip-rule:nonzero;display:inline;overflow:visible;visibility:visible;opacity:1;isolation:auto;mix-blend-mode:normal;color-interpolation:sRGB;color-interpolation-filters:linearRGB;solid-color:#000000;solid-opacity:1;fill:#000000;fill-opacity:1;fill-rule:evenodd;stroke:none;stroke-width:1px;stroke-linecap:butt;stroke-linejoin:miter;stroke-miterlimit:4;stroke-dasharray:none;stroke-dashoffset:0;stroke-opacity:1;color-rendering:auto;image-rendering:auto;shape-rendering:auto;text-rendering:auto;enable-background:accumulate"
                 d="m -814.65807,1267.7372 c -10.46836,0.073 -25.44303,8.7345 -27.88379,13.3198 1.93398,-3.1064 23.28254,-13.4692 27.88379,-13.3198 z"
                 id="path5245"
                 inkscape:connector-curvature="0"
                 sodipodi:nodetypes="ccc" />
            </g>
          </g>
          <g
             id="g5259">
            <path
               style="color:#000000;font-style:normal;font-variant:normal;font-weight:normal;font-stretch:normal;font-size:medium;line-height:normal;font-family:sans-serif;text-indent:0;text-align:start;text-decoration:none;text-decoration-line:none;text-decoration-style:solid;text-decoration-color:#000000;letter-spacing:normal;word-spacing:normal;text-transform:none;direction:ltr;block-progression:tb;writing-mode:lr-tb;baseline-shift:baseline;text-anchor:start;white-space:normal;clip-rule:nonzero;display:inline;overflow:visible;visibility:visible;opacity:1;isolation:auto;mix-blend-mode:normal;color-interpolation:sRGB;color-interpolation-filters:linearRGB;solid-color:#000000;solid-opacity:1;fill:#000000;fill-opacity:1;fill-rule:evenodd;stroke:none;stroke-width:1px;stroke-linecap:butt;stroke-linejoin:miter;stroke-miterlimit:4;stroke-dasharray:none;stroke-dashoffset:0;stroke-opacity:1;color-rendering:auto;image-rendering:auto;shape-rendering:auto;text-rendering:auto;enable-background:accumulate"
               d="m -888.66518,1249.0109 c -2.04425,5.5881 -5.69624,9.2568 -8.75195,10.8382 l 0.86244,2.0689 c 4.54203,-0.2198 9.64922,-10.8382 7.88951,-12.9071 z"
               id="path5247"
               inkscape:connector-curvature="0"
               sodipodi:nodetypes="cccc" />
            <path
               style="color:#000000;font-style:normal;font-variant:normal;font-weight:normal;font-stretch:normal;font-size:medium;line-height:normal;font-family:sans-serif;text-indent:0;text-align:start;text-decoration:none;text-decoration-line:none;text-decoration-style:solid;text-decoration-color:#000000;letter-spacing:normal;word-spacing:normal;text-transform:none;direction:ltr;block-progression:tb;writing-mode:lr-tb;baseline-shift:baseline;text-anchor:start;white-space:normal;clip-rule:nonzero;display:inline;overflow:visible;visibility:visible;opacity:1;isolation:auto;mix-blend-mode:normal;color-interpolation:sRGB;color-interpolation-filters:linearRGB;solid-color:#000000;solid-opacity:1;fill:#000000;fill-opacity:1;fill-rule:evenodd;stroke:none;stroke-width:1px;stroke-linecap:butt;stroke-linejoin:miter;stroke-miterlimit:4;stroke-dasharray:none;stroke-dashoffset:0;stroke-opacity:1;color-rendering:auto;image-rendering:auto;shape-rendering:auto;text-rendering:auto;enable-background:accumulate"
               d="m -812.67802,1262.6462 c -1.47363,5.0528 0.54135,7.5297 1.52484,10.3929 l 1.08482,-0.4219 c -0.99565,-3.008 -2.41147,-7.8903 -2.60966,-9.971 z"
               id="path5249"
               inkscape:connector-curvature="0"
               sodipodi:nodetypes="cccc" />
            <path
               style="color:#000000;font-style:normal;font-variant:normal;font-weight:normal;font-stretch:normal;font-size:medium;line-height:normal;font-family:sans-serif;text-indent:0;text-align:start;text-decoration:none;text-decoration-line:none;text-decoration-style:solid;text-decoration-color:#000000;letter-spacing:normal;word-spacing:normal;text-transform:none;direction:ltr;block-progression:tb;writing-mode:lr-tb;baseline-shift:baseline;text-anchor:start;white-space:normal;clip-rule:nonzero;display:inline;overflow:visible;visibility:visible;opacity:1;isolation:auto;mix-blend-mode:normal;color-interpolation:sRGB;color-interpolation-filters:linearRGB;solid-color:#000000;solid-opacity:1;fill:#000000;fill-opacity:1;fill-rule:evenodd;stroke:none;stroke-width:1px;stroke-linecap:butt;stroke-linejoin:miter;stroke-miterlimit:4;stroke-dasharray:none;stroke-dashoffset:0;stroke-opacity:1;color-rendering:auto;image-rendering:auto;shape-rendering:auto;text-rendering:auto;enable-background:accumulate"
               d="m -813.17773,1258.6621 -0.87373,0.1101 c 0.10844,0.6761 0.12073,1.6586 0.55679,2.7158 0.46778,-0.7947 0.50894,-1.9244 0.31694,-2.826 z"
               id="path5251"
               inkscape:connector-curvature="0"
               sodipodi:nodetypes="ccccc" />
          </g>
        </g>
      </g>
      <text
         xml:space="preserve"
         style="font-style:normal;font-weight:normal;font-size:81.43273926px;line-height:125%;font-family:sans-serif;letter-spacing:0px;word-spacing:0px;fill:#d50000;fill-opacity:1;stroke:none;stroke-width:1.5;stroke-linecap:butt;stroke-linejoin:miter;stroke-miterlimit:4;stroke-dasharray:none;stroke-opacity:1"
         x="29.571238"
         y="188.98843"
         id="text6923"
         sodipodi:linespacing="125%"><tspan
           sodipodi:role="line"
           id="tspan6925"
           x="29.571238"
           y="188.98843"
           style="font-style:normal;font-variant:normal;font-weight:normal;font-stretch:normal;font-family:Xpressive;-inkscape-font-specification:Xpressive;fill:#d50000;fill-opacity:1;stroke:none;stroke-width:1.5;stroke-miterlimit:4;stroke-dasharray:none">Selamat Pagi....</tspan></text>
      <text
         sodipodi:linespacing="125%"
         id="text6927"
         y="787.81543"
         x="-2.7647617"
         style="font-style:normal;font-weight:normal;font-size:72.35892487px;line-height:125%;font-family:sans-serif;letter-spacing:0px;word-spacing:0px;fill:#d50000;fill-opacity:1;stroke:none;stroke-width:1.3328594;stroke-linecap:butt;stroke-linejoin:miter;stroke-miterlimit:4;stroke-dasharray:none;stroke-opacity:1"
         xml:space="preserve"><tspan
           style="font-style:normal;font-variant:normal;font-weight:normal;font-stretch:normal;font-family:Xpressive;-inkscape-font-specification:Xpressive;fill:#d50000;fill-opacity:1;stroke:#d50000;stroke-width:1.3328594;stroke-miterlimit:4;stroke-dasharray:none"
           y="787.81543"
           x="-2.7647617"
           id="tspan6929"
           sodipodi:role="line">Jangan lupa bahagia ^_^</tspan></text>
    </g>
  </g>
</svg>
