<?xml version="1.0" encoding="utf-8"?>

<!DOCTYPE svg PUBLIC "-//W3C//DTD SVG 1.1//EN" "http://www.w3.org/Graphics/SVG/1.1/DTD/svg11.dtd">
<svg version="1.1" id="Layer_1" xmlns="http://www.w3.org/2000/svg" xmlns:xlink="http://www.w3.org/1999/xlink" x="0px" y="0px"
	 viewBox="0 0 1040.6334 1705.9792" enable-background="new 0 0 1040.6334 1705.9792" xml:space="preserve">
<path d="M1007.1768,766.169c-0.2426-2.9387-0.4986-5.878-0.7635-8.8171c0.0081-0.2435,0.0187-0.4865,0.0254-0.7306
	c0.7488-26.6444-2.1221-53.535-7.9487-79.5292c-5.7985-25.8683-15.2587-50.3765-26.6923-74.2325
	c-4.4497-9.2847-9.0488-18.5347-13.2388-27.9543c3.784-11.5446,7.2225-23.1811,9.8064-35.0413
	c7.0628-32.4178,5.9143-65.0203-9.9792-94.7104c-15.5289-29.0082-38.5595-53.2964-56.9141-80.4504
	c-16.4299-24.3061-27.7924-50.9352-36.7614-78.7742c-16.8653-52.3482-26.3513-108.7592-56.3798-155.8168
	c-30.0833-47.1444-83.1847-79.2034-140.1093-75.8101c-15.1964,0.9058-30.0854,4.6512-43.9377,10.7311
	c-2.5313-3.4257-7.033-5.6872-10.745-7.2569c-2.7439-1.1603-5.5803-2.0006-8.4658-2.6303
	c-8.5568-2.4599-17.8698-2.7275-26.8953-1.2479c-9.7637,1.0457-19.2363,3.8661-27.7886,9.1255
	c-4.4274,2.7228-8.4981,5.961-12.2047,9.5794c-1.4677-10.8086-17.2989-13.3077-25.8718-14.4336
	c-15.6344-2.0532-33.2574-0.7479-47.6017,6.2228c-3.1341,1.5229-6.0821,3.3731-8.844,5.4717
	c-3.7582-2.554-9.4637-3.2534-13.6582-3.809c-5.5817-0.7386-11.1568-0.6833-16.73,0.0984
	c-11.8868,1.6672-23.2724,6.4272-32.7325,13.8203c-0.5302,0.4145-1.0503,0.84-1.5653,1.2704
	c-7.544-4.487-16.4312-1.7589-24.1128,1.5957c-8.2155,3.5877-16.6352,7.8-23.4905,13.6906
	c-5.1477-0.7648-10.095,1.3859-14.769,3.416c-0.5497,0.2388-1.0932,0.4935-1.6414,0.7368c-1.0883,0.439-2.1713,0.8887-3.2436,1.3457
	c-2.6085,1.1118-5.1344,2.5184-7.5463,4.1263c-1.5914,0.9546-3.1534,1.9589-4.6518,3.0684
	c-4.3944,3.2542-8.2524,7.065-11.6238,11.3669c-2.2388,2.8567-5.181,6.4199-6.5006,10.1313
	c-5.9057-0.2952-11.8725,0.2324-17.6287,1.5645c-19.4528,4.5007-36.1137,17.1643-49.3762,31.6506
	c-27.2487,29.7637-45.2711,68.2025-54.0643,107.3687c-0.0557,0.2471-0.1038,0.4964-0.1581,0.744
	c-0.7599,2.8871-1.4638,5.7878-2.1182,8.6921c-3.6411,16.1575-5.486,32.7148-5.6047,49.2751
	c-0.1251,17.3488,2.4925,34.2467,4.4892,51.4168c0.7483,6.4342,1.201,12.9483,0.933,19.431
	c-1.4646,10.3705-3.9234,20.2193-8.478,29.9599c-5.4071,11.5623-12.491,22.2191-19.9322,32.5544
	c-15.1652,21.0634-31.3114,41.2529-40.1359,65.9997c-16.6494,46.6922-7.3294,100.1938,26.8757,136.6339
	c5.591,5.9561,11.6313,11.4838,17.4707,17.2018c1.4473,5.1717,1.9064,10.4369,0.2449,15.3517
	c-1.8563,5.4923-5.8679,9.9196-9.4943,14.3181c-2.3653,2.8687-5.5431,5.9133-7.5651,9.3066
	c-5.5019,6.3113-10.5516,13.0674-14.3878,20.4944c-9.9689,19.3-9.8898,42.3737,1.7406,61.0058
	c3.0433,4.8754,6.7642,9.0142,10.8972,12.7325c0.8258,1.1325,1.6476,2.2512,2.444,3.3555
	c5.104,7.0798,10.1172,14.1909,12.7455,22.6149c2.4985,8.0068,3.0665,17.1838-1.538,24.5716
	c-4.6188,7.4099-13.4513,11.5947-20.4495,16.3928c-27.6191,18.937-53.011,42.7641-65.5033,74.5208
	c-6.4,16.2704-8.8947,33.8833-6.3572,51.1561c-1.2901,2.0411-2.5193,4.1076-3.6639,6.2036
	c-1.7746,3.2483-3.1349,7.0661-3.9065,11.0623c-2.108,7.0223-2.5299,14.4187-0.2431,21.7972c0.1954,0.6302,0.41,1.2495,0.6352,1.863
	c-0.458,6.8091,1.2386,14.2798,2.1802,20.8428c1.0235,7.1377,2.7949,14.2095,6.8286,20.2899
	c7.6108,11.4727,20.19,18.2427,33.0308,22.2576c5.8996,1.8444,11.8896,3.2825,17.8884,4.6746
	c1.9993,5.2305,2.94,10.8118,2.2905,16.7273c-2.355,21.4404-23.2595,35.027-33.7606,52.3419
	c-5.421,8.9379-8.584,20.9044-6.3755,31.3433c-7.0143,7.272-12.4829,16.1404-17.0327,25.0917
	c-5.9787,11.7626-10.2486,24.4088-12.4682,37.4198c-4.1504,24.3324-1.8631,51.3373,18.3099,68.1602
	c9.5367,7.9532,20.8199,12.165,32.0773,16.755c0.8515,0.6852,1.7229,1.3516,2.6163,1.9955
	c13.3965,9.652,30.0957,14.6012,46.5443,14.6262c9.3685,0.0143,21.3973-3.8223,29.9782,1.2577
	c6.1145,3.62,8.105,10.0861,9.7027,16.5768c0.0236,1.158,0.0245,2.3492,0.0022,3.5533c-3.6086,1.1899-6.8745,5.317-8.8969,7.9229
	c-3.1502,4.0586-5.4691,8.7201-7.5267,13.416c-0.2022,0.0424-0.41,0.0826-0.633,0.1097c-1.5199,0.1838-3.0785-0.0665-4.3713-0.9019
	c-1.2064-0.7795-2.0963-1.9152-2.8416-3.1523c-0.4346-1.3304-0.902-2.6395-1.7184-3.7784
	c-0.2332-0.3259-0.6696-0.2603-0.8133,0.1063c-1.3694,3.4956,0.4256,8.3901,2.6716,11.1783c0.0754,0.0936,0.1767,0.194,0.2594,0.29
	c-0.2929,0.5796-0.3376,1.2748,0.1305,1.9836c1.0228,1.5492,2.2497,2.7924,3.5967,3.8049
	c-1.6292,5.158-2.7271,10.899-1.6388,15.7251c0.0935,1.4165,0.3245,2.7977,0.731,4.1162c0.7475,2.426,2.0661,4.7008,3.7186,6.7889
	c2.684,5.8201,7.5143,10.2699,13.664,12.952c3.3242,1.4496,6.6952,2.5803,9.9685,3.8274c2.5679,1.3575,5.3427,2.4921,8.0623,3.7197
	c2.3456,1.3783,4.5586,3.0475,6.5624,5.2316c3.4685,3.7805,6.0688,8.3363,7.7173,13.1865c0.8263,2.4298,1.2362,4.9644,1.7802,7.4559
	c-0.1139,1.5391-0.3089,3.0686-0.5658,4.5657c-1.4201,8.2826-3.9906,14.6904-10.5643,20.1287
	c-6.0349,4.9922-13.1578,8.7013-20.6111,11.0583c-7.3509,2.3247-16.8122,4.1722-24.3929,1.8254
	c-7.7724-2.4065-11.857-9.2493-16.352-15.4518c-0.3485-0.4813-1.274-0.2186-1.0412,0.4391
	c3.6661,10.3668,12.3324,18.4875,23.5283,19.2755c12.7674,0.8987,26.1701-3.0875,36.8279-10.0201
	c4.8106-3.1292,9.7076-6.875,12.7401-11.8301c3.2966-5.3857,4.6972-12.2047,5.4815-18.3829
	c1.47-11.5707-1.8625-22.1412-10.922-28.8314c0.1477-0.0452,0.2893-0.1014,0.4211-0.1743
	c6.5054,2.391,12.1473,5.8945,15.3543,12.2157c3.9159,7.7179,1.6384,18.8408-0.6174,26.7816
	c-2.5786,9.0782-7.1795,17.0514-14.6319,22.9742c-14.2992,11.3646-35.7024,19.2675-53.6459,12.8373
	c-18.9198-6.78-26.0391-28.2172-32.5976-46.137c-0.3365-1.5878-0.6588-3.1759-0.8413-4.7679
	c-0.5009-4.3597-0.3513-8.7175-0.7163-13.0691c-0.0352-0.415-0.5259-0.6108-0.8068-0.4005
	c-0.0004-0.0039-0.0008-0.0073-0.0008-0.0073c-0.0654-0.3844-0.6264-0.3345-0.7217-0.0039
	c-1.2171,4.2152-1.0992,8.9569-1.5937,13.3146c-0.4193,3.6938-1.4543,8.0005-0.8774,11.7813
	c-0.4994,3.0634-0.739,6.1978-0.9959,9.0063c-0.5569,6.0934-0.4215,12.3705,1.0076,18.3453
	c0.361,1.5104,0.8511,3.0831,1.4382,4.6644c-1.2131-1.4003-2.4159-2.8209-3.6201-4.2502c-0.2311-0.3862-0.4684-0.7673-0.6901-1.1608
	c-1.7247-3.0591-3.1087-6.2769-4.117-9.6312c-0.5788-4.8121-0.8605-9.6667-1.3116-14.6376
	c-0.0218-0.2405-0.1753-0.4286-0.3686-0.5485c0.1091-4.0137,0.4261-8.0084,0.9082-11.9279c0.1014-0.829-1.3338-1.0305-1.4691-0.1989
	c-3.4168,20.9871-2.2802,43.2933,11.122,60.7651c5.3721,7.0028,12.3769,12.6049,20.6053,15.8733
	c1.0048,0.3994,2.0257,0.7635,3.0522,1.1132c0.6495,0.2573,1.2951,0.5223,1.9561,0.754c4.4675,1.5652,9.1886,2.61,13.8857,3.3322
	c3.7445,0.8351,7.8237,1.7719,11.5934,1.0759c0.8798-0.0304,1.7523-0.108,2.6116-0.2419c3.1488,0.1193,6.294,0.0653,9.485-0.3029
	c8.9108-1.0277,18.3624-4.0708,26.7871-7.5616c-2.2158,4.9279-4.0262,10.0298-5.2807,15.363
	c-1.8494,0.8851-3.6973,1.7767-5.519,2.738c-12.1006,2.7604-24.6347,3.1982-36.9387,1.1979
	c-6.6519-1.0814-13.2246-2.8408-19.4906-5.327c-6.4471-2.5581-12.0617-6.2675-18.0689-9.5361
	c-5.6013-4.5361-10.419-9.6986-15.4029-15.3123c-0.6117-0.6892-1.4833,0.1891-1.1748,0.9064
	c1.572,3.65,3.8727,7.0234,6.6061,10.0924c2.9359,5.1742,8.4247,9.8322,12.6169,13.4253
	c6.0425,5.1787,12.718,9.5605,19.9759,12.8387c15.2181,6.874,32.2329,9.4541,48.5534,5.343
	c0.2034-0.0513,0.2493-0.2264,0.1945-0.3729c0.0179-0.0178,0.0366-0.0353,0.0485-0.0576c0.0201,0.0216,0.0406,0.0432,0.0734,0.0565
	c0.0899,0.0392,0.1817,0.0737,0.2752,0.103c0.4572,0.1569,0.4603-0.7076,0-0.5496c-0.0935,0.0294-0.1853,0.0638-0.2752,0.1031
	c-0.0324,0.0129-0.0534,0.0349-0.0734,0.0565c-0.0342-0.0645-0.0881-0.1163-0.1833-0.1163c-0.1314,0-0.1946,0.093-0.2102,0.1935
	c-0.004,0.0007-0.0067-0.0009-0.0067-0.0009c-16.7941,2.684-34.1117,0.2578-49.1393-7.8325
	c-5.2117-2.8062-10.1266-6.1357-14.7084-9.8762c0.7225,0.4044,1.4521,0.7974,2.1854,1.1847
	c3.8637,2.5264,8.4557,4.2917,12.526,5.8776c6.5892,2.5669,13.4503,4.281,20.4575,5.2124
	c11.5031,1.5288,24.892,1.3295,36.2642-2.511c-1.1237,9.297-0.6032,19.0731,2.4315,27.9734
	c3.0407,8.9181,8.4243,15.7261,16.0311,21.2083c0.9077,0.6543,2.0718-0.8389,1.2042-1.5605
	c-14.1426-11.7631-17.5259-32.5023-14.3139-49.9077c0.1686-0.1643,0.2742-0.3527,0.3534-0.5483
	c3.7898-2.0793,7.3665-4.6813,10.5411-7.1183c6.0461-4.642,11.3842-10.3682,16.2118-16.2419
	c5.1538-6.2708,9.3603-12.9362,13.0785-20.123c2.9253-5.6548,9.7073-12.718,8.7011-19.6c-0.0334-0.229-0.3931-0.319-0.5356-0.1414
	c-2.0464,2.5492-2.7579,5.879-4.2599,8.7855c-1.9971,3.8652-3.6689,7.6227-6.2491,11.1561
	c-4.4514,6.0961-8.8707,12.2539-13.9458,17.8589c-5.047,5.5747-10.7098,10.3345-16.9356,14.5317
	c-1.5658,1.0555-3.1796,1.9899-4.8169,2.8647c5.6863-18.2256,17.7526-34.5422,29.1265-49.4839
	c9.5467-12.5417,17.8452-26.3702,24.4511-40.9801c11.3081,0.0397,21.5502-9.7988,27.9862-18.2227
	c2.8933-3.7866,5.4228-7.7953,7.6241-11.9718c-1.6557,9.7286-4.4327,19.2571-8.8074,28.1084
	c-3.1226,6.3182-6.8531,12.36-12.0177,17.2198c-2.3947,2.2538-5.0016,4.1912-7.8994,5.7533
	c-3.0005,1.6179-6.3145,2.3713-9.0613,4.4351c-0.2292,0.1719-0.3223,0.5869,0,0.7378c8.9977,4.219,20.839-5.8744,26.3495-12.0477
	c8.5396-9.5665,13.8123-21.3229,17.7009-33.4432c2.879-8.9727,4.7505-18.1619,5.6895-27.4307
	c0.8382,3.358,1.6199,6.7286,2.3046,10.1168c2.4365,12.0565,3.3871,24.2423,3.9039,36.4796
	c-0.0906,0.3116-0.1517,0.6338-0.2466,0.9436c0.0942-0.0417,0.184-0.0938,0.2778-0.1364c0.1398,3.4363,0.2532,6.876,0.3507,10.3185
	c0.2213,7.8173,0.105,15.6619,1.2737,23.4142c0.6411,4.2509,1.0982,9.0911,2.0117,13.7076
	c0.9559,10.2676,5.1384,19.8661,15.41,24.1853c10.6572,4.4812,21.9766,0.363,28.1779-9.1372
	c1.1802-1.8079-1.5795-3.9904-3.0205-2.3306c-7.2913,8.3979-20.8551,9.3533-28.2237,0.4381
	c-7.1754-8.6819-4.492-22.2233-3.679-32.489c1.0346-13.0693,2.2553-26.1923,2.87-39.3234
	c12.3121-11.521,21.1683-26.1667,25.1898-42.9937c4.5797-19.161,4.2177-40.0055-1.6885-58.8514
	c-11.3272-36.1431-37.2088-63.1541-57.6931-94.0542c-10.2913-15.5249-19.56-31.7277-27.1258-48.7529
	c-5.271-13.3594-9.3315-27.1396-11.6976-41.3093c-1.0458-10.4032-1.0895-20.829-0.0646-31.2349
	c2.3665-13.9857,6.5131-27.5413,11.7737-40.7118c8.4658-19.0854,18.8066-37.2322,29.0388-55.4213
	c0.3643,9.225,2.8962,18.2748,7.8589,26.2682c2.4534,3.951,5.3747,7.4633,8.6396,10.527
	c4.3316,5.3934,9.7273,9.8162,15.7973,13.1783c0.4592,0.1626,0.925,0.3059,1.3862,0.4626c0.2459,0.2107,0.4861,0.4271,0.7389,0.6301
	c-11.3013-1.6925-23.0361-6.4801-28.2323-16.7211c-0.378-0.7451-1.6609-0.2256-1.3667,0.5765
	c3.0041,8.1957,9.0515,13.645,16.4731,17.0576c5.1864,3.5156,10.9938,6.0121,17.5269,7.4835
	c4.4748,1.0078,9.042,1.467,13.6264,1.5386c2.2292,0.8278,4.521,1.5625,6.9446,2.1084c4.8126,1.0839,9.7306,1.5629,14.6635,1.5725
	c-3.2628,1.3208-6.6284,2.4579-10.0902,3.3749c-0.7034,0.1864-0.5809,1.3372,0.175,1.2942
	c7.0789-0.402,13.6662-2.2809,19.7184-5.2451c5.1067-0.5896,10.1667-1.5956,15.0776-2.8997
	c5.7695-1.5321,11.5403-3.5862,16.875-6.3973c-8.5034,8.3287-19.4099,13.7516-31.275,16.8949
	c-0.7034,0.1864-0.5809,1.3372,0.175,1.2942c17.9235-1.0179,32.752-11.3898,43.4925-25.3356
	c0.4746-0.6157,0.9225-1.2523,1.3704-1.8894c4.348-5.0089,8.1531-10.7203,11.6592-16.2184
	c1.1851-1.8584,2.2949-3.7565,3.3327-5.6885c1.9907-3.0537,3.7429-6.2183,5.2987-9.4808c0.7515,1.7477,1.3512,3.5566,1.7063,5.4553
	c0.4634,2.478,0.5155,4.9818,0.336,7.4889c-0.7911,4.3579-1.7094,8.7159-2.1951,13.0648c-0.1434,0.7214-0.2832,1.4407-0.4118,2.1554
	c-1.3076,7.2764-2.1778,14.8916,0.674,21.9247c2.7623,6.8112,8.5044,11.5186,15.0177,14.5999
	c7.687,3.6362,16.0524,6.0497,24.2687,8.1461c4.3886,1.1196,8.812,2.0488,13.2696,2.8434
	c4.2306,0.7543,8.9184,1.2434,12.4789,3.8634c1.6649,1.2251,2.925,2.7195,3.8814,4.376c0.9541,2.7039,1.6418,5.5057,1.9669,8.3636
	c0.234,2.0574,0.2663,4.0514,0.2019,6.0149c-0.2267,1.804-0.5774,3.5674-1.0166,5.2169c-0.9348,3.5127-2.3683,6.811-3.9287,10.0626
	c-2.3462,4.1167-4.5462,8.3256-6.8117,12.4292c-3.9719,7.1946-7.9355,14.4164-11.565,21.7938
	c-4.6961,8.0558-8.243,16.5374-9.5669,25.6831c-1.605,7.3352-2.1187,14.8563-0.8696,22.4768
	c0.5368,3.274,1.3584,6.6631,2.4239,10.0546c2.2761,9.7476,6.7554,18.838,13.5561,25.9221
	c16.0434,16.7133,40.4466,17.9531,61.6912,22.7433c13.7708,3.1049,26.3856,8.6371,38.1384,16.4431
	c7.9438,5.276,25.2709,18.106,12.1121,27.4703c-1.3334,0.9491-1.2038,2.9999,0.4594,3.5153
	c10.2762,3.1837,15.6571-11.2759,13.0778-19.2231c-0.8127-2.5034-2.07-4.8738-3.6122-7.1249
	c8.381,5.7593,23.0444,17.6564,10.646,26.4796c-1.3333,0.9492-1.2037,3,0.4594,3.5153c10.2761,3.1837,15.657-11.2759,13.0777-19.223
	c-3.7738-11.625-16.7237-20.5492-26.6731-26.5847c-11.0414-6.6985-23.1597-11.348-35.7193-14.2557
	c-11.3647-2.631-22.9949-4.2864-34.0819-8.0157c-10.8104-3.6362-20.0781-9.8331-25.3051-20.2391
	c-5.0579-10.0693-6.3071-23.0149-3.9135-34.2714c0.4644,0.8125,0.9113,1.6368,1.4121,2.4237
	c9.0911,14.2864,23.5444,24.3741,39.2184,30.2955c9.4365,3.5649,19.3806,5.7148,28.6569,9.7184
	c9.1748,3.9597,17.0706,10.0328,24.2046,16.9548c13.4053,13.0072,25.29,27.9022,34.7733,43.9939
	c5.7131,9.6947,10.6354,20.1089,14.0228,30.9486c0.1011,0.6268,0.2017,1.2537,0.2991,1.8694
	c0.736,4.6553,1.0458,9.361,1.0284,14.0688c-0.09,1.936-0.1169,3.8917-0.1825,5.8303c-0.053,0.9169-0.1157,1.8331-0.1901,2.748
	c-0.1205,1.4854-0.2853,2.9668-0.4807,4.4443c-1.3013,7.3597-4.2007,14.0345-7.3211,20.7968
	c-0.4332,0.9385-0.8841,1.8676-1.3221,2.8033c-3.6037,5.8323-6.9136,11.899-9.0657,18.406
	c-0.1252,0.2129-0.2498,0.4254-0.3771,0.6379c-0.5515,0.8613-1.1085,1.7324-1.6738,2.6002
	c-1.7912-6.363-1.2823-13.1868,0.2648-19.7188c0.1215-0.512-0.6161-0.8705-0.8788-0.3705
	c-3.6439,6.9351-3.7198,15.3391-1.2202,22.74c-0.8131,1.1104-1.6615,2.1859-2.6071,3.1478
	c-4.8502,4.9347-9.8287,2.7228-13.1658-2.6398c-5.0372-8.0951-4.816-17.5874-2.6991-26.5245
	c0.1215-0.512-0.6161-0.8702-0.8788-0.3705c-4.357,8.2921-3.6669,18.7042,0.5031,26.963
	c3.5451,7.021,11.0294,12.1356,18.1528,6.3164c0.2521-0.2056,0.4866-0.4377,0.7288-0.6576
	c-0.1014,0.7756-0.1678,1.561-0.1735,2.3625c-0.9345,1.786-0.8232,3.9381-0.1589,6.162c0.0062,2.5831,0.5298,5.1581,1.7032,7.6382
	c1.5559,3.2888,4.1024,5.9094,6.1089,8.9088c0.905,1.3536,1.8195,2.861,2.2076,4.4701c0.0615,0.3691,0.1212,0.7532,0.1758,1.1433
	c0.0562,0.8668-0.0405,1.8319-0.3796,2.5574c-0.1105,0.6738-0.46,1.1432-1.0338,1.4193c-1.4157-0.8976-2.7076-1.7725-3.8549-2.941
	c-0.179-0.46-0.5187-0.8219-0.9344-1.0682c-0.4982-0.6371-0.9647-1.3553-1.3953-2.1946c-1.9507-3.8024-1.6448-8.8563-4.0466-12.2618
	c-0.0157-0.0222-0.0384-0.0286-0.0557-0.0469c-0.4145-1.2089-2.2647-1.0793-2.3987,0.3727
	c-0.6263,6.7928-1.0813,13.8005,2.4427,19.9509c1.6723,2.9186,4.4512,5.8846,7.7119,7.515c3.5246,2.554,8.0618,3.1,11.5089,1.4707
	c1.4158-0.6692,2.4928-1.5541,3.3021-2.5903c1.5821,1.9204,3.5546,3.6741,5.785,4.7834c3.3383,2.407,7.5673,2.9932,10.9293,1.6648
	c-0.0068,0.0747-0.0053,0.1462-0.0129,0.2212c-0.8531,8.3315-5.6071,14.6924-11.4679,18.2223
	c-5.7714,3.4766-14.1346,3.8629-18.2596,10.0074c-2.3386,3.4836-2.8586,7.4408-2.6788,11.709
	c1.3605,2.4469,2.8528,4.8157,4.322,7.1101c-0.1301-4.3656,0.0516-9.985,2.5901-12.5476c3.2172-3.248,8.6935-2.9723,12.8216-4.0864
	c7.6492-2.0645,14.7219-7.4174,18.618-15.3453c3.2731-6.6595,4.4011-14.9347,3.0488-23.329
	c-1.3895-8.6238-7.5477-16.1971-5.6873-24.7065c1.6329-7.4701,6.481-12.4843,11.2761-16.8988
	c2.9757-2.7391,6.0719-5.3993,8.9135-8.3597c1.3615-0.3625,2.7208-0.7424,4.0645-1.1742
	c-8.5898,9.1399-17.9191,21.3071-14.1413,37.7701c2.0702,9.0231,8.1175,15.8311,7.1515,25.2756
	c-0.853,8.3315-5.6071,14.6924-11.4679,18.2223c-5.7714,3.4766-14.1346,3.8629-18.2596,10.0073
	c-2.3386,3.4838-2.8586,7.4409-2.6788,11.7091c1.3605,2.4469,2.8528,4.8157,4.3218,7.1101
	c-0.1299-4.3657,0.0517-9.985,2.5901-12.5476c3.2174-3.2482,8.6937-2.9723,12.8218-4.0864
	c7.6492-2.0646,14.7217-7.4174,18.618-15.3455c3.2731-6.6595,4.4011-14.9346,3.0486-23.3289
	c-1.3893-8.6239-7.5475-16.1971-5.6872-24.7065c1.633-7.4702,6.4811-12.4843,11.2761-16.8988
	c0.1194-0.11,0.2414-0.2188,0.3613-0.3285c-4.1228,9.8643-7.9883,21.6141-4.1796,32.7524
	c0.7136,14.1721,18.2595,23.2878,26.665,16.4266c6.2901,6.0936,15.8866,8.2502,21.1783,3.1781
	c1.1953-1.1461-0.3485-3.371-1.7086-2.9236c-3.9611,1.3029-8.0703,1.5287-12.3146-0.9839
	c-3.9635-2.3464-8.1553-7.3232-7.337-12.5432c0.7358-4.6958,3.9526-9.1465,6.0803-12.8527
	c2.4341-4.2404,5.0661-8.2958,7.7657-12.2786c3.2899-4.8544,6.8051-9.6652,9.9698-14.7583
	c0.8641-1.1227,1.6148-2.4187,2.2714-3.8319c3.8576-6.865,6.8625-14.3507,7.6923-23.1987
	c1.5536-16.5587-4.8182-34.1815-13.1467-49.0341c-6.5068-11.6042-14.175-22.4218-22.67-32.1245
	c-0.0107-0.2395-0.009-0.4786-0.0209-0.7184c-0.0233-0.4625-0.0553-0.9242-0.0858-1.3857c0.6212,0.0605,1.2402,0.1331,1.8625,0.1846
	c3.4321,1.0436,6.9142,1.8723,10.4501,2.4265c13.0501,2.0455,26.8735,2.5298,39.1339-0.804
	c5.9401-1.6154,11.617-4.048,16.6062-7.7542c3.1319-2.326,6.9449-6.0403,8.9892-10.2811c3.7569-3.8629,6.8451-8.3357,9.2732-13.5961
	c2.6047-5.6438,5.6849-12.338,4.7188-19.4556c-0.0841-0.6219-0.8489-0.7644-1.0831-0.3483c-0.1647,0.2932-0.3143,0.597-0.4652,0.9
	c0.0027-0.1217,0.0173-0.243,0.0183-0.3651c0.0026-0.359-0.5245-0.525-0.6967-0.1887c-5.1776,10.1104-9.9899,19.4637-19.069,26.745
	c-5.2908,4.2434-11.7168,7.7452-18.4984,9.7064c2.0331-2.0135,3.9694-4.4272,5.2311-7.0446
	c3.7568-3.8628,6.8451-8.3358,9.2731-13.5962c0.7037-1.5247,1.4365-3.1315,2.1203-4.797c3.9734-3.5919,7.3055-7.858,9.4945-13.2631
	c0.9732-2.4034,2.1844-5.5134,2.6385-8.6971c1.6859-4.9988,2.4406-10.5535,2.2611-16.1917
	c-0.138-4.3302-0.5978-8.8392-1.4843-13.1819c-0.9036-4.4276-2.9426-8.3632-4.674-12.5264
	c-0.2048-0.4927-0.8806-0.2841-0.7324,0.2209c1.6134,5.5083,1.6147,12.2166,1.5394,17.7429
	c-0.0489,3.6102-0.3307,7.2429-0.9171,10.7404c-0.0534-0.6707-0.1143-1.3417-0.1852-2.0135
	c0.0014-0.2126,0.0173-0.4232,0.0151-0.6365c0.0094-0.322,0.0187-0.6393,0.0281-0.9476c0.1477-4.7771-0.4817-9.7463-2.088-14.479
	c-3.4573-10.1869-9.6096-19.1694-15.5262-27.8585c-0.9464-2.151-1.9245-4.2858-2.8977-6.4077
	c-0.5408-1.1786-2.5905-0.3348-2.116,0.892c1.8622,4.812,3.785,9.8071,5.2549,14.9069c0.5775,3.0182,1.3654,6.0648,1.7656,9.0363
	c0.4777,3.5474,0.5693,7.2101,0.5216,10.8142c-0.1644-1.0497-0.3481-2.0955-0.5594-3.131
	c-0.9036-4.4279-2.9426-8.3634-4.6739-12.5266c-0.2048-0.4927-0.8807-0.2841-0.7324,0.2209
	c1.6134,5.5083,1.6146,12.2166,1.5394,17.743c-0.0489,3.6101-0.3306,7.2428-0.9171,10.7402
	c-0.0533-0.6707-0.1143-1.3414-0.1851-2.0135c0.0013-0.2126,0.0173-0.4232,0.0151-0.6364c0.0094-0.3221,0.0187-0.6394,0.0281-0.9475
	c0.1477-4.7773-0.4817-9.7465-2.088-14.4792c-3.4642-10.2072-9.6312-19.2024-15.5586-27.9077
	c-0.9392-2.1328-1.9002-4.2542-2.8652-6.3585c-0.5409-1.1786-2.5905-0.3346-2.116,0.892c1.8788,4.8544,3.8077,9.8982,5.2825,15.0447
	c0.5748,2.973,1.3436,5.9723,1.738,8.8984c0.4719,3.5048,0.555,7.1187,0.511,10.681c-0.8793,8.4139-4.6511,16.0781-10.8663,21.9342
	c-5.4793,5.1624-12.5582,8.7158-20.0346,9.6416c-4.1063-1.7714-8.0505-3.951-11.7239-6.2222
	c-7.6785-4.7469-15.397-11.2905-17.7161-20.397c-2.749-10.7971,3.3603-21.3274,9.4651-29.7488
	c5.7316-7.906,14.1545-16.0748,16.076-25.9949c1.6957-8.7513-3.5788-17.7281-8.5396-24.5558
	c-5.0799-6.9921-11.3552-12.9637-18.6874-17.5566c-7.7485-4.8539-18.3669-9.0226-12.9722-20.0028
	c0.2788-0.5675,0.6136-1.0966,0.9103-1.6517c9.9889-4.0443,19.1337-10.1237,26.9235-17.6243
	c7.9781-7.0936,14.2756-16.1803,18.709-26.1602c0.0491-0.1064,0.1056-0.2094,0.1542-0.3159
	c0.7766-1.7018,1.481-3.4374,2.1489-5.1877c0.3644-0.3365,0.7429-0.6508,1.1015-0.9965
	c6.4302-6.1987,11.8317-13.8531,14.6234-23.1631c0.2328,9.7057-1.2324,19.4629-4.6495,28.8135
	c-5.7317,15.6848-17.5211,28.7439-30.9637,38.3448c-1.1446,0.8175-0.9985,2.6642-0.0339,3.3353
	c-3.9345,2.5946-8.0377,4.9716-12.2691,7.1204c-0.6068,0.3079-0.1862,1.3269,0.4664,1.1066
	c11.9119-4.0225,22.7997-10.9142,31.8119-19.7334c7.6358-6.9397,13.7006-15.7131,18.025-25.3361
	c0.1024-0.2194,0.2097-0.4365,0.3103-0.6569c5.1085-11.1948,7.9199-23.5305,7.7378-35.8574
	c-0.0624-4.208-0.4978-8.3314-1.2358-12.3833c-2.0234-13.2996-6.9708-25.8765-14.0714-37.1655
	c-4.1024-8.1201-8.6531-16.0519-14.1364-23.2224c-7.0014-9.1557-15.6183-16.8712-25.1893-23.2584
	c-9.8021-6.5412-20.7479-11.4091-32.2344-14.0768c-6.525-1.5153-16.0627-3.0339-13.1013-11.8719
	c0.5577-1.6654,0.9835-3.3254,1.2986-4.9895c1.3609-1.7567,2.136-4.1453,2.0492-6.7503c-0.1108-3.3259-1.3645-6.6318-3.1835-9.6774
	c-1.5871-4.6846-4.1865-8.8947-7.4769-12.523c-0.4149-0.4689-0.8409-0.9182-1.2776-1.3464
	c-4.053-4.0753-8.9941-7.3348-14.3175-9.5928c-10.692-4.5352-24.0253-3.7571-34.3352-9.2355
	c-1.8784-2.9366-4.7386-5.5165-6.3974-8.6058c22.8577-12.2872,27.3788-40.9235,21.4909-64.8226
	c-0.3201-1.2994-0.6771-2.589-1.0422-3.8759c0.2449-2.2162,0.3514-4.4683,0.2797-6.7524c-0.0909-2.8898-0.4261-5.7502-0.9368-8.5752
	c7.59,12.3104,12.0107,26.6367,12.5266,40.9747c0.5609,15.5911-3.2494,29.5855-12.8792,42.0016
	c-0.7119,0.9175-0.3539,2.6506,0.7453,2.8963c-1.4135,0.9416-2.8919,1.7966-4.4412,2.5425
	c-0.7169,0.345-0.2021,1.6088,0.5489,1.3019c26.5823-10.8669,32.0099-41.538,25.7699-66.8666
	c-6.189-25.1182-20.8867-48.0102-40.2202-65.0454c-9.5577-8.4214-20.2723-15.5529-31.8163-20.9508
	c-6.9288-3.2399-14.0107-5.4885-21.2081-7.4772c-1.6667-0.7394-3.3273-1.4911-4.9789-2.2633
	c-7.0543-5.5817-11.723-13.2829-14.78-21.7748c-0.4211-20.0256-1.7429-40.269-7.6121-59.4899
	c-1.2078-9.9373-3.2494-19.7233-7.2694-29.1652c-7.2943-17.1321-21.9066-27.6321-32.5473-42.3147
	c-6.4642-8.9188-8.8444-18.2659-7.9857-29.2454c0.8605-11.0027,2.2557-21.3336,0.7501-32.3733
	c-0.6549-4.8008-1.6267-9.5865-2.708-14.3674c0.0119-0.373,0.016-0.7447,0.02-1.1165
	c11.9286-12.7981,25.6011-24.2571,38.3641-35.733c1.7754-1.5965,3.5427-3.2057,5.2982-4.8284
	c7.4229-5.47,14.4434-11.4644,20.8091-18.2236c12.4224-13.1908,22.5655-28.5438,30.1563-44.9786
	c15.5668-33.703,21.6044-71.0299,20.1932-107.9912c-0.9523-24.9418-4.7867-49.6735-7.0545-74.5071
	c-1.1476-12.5707-1.9285-25.2454-1.827-37.8735c0.0165-2.0193,0.0681-4.0391,0.1381-6.058
	c3.488-2.8603,7.0708-5.6031,10.9777-7.9545c6.6572-4.007,13.8838-6.1233,21.3829-6.3444
	c4.2553,1.4987,8.4086,3.3507,12.4556,5.3551c0.1133,0.5194,0.2322,1.0514,0.3434,1.5621
	c2.7086,12.4563,4.1176,25.1449,5.1562,37.8361c1.8911,23.1001,2.5794,46.4224,7.4008,69.1682
	c4.3494,20.5193,12.653,39.9747,23.5479,57.8541c21.7784,35.7394,52.5677,64.9015,82.8771,93.3046
	c33.7801,31.6548,67.5596,63.6456,95.9815,100.3386c5.7407,7.4111,11.2721,15.0593,16.5217,22.9116
	c-1.1464,13.3607-2.8442,26.6073-5.6,39.7861c-1.871,8.9495-3.1714,17.7655-4.0084,26.6361
	c0.9121,13.9209,0.4835,27.913,0.8049,41.8641c0.6179,26.833,2.8461,54.0039,11.837,79.4915
	c2.4807,7.032,5.5501,14.0551,9.329,20.6229c0.2827,1.1169,0.5618,2.235,0.879,3.3428c0.3723,3.6564,1.0222,7.2835,1.9504,10.8605
	c1.9326,4.7234,4.3018,9.3378,7.0183,13.9698c6.5632,11.1917,14.7966,21.8678,25.4854,29.418
	c6.8976,4.8718,14.1746,7.59,21.7386,8.4432c-7.6821-2.7025-14.9675-6.5118-21.4868-11.4209
	c3.4568,1.6553,7.1839,2.6711,11.1928,2.8055c0.3775,0.0128,0.7056-0.0493,0.9958-0.1575c0.3807,0.1488,0.7502,0.3113,1.138,0.4516
	c0.4127,0.1491,0.7567-0.0436,0.9611-0.3466c6.1373,1.1334,12.5421,1.1138,18.6874,0.6702
	c7.9631-0.5748,15.9915-2.1545,23.6254-4.6213c0.4642-0.2459,0.9251-0.5042,1.3863-0.7609
	c0.2147-0.0697,0.4337-0.1246,0.6478-0.1958c-0.1326,0.0197-0.2603,0.0363-0.3925,0.0557c0.113-0.0634,0.2275-0.1226,0.3403-0.1868
	c-0.5864,0.1458-1.1812,0.2634-1.7734,0.3901c-0.3061,0.0428-0.6201,0.0902-0.9222,0.1308
	c-8.9749,1.2072-18.2949,0.8691-27.1259-1.3178c-1.4468-0.0419-2.896-0.1108-4.3473-0.2214
	c-9.6639-0.7369-21.0264-2.2267-26.7462-10.9667c-5.3105-8.1146-7.6704-18.4385-8.5671-27.9734
	c-1.8052-19.2094,1.6686-38.902,6.323-57.4843c2.8635-11.4323,6.3901-22.667,10.2313-33.7974
	c-0.334,19.1219-2.8925,39.3719,1.9053,57.9913c2.6332,10.2197,8.8422,19.9674,17.5975,25.8718
	c1.4132,2.0881,2.9872,4.11,4.7542,6.0488c0.0037,0.0037,0.0073,0.0073,0.0107,0.0111c-1.1504-1.5743-2.1517-3.2569-3.0799-4.9836
	c2.2945,1.3666,4.7448,2.4786,7.3413,3.2701c-2.1303-2.2787-3.9916-4.7877-5.4536-6.9272
	c-0.3143-0.4602-0.6205-0.9243-0.9277-1.3879c-2.0237-1.7628-3.8076-3.7946-5.371-6.0127
	c-0.1888-0.6585-0.4127-1.3141-0.5803-1.9727c-1.0831-4.2556-1.7869-8.5928-2.2396-12.9609
	c-0.6229-3.3732-1.0374-6.7694-1.2768-10.119c-1.0342-14.4676,1.0502-28.9221,2.7352-43.2593
	c0.1136-0.0012,0.2333-0.077,0.251-0.2211c1.8132-14.4845,3.9671-29.0082,6.7209-43.3498
	c1.3279-6.9172,2.8665-13.8099,4.3709-20.6916c1.3458-6.1556,3.9844-12.9379,3.8182-19.2586
	c-0.0004-0.0187-0.0085-0.0338-0.0101-0.0521c3.4452-10.3246,7.1358-20.588,10.7194-30.8814
	c7.8145,16.746,16.564,33.0115,23.321,50.2553c11.7603,30.0142,20.7429,62.9453,18.5196,95.3438
	c0.0137,0.288,0.0284,0.576,0.0338,0.8662c0.1072,6.0045-0.6068,12.0273-1.3913,17.9714
	c-1.4428,10.9334-4.4504,21.4543-8.8323,31.5735c-3.581,8.27-8.1674,16.1475-13.5015,23.4218
	c8.8658-9.4756,15.5515-21.2426,20.3035-33.045c4.1887-10.4039,6.8018-21.3116,8.1418-32.3924
	c0.1225,1.2358,0.2426,2.4725,0.3638,3.709c0.045,15.7971-1.4068,31.6373-6.2004,46.514c-0.074,0.3174-0.1421,0.6199-0.2103,0.9225
	c-0.1843,1.7195-0.3774,3.4382-0.5982,5.1545c-0.8001,6.2224-1.7715,12.4554-3.419,18.5092
	c6.1835-10.3065,10.3611-21.3401,12.9783-32.8513c0.0583,6.6555-0.1718,13.3105-0.8419,19.9539
	c-0.2933,2.9083-0.7078,5.7863-1.2122,8.6429c0.2894,3.713,0.2596,7.4836,0.329,11.2144c0.2453-0.8316,0.4915-1.6627,0.7297-2.4975
	c2.7788-9.7347,4.9371-19.4661,5.924-29.5622c0.2092-2.1395,0.3726-4.2856,0.5048-6.4348
	C1008.2016,780.3798,1007.7618,773.2585,1007.1768,766.169z M115.1769,925.2252c-5.7379-8.4117-0.0881-17.3958,5.7064-24.6235
	c4.5876-3.5911,9.9164-6.3292,15.1674-8.1816c10.4275-3.6783,21.7409-5.4203,30.3744-12.886
	c7.8338-6.7741,10.3651-17.0903,7.8597-26.9852c-0.2374-0.9365-0.5191-1.8368-0.8201-2.7214
	c4.5427-3.9698,9.6003-7.3362,12.5337-9.5643c9.0078-6.8425,18.0375-13.9821,24.2456-23.5994
	c6.2696-9.7125,9.2339-21.0046,9.7963-32.5284c1.6414,1.8796,3.2788,3.7592,4.8409,5.6855c0.8216,1.0131,1.6267,2.0464,2.4211,3.091
	c4.0653,10.2968,6.2569,21.3919,6.6913,32.4052c0.9607,24.3502-6.9016,53.2026-26.4705,69.3409
	c-4.5006,2.8291-9.5658,5.0105-14.85,6.4438c-9.2855,0.7915-18.7327-0.7327-27.6557-5.2916
	c-1.5256-0.7795-2.6933,1.2943-1.3266,2.2694c2.5108,1.792,5.1222,3.2717,7.8068,4.4663c-2.328-0.3364-4.6178-0.8309-6.8305-1.5334
	c-1.6792-0.5332-2.7895,2.0385-1.2073,2.8643c6.8705,3.5854,13.9805,5.3464,21.1702,5.4339
	c0.4371,0.3191,0.9998,0.5328,1.7068,0.5669c9.2018,0.442,17.4102-2.2636,24.6013-6.868
	c6.5443-2.2271,12.8378-5.3902,18.5329-9.2456c-8.2358,9.9939-18.1198,18.7624-28.6151,25.9323
	c-31.2933,21.379-68.3258,32.083-101.5293,49.9622c-0.3103,0.1671-0.6215,0.3437-0.9322,0.5121
	c1.6516-1.4866,3.3158-2.9594,5.0029-4.4048c4.6005-3.9406,9.3533-7.6703,14.1875-11.3177
	c3.4574-2.6085,7.1831-5.4246,8.3891-9.8158C128.491,935.4664,119.4681,931.5162,115.1769,925.2252z M165.2551,869.6932
	c-2.6804-4.4653-1.2006-9.0972,2.0376-13.4147c0.6722,3.5336,0.5805,7.2059-0.6539,10.5729
	C166.2688,867.8596,165.7982,868.8026,165.2551,869.6932z M176.3463,726.973c-0.2083-0.7288-0.402-1.4615-0.6246-2.1862
	c0.1581,0.3026,0.3157,0.6058,0.4736,0.9086C176.2457,726.1214,176.2942,726.5475,176.3463,726.973z M602.9199,907.8481
	c-0.2687,0.3464-0.3683,0.8079-0.3499,1.2628c-1.5787-4.2089-2.4051-8.7132-2.5719-13.1838
	c-0.0383-1.0316-0.0333-2.0594-0.0089-3.0853c0.6634-1.5531,1.3899-3.0317,2.1325-4.4076
	c3.9948-7.4044,9.3082-13.6992,13.7111-20.7585C616.0392,882.5327,612.1706,895.9206,602.9199,907.8481z M184.7372,1113.7069
	c-1.4428,20.8806-13.9477,38.6293-27.2225,54.2015c5.0733-12.6486,9.1169-28.9407-2.8096-39.1302
	c-1.9828-1.6941-4.2136-3.1233-6.5598-4.3934c0.2584-5.1044-0.4283-10.2524-1.8732-15.1578
	c3.9844-3.2968,5.0247-8.3619,4.353-13.3779c-1.5746-11.7517-10.481-21.2095-16.341-31.0466
	c-4.1589-6.9819-6.2815-14.9373-6.4298-22.9063c0.2573-0.665,0.5062-1.3158,0.7221-1.9308
	c1.2167-3.4619,2.7263-6.9167,4.4327-10.1682c3.1345-5.9725,7.4684-11.3152,12.7403-15.5411
	c8.6428-6.9281,19.2252-10.6595,29.6538-14.2668c-1.2043,1.3299-2.3788,2.6911-3.506,4.1015
	c-10.3199,12.9113-17.6452,30.1727-14.1842,46.6951c-0.0797,0.8732-0.1398,1.7512-0.1725,2.6354
	c-0.5057,13.67,5.8,25.47,14.0661,35.8544c4.0522,5.0907,8.707,9.8494,12.9064,14.9196
	C184.8646,1107.3042,184.9604,1110.4738,184.7372,1113.7069z M189.4801,695.4118c-9.0959-13.6996-16.9704-28.4094-20.6141-44.5579
	c-3.5909-15.9108-1.4322-31.8626,4.6931-46.8666c5.994-14.6813,15.11-27.8818,24.3262-40.769
	c9.3199-11.7355,18.154-23.6818,24.9454-37.2631c1.2376-2.4752,2.4092-4.9811,3.5263-7.5089
	c1.8853-3.8874,3.6228-7.8601,5.1584-11.9514c0.2964-0.7907,0.4175-1.6054,0.398-2.4156c2.5211-7.5941,4.4411-15.375,5.6667-23.2961
	c0.1449,1.1978,0.2982,2.3945,0.4278,3.5945c-1.0773,22.5482-6.0282,44.8385-15.9629,65.2874
	c-6.5147,13.4089-16.5995,26.3081-16.5758,41.8766c0.0039,2.7245,0.3058,5.3849,0.8235,7.9955
	c-0.2444,0.4144-0.4911,0.8276-0.7346,1.2425c-6.2304,10.622-12.2902,21.6786-15.1981,33.7413
	c-2.8327,11.751-2.5619,23.9941-0.4161,35.8332c2.4426,13.4762,7.3428,26.2529,13.1337,38.6111
	c2.0987,4.4781,4.2071,8.9999,6.3617,13.5113c-0.0417,0.0981-0.0787,0.1979-0.1201,0.296
	C202.5375,713.7802,195.7132,704.7993,189.4801,695.4118z M259.82,774.0695c-2.0725,5.7101-3.8444,11.5319-5.3498,17.4229
	c-6.0755-14.2587-15.522-28.9888-14.4859-44.7607c1.0235-15.5748,15.5311-23.9629,25.1423-34.3356
	c2.6833-2.8961,4.8839-5.9229,6.706-9.0451c0.1168,0.4619,0.2755,0.8984,0.3768,1.3697
	c3.3821,15.7354-1.6903,33.0904-5.9659,48.1806C264.2339,759.9944,262.0094,767.027,259.82,774.0695z M228.7689,658.3543
	c0.5706,3.278,0.8348,6.5843,1.0372,9.8942c-1.0078,9.408-3.3166,18.5388-7.2413,27.1659
	c-3.407,7.488-7.4412,14.7462-10.9365,22.1835c-0.7078-1.5211-1.404-3.0424-2.0772-4.5663
	c-5.1339-11.6188-9.9168-23.5319-12.892-35.9084c-3.0918-12.8626-4.1781-26.4879-1.1883-39.4783
	c2.4699-10.7307,7.6046-20.4811,13.1552-29.9066c0.1969,0.5403,0.4193,1.0734,0.6294,1.6101
	c-0.0568,1.4692-0.0805,2.9446-0.0484,4.4297c0.2239,10.3301,2.7854,20.8417,8.3463,29.6328
	c2.9879,4.7236,6.6706,8.8104,10.7135,12.5381C228.4268,656.7526,228.6283,657.547,228.7689,658.3543z M133.7807,568.0414
	c0.0035-0.406,0.0039-0.8129,0.0097-1.218c0.2855-1.3338,0.606-2.6622,0.9496-3.988
	C134.3902,564.5627,134.0745,566.299,133.7807,568.0414z M254.9831,461.0938c2.0211,10.7206,2.0122,22.0878,0.1652,32.8438
	c-0.2472-6.7397-0.8104-13.4586-1.9321-20.0158c-0.0726-1.5458-0.1593-3.091-0.2823-4.6344
	c-0.4028-5.0576-1.1036-10.0398-2.0118-14.9724c-0.6753-5.4943-1.4384-10.9773-2.2294-16.4566
	C251.1116,445.5176,253.4931,453.1915,254.9831,461.0938z M790.9519,397.0987c3.7186,3.716,7.468,7.4132,11.2075,11.1224
	c2.4249,2.9343,4.8626,5.8555,7.3281,8.7519c10.155,11.9282,20.932,23.3365,31.3995,35.0048
	c6.8251,9.9275,12.7599,20.4477,18.2268,31.2273c1.4743,2.9071,2.9426,5.8285,4.4058,8.7567
	c-10.5173-15.9862-21.9432-31.3756-34.059-46.2852c-17.025-20.9507-34.9694-41.1666-51.9858-62.1251
	C781.9678,388.0666,786.4465,392.5962,790.9519,397.0987z M722.6092,328.4676c17.2344,27.2956,38.1312,52.1183,59.249,76.49
	c26.0961,30.1175,52.4001,60.0213,74.0161,93.6184c2.638,4.1001,5.1971,8.2498,7.7115,12.4268
	c-0.304,1.9163-0.586,3.7995-0.8713,5.5759c-0.1951,1.2142-0.3547,2.4357-0.5152,3.657
	c-15.1954-27.7534-33.331-53.6206-53.3096-78.2059c-23.7959-29.2833-49.4202-57.105-71.7385-87.5715
	c-8.227-11.2307-15.9927-22.8166-23.0026-34.8445C716.8347,322.6804,719.7055,325.5871,722.6092,328.4676z M144.1084,577.7544
	c1.2742-12.1575,4.1906-23.9687,8.0325-35.547c0.4095-0.8944,0.8191-1.7986,1.2354-2.7139
	c2.9693-6.5356,5.9387-13.0714,8.8978-19.6121c6.0425-13.355,12.0854-26.7101,18.1278-40.0647
	c5.6463-12.4793,11.4443-25.0228,16.1891-37.881c0.3072-0.8316,0.5801-1.6824,0.8681-2.5251
	c1.5422-3.8758,2.9315-7.8139,4.0898-11.8361c0.5849-2.0309,1.0885-4.0698,1.5542-6.112
	c0.9135,10.8026,1.6572,21.5485,1.7295,32.1423c0.0894,13.1387-0.8869,26.2711-4.2618,39.0087
	c-3.504,13.2238-9.7629,25.0361-17.3283,36.3656c-15.0694,22.5673-32.9219,43.3076-39.6018,70.1597
	C143.2556,592.0071,143.3642,584.8577,144.1084,577.7544z M284.5708,790.5339c-0.0998,0.119-0.1991,0.2403-0.2989,0.3594
	c-0.6441-1.1352-1.2838-2.2728-1.9051-3.4201c-0.1175-0.2169-0.2304-0.4372-0.3467-0.6552
	c0.8851-3.3723,1.9256-6.7133,3.1451-10.0186c3.7311-10.1131,8.9063-19.6293,13.8759-29.1691
	c4.8654-9.3386,10.9467-19.3365,13.1436-29.7324c0.7306-3.4574,0.8161-6.7611,0.3322-9.888
	c0.3214-5.186-0.3913-10.4578-1.9059-15.0032c-4.5431-13.6365-14.944-23.4985-26.1986-31.8514
	c-1.1904-6.1636-2.7726-12.2756-4.2024-18.2272c-1.4345-5.9713-2.8682-11.9429-4.3017-17.9146
	c4.4442,6.8292,10.25,12.8797,16.2579,18.1176c0.1018,0.0888,0.2102,0.1736,0.3125,0.2622c0.6487,1.5929,1.3476,3.1665,2.112,4.7123
	c5.6894,11.5049,14.8913,19.9998,25.5139,26.9145c2.7572,1.7947,5.6201,3.4775,8.4992,5.1506
	c4.2334,9.4163,5.4388,19.8736,4.5863,30.326c-0.162,1.9882-0.4046,3.9523-0.7104,5.8964
	c-2.6052,8.9567-5.8546,17.7372-10.4217,25.8914C312.0746,760.11,297.6112,774.9745,284.5708,790.5339z M327.5373,923.0748
	c-2.6917-3.6613-5.7755-6.7719-9.5466-9.3355c-0.8155-0.5544-1.6744-1.0339-2.5478-1.488c-0.9998-1.3859-1.9909-2.778-2.9363-4.188
	c2.0545,1.1312,4.1953,2.1895,6.4129,3.1869c8.6925,3.9106,17.4075,7.7552,26.1651,11.5182
	c0.9064,0.3892,1.8253,0.7776,2.7526,1.1619c3.0504,1.8243,5.9789,3.8412,8.6624,6.2029c4.2493,3.7399,6.9453,8.3624,8.5231,13.486
	c-0.2075,4.3469-0.7034,8.673-1.5291,12.9122c-1.8748,9.6273-4.9487,20.5486-11.0532,28.4435
	c-3.0253,3.9136-7.0342,6.742-11.9695,7.5438c-4.0873,0.6639-7.1703-0.6999-10.6168-2.1409
	c0.6222-2.3904,1.2118-4.7881,1.7251-7.2023c0.9837-4.6264,1.2409-9.3143,0.5981-13.871
	c2.3688-6.2532,3.7492-12.8466,3.7054-19.7679C335.8234,940.1929,333.1016,930.6429,327.5373,923.0748z M320.6409,1032.1908
	c0.868-0.6862-0.2382-1.9697-1.1436-1.4822c-0.333,0.1792-0.6424,0.3792-0.9625,0.5698c-0.1314-0.2802-0.4105-0.4636-0.7951-0.3253
	c-1.399,0.5023-2.7672,1.2504-4.0954,2.1333c5.5397-11.5521,10.4783-23.3921,14.1832-35.5402
	c0.4649,0.4217,0.9652,0.8401,1.5394,1.2556c3.6332,2.6283,8.1184,4.0447,12.532,4.5969
	c10.1631,1.272,20.0582-2.7832,28.0554-8.8437c12.7163-9.6359,22.1724-23.9262,27.7465-39.1465
	c0.9516,1.6203,1.8519,3.2695,2.699,4.9397c0.3718,2.1689,0.7157,4.338,0.9542,6.5081c1.104,10.0504,1.6338,20.133,1.5925,30.244
	c-0.0406,9.815-0.6581,19.6317-1.88,29.3709c-1.2479,9.9449-2.9655,20.2178-7.1929,29.3894
	c-7.0378,15.2676-20.8741,26.271-35.2304,34.3353c-7.9287,4.4537-17.1613,7.9886-26.2417,5.0099
	c-7.6385-2.5054-13.4254-8.7355-17.3132-15.5664C306.7218,1064.9401,306.3554,1043.483,320.6409,1032.1908z M217.6692,1084.9772
	c-0.5259-1.3903-1.1122-2.7793-1.7778-4.166c-3.4198-7.1229-8.3374-13.4984-11.3997-20.7958
	c-2.4619-5.8669-3.3176-12.3158-2.5937-18.6337c0.7185-6.2711,3.0309-12.3158,6.5562-17.5356
	c4.3117-6.3843,10.8817-10.7535,16.8814-15.3906c1.2577-0.9721,2.481-1.9888,3.6715-3.0413
	c0.6855,3.2728,1.1364,6.5494,1.2068,9.9748c0.2191,10.7251-1.4263,21.4246-3.0027,32.0017
	c-0.0539,0.3602-0.114,0.7196-0.1682,1.0798C224.4324,1060.7401,221.1905,1072.8838,217.6692,1084.9772z M310.3513,1087.2654
	c0.2152,0.3296,0.4549,0.653,0.6783,0.9807c-0.3338-0.3019-0.6987-0.5696-1.021-0.8835c-1.4371-1.8676-2.6476-3.8922-3.5562-6.0488
	c-1.105-2.6228-1.8246-5.4191-2.2233-8.2605C305.5427,1078.2308,307.6569,1083.1388,310.3513,1087.2654z M738.2991,1358.0897
	c6.298,1.3248,12.6544,1.8539,18.9523,1.4958c7.1455-0.4064,14.0704-2.0675,20.5561-4.7891
	c-0.3951,0.3391-0.7552,0.6957-1.1675,1.0262c-7.0388,5.6456-16.0826,9.9844-25.3082,11.1068
	C746.6849,1364.6244,742.3337,1361.5105,738.2991,1358.0897z M541.7838,395.39c-6.0233,17.0184-14.6247,33.5411-25.9795,47.6328
	c-12.67,15.7234-28.2825,27.6485-45.6206,37.8245c-0.6118,0.3592-1.2523,0.7087-1.8685,1.066
	c0.0547-2.0172,0.1695-4.0374,0.4136-6.0641c0.3642-1.6685,0.7929-3.3224,1.2714-4.9616c0.2066-0.2091,0.4082-0.4215,0.6167-0.6298
	c11.922-11.9252,24.2144-23.2786,34.787-36.4788c10.3777-12.957,19.5453-26.8823,26.2956-42.0857
	c8.2074-18.4848,12.3203-37.93,15.2134-57.6599c1.2556,14.4726,1.5495,28.9868,0.2073,43.4389
	C545.6307,383.4707,543.8875,389.4463,541.7838,395.39z M932.9287,609.203c-0.1851-1.5662-0.3823-3.1355-0.5881-4.7065
	c-0.0031-0.4181-0.0446-0.8205-0.0633-1.2326c1.4-11.3535,3.5204-22.5851,5.9774-33.7503
	c2.7125-9.1329,5.6686-18.1917,8.3189-27.3436c6.8612-23.6931,8.6531-48.2009,3.4382-72.4316
	c-3.0049-13.9619-8.1454-27.0066-14.4359-39.5407c11.8636,19.3739,21.1786,40.0508,24.4543,62.8785
	c3.9318,27.3988-2.9386,53.1838-12.7109,78.5579c-4.9081,12.7441-10.2739,25.3723-14.2961,38.438
	C932.9897,609.7827,932.9631,609.4924,932.9287,609.203z M201.0687,953.8868c-7.9634,7.7827-16.6814,14.5913-26.2582,20.2792
	c-9.7343,5.7814-20.2648,10.2069-29.789,16.3328c-17.7107,11.3911-28.8553,30.3604-27.7308,51.7556
	c0.6294,11.9749,5.0626,22.7437,12.288,32.2385c3.9456,5.1846,8.0925,10.1699,11.0102,16.0464
	c1.41,2.8397,2.7589,6.0082,2.656,9.2444c-0.0176,0.5543-0.0976,1.1206-0.2127,1.6857c-0.0998-0.1785-0.1783-0.3639-0.281-0.5417
	c-2.1828-4.4333-5.2198-8.4385-9.1752-11.6957c-12.4055-10.2156-31.6218-13.5245-31.6013-33.0662
	c0.0173-16.9528,11.0703-33.7239,21.5535-46.2812c22.0539-26.4163,52.4132-44.0552,80.9757-62.4533
	c2.2357-1.4401,4.4695-2.897,6.6875-4.3802C207.9751,946.7981,204.6123,950.4238,201.0687,953.8868z M146.8365,1133.1433
	c1.5778,1.0349,3.0041,2.1896,4.1731,3.5059c5.5025,6.1946,4.3548,15.2952,2.355,22.6143
	c-2.0104,7.3586-4.7332,14.58-7.7881,21.5916c-0.8831,1.0698-1.7629,2.14-2.6523,3.1921c-0.8659,1.0239-1.7251,2.0531-2.583,3.083
	c-10.6737,11.7515-21.1911,23.6614-29.4587,37.2689c-5.7445,9.4554-10.2462,20.0056-12.7045,30.9484
	c-1.2275-1.4729-2.4548-2.9146-3.4377-4.3691c-3.2975-4.8792-5.7914-10.0992-7.1416-15.8457
	c-0.2537-1.0797-0.4612-2.1877-0.6433-3.3065c-0.1185-2.8182-0.0294-5.6472,0.2582-8.4335
	c0.5342-5.1711,1.9165-10.2078,3.788-15.0464c0.1157-0.2991,0.2511-0.5836,0.3753-0.8765
	c3.2245-4.4038,6.9177-8.427,10.6003-12.4768c10.1034-11.1113,20.8933-21.8916,30.1611-33.72
	C138.6959,1152.9032,144.3324,1143.504,146.8365,1133.1433z M172.8446,1176.1293c8.4582-10.7751,16.1425-22.4537,21.2168-35.0858
	c-1.5164,5.4091-3.8976,10.6647-6.5236,15.5084c-7.2801,13.4293-16.4557,25.7701-27.0407,36.7697
	c-3.2584,3.386-6.6935,6.5599-10.2041,9.6443C157.7881,1194.0005,165.6269,1185.3245,172.8446,1176.1293z M188.4566,1239.8527
	c0.1923,1.2272,0.4056,2.4509,0.6309,3.6724c1.0515,21.0192,6.1035,41.8157,15.779,60.5853
	c3.1205,6.0537,6.7367,11.775,10.6286,17.3104c-0.0025-0.0017-0.0049-0.0038-0.0073-0.0054
	c-9.2906-6.2488-19.5103-10.937-29.7124-15.4713c-5.1242-2.2772-10.2655-4.5178-15.3344-6.9169
	c-5.0212-2.3763-10.7311-4.7396-14.7058-8.7332c-8.3205-8.3605-3.7444-21.4629,0.3726-30.7416
	c4.654-10.4884,10.3292-20.5027,16.0778-30.4198c5.1373-8.8623,10.424-17.7458,15.2574-26.843
	C186.293,1214.7678,186.4791,1227.2509,188.4566,1239.8527z M650.9334,1492.1171c1.9156-2.7264,4.363-4.6255,7.0804-6.0404
	c-1.7323,2.717-3.4958,5.5161-5.7164,7.7751c-1.1927,1.2135-2.393,1.9904-3.5751,2.3989
	C649.311,1494.7415,650.0698,1493.3463,650.9334,1492.1171z M603.1163,910.4332c0.155,0.1444,0.3444,0.2361,0.5582,0.2846
	c-0.1147,0.0765-0.2327,0.1484-0.3483,0.2237C603.2521,910.7739,603.1876,910.6022,603.1163,910.4332z M653.9472,202.4484
	c1.0035,6.2506,1.9307,12.5151,2.9534,18.7593c1.802,11.0055,3.549,23.1758,8.144,33.6799
	c0.7587,2.6239,1.5974,5.2345,2.5251,7.8312c2.6828,7.5058,5.9441,14.7601,9.8088,21.7312
	c3.3874,6.1107,7.0032,13.5078,12.0648,18.6791c1.3231,2.4933,2.6671,4.9584,4.0317,7.3842
	c18.5966,33.0624,43.0617,62.2336,67.8121,90.7973c26.0961,30.1175,52.4003,60.0214,74.0161,93.6184
	c9.2833,14.4289,17.7684,29.3652,25.4984,44.6821c-0.0486,0.5091-0.0903,1.0185-0.1368,1.5278
	c-24.6658-30.6687-52.965-58.3087-81.6425-85.2141c-32.4717-30.4651-66.3675-60.8254-90.2711-98.8257
	c-12.125-19.2751-20.9797-40.2232-25.46-62.5861c-4.9433-24.6724-5.2639-49.9419-7.9791-74.8913
	c-0.6506-5.9796-1.454-11.9619-2.4614-17.9079C653.2193,201.9539,653.5798,202.2065,653.9472,202.4484z M129.3462,807.7973
	c-15.0637-15.7787-18.1867-39.7635-8.8681-59.2387c5.3276-11.1338,13.4863-20.5657,22.034-29.3437
	c5.8863-6.045,12.8395-11.7183,17.8597-18.6278c1.2789,2.285,2.6183,4.5352,4.0068,6.7568c0.3831,0.7852,0.787,1.5605,1.1499,2.3552
	c3.5637,7.8044,6.2574,16.0337,7.9964,24.435c1.6845,8.1374,2.4511,16.4634,2.2887,24.7719
	c-0.0583,2.97-0.2404,5.9406-0.5289,8.8993c-2.2436,5.356-5.0791,10.6187-8.4629,15.365c-1.4561,1.2207-3.0566,2.2754-4.8186,3.1147
	c-5.7572,2.7423-12.5688,2.9366-17.9988-0.6786c-5.2442-3.4916-7.7992-8.6967-11.3035-13.6587
	c-0.3179-0.4498-1.1143-0.1964-0.9376,0.3951c3.472,11.5977,12.3952,22.5717,25.3367,22.4362
	c5.4811-0.0575,10.3675-1.889,14.5656-4.8218c-1.3468,1.2326-2.7699,2.3549-4.2685,3.3207
	c-7.4805,4.8222-18.2379,6.027-25.6413,0.2856c-0.7901-0.6127-1.8845,0.3796-1.133,1.1334
	c14.8171,14.8702,36.1667,1.8605,45.1461-12.9822c4.7095-7.7853,7.0771-16.7765,7.1763-25.8568
	c0.0348-3.1714-0.1251-7.145-0.8316-11.0276c0.0266-0.7526,0.0076-1.5165-0.015-2.2811c2.6483,3.0141,5.297,6.0287,7.9205,9.067
	c1.3856,1.6048,2.7562,3.2274,4.1165,4.86c0.8993,4.6851,2.5547,9.2115,4.9803,13.4107c1.714,2.9675,3.7498,5.7117,5.9107,8.3652
	c0.6967,13.9452-2.3046,27.7892-11.0917,39.395c-8.677,11.4603-21.3274,18.9702-32.0777,28.2565
	C163.4535,828.4921,142.3113,821.3779,129.3462,807.7973z M62.3466,959.7026c5.4228-14.0837,16.0075-26.2205,25.7097-37.5441
	c9.6089-11.2147,20.0239-21.7934,31.9762-30.5276c10.0059-7.3121,22.8494-12.8578,27.698-25.1312
	c5.1053-12.923,0.7591-26.3005-4.784-38.3469c8.6513,5.8417,17.8252,12.1505,22.3068,21.8267
	c0.2431,0.5248,0.468,1.0635,0.6803,1.6088c-2.2086,2.532-3.9951,5.3813-4.662,8.6935c-0.8306,4.1262,0.0539,8.1954,2.7562,11.1686
	c-2.6653,3.3713-6.4881,5.8252-10.3621,7.6512c-11.0184,5.1934-22.9372,6.8713-33.0246,14.1766
	c-5.6004,4.056-11.0504,9.4702-14.297,15.8289c-2.5317,4.57-3.9564,9.6246-3.5824,14.515c0.4384,5.7426,3.2053,9.843,7.4336,13.5229
	c0.8988,0.7821,2.238,1.6954,2.7927,2.7722c1.1423,2.2164-0.6416,4.1257-1.9887,5.743c-2.2357,2.6844-4.8952,4.9943-7.6042,7.186
	c-11.3031,9.1426-22.5934,17.8035-32.5971,28.4431c-4.2387,4.5085-8.4541,9.2526-12.4211,14.2068
	C57.8387,983.3915,58.0234,970.9293,62.3466,959.7026z M66.705,1095.8799c-6.8972-5.1317-11.5369-11.9386-13.6004-20.2911
	c-0.8098-3.2783-1.3177-6.6237-1.7597-9.9731c7.6477,8.4562,17.5959,15.3435,25.9198,22.3761
	c6.6706,5.6354,13.6409,12.3035,18.7787,19.9132C85.6262,1105.4542,75.3659,1102.3243,66.705,1095.8799z M94.001,1094.2599
	c-2.8973-3.1351-6.0853-6.0288-9.3965-8.821c-4.0222-4.5371-8.0124-9.1062-11.8236-13.8182
	c-8.3241-10.2916-15.8343-21.8877-20.2688-34.4971c-0.1807-1.3705-0.3179-2.7468-0.3807-4.1273
	c-0.1322-2.8934,0.1492-5.7745,0.475-8.6486c3.2317-10.9023,11.2196-19.4376,18.1679-28.5193
	c10.6212-9.0623,22.91-16.3695,35.0907-22.8351c33.0313-17.5338,69.0608-29.4317,99.6951-51.3702
	c13.3846-9.585,25.84-21.9846,34.9254-36.1851c-0.0046,0.3076-0.0201,0.6132-0.0222,0.9213
	c-0.7096,3.5561-1.3203,7.1332-1.8732,10.7164c-0.3388,2.1932-0.6567,4.3892-0.9688,6.5857
	c-3.9234,7.4145-8.2243,14.6345-12.9136,21.5845c-8.4323,6.9935-17.8831,12.8942-27.0928,18.7165
	c-28.7511,18.176-59.2631,36.0862-80.9947,62.8553c-10.4351,12.8542-20.1597,28.3851-21.9426,45.1867
	c-0.8632,8.1329,0.6708,16.489,5.6814,23.1019c4.8307,6.3756,11.9936,10.067,18.825,13.8909
	c7.1982,4.0297,13.6294,8.5314,17.128,16.2943c0.346,0.7678,0.6117,1.5653,0.896,2.3558c-0.4124,0.0299-0.8284,0.0529-1.2799-0.0133
	c-1.575-0.2308-2.7303,1.8092-1.1525,2.7339c1.1567,0.6781,2.3732,1.0751,3.6004,1.2526c0.6516,2.8639,0.9896,5.8031,0.9681,8.7524
	c-1.5738-0.6287-3.1417-1.2347-4.67-1.8325c-7.6883-3.0063-15.5853-5.3829-23.6187-7.2697
	c-1.9607-0.4604-3.9407-0.8995-5.9308-1.3353C102.1967,1104.2322,98.324,1098.9376,94.001,1094.2599z M80.4153,1184.3446
	c10.5001-14.1611,25.3113-26.3552,29.3505-44.3199c1.5533-6.9087,1.1138-13.731-0.7141-20.2186
	c7.1002,1.6802,14.1634,3.5081,21.0535,6.0851c2.5158,0.9413,5.4028,1.9164,8.2863,3.0596
	c-0.1728,0.8032-0.3607,1.6018-0.5779,2.3896c-5.2399,18.9985-21.2068,32.4933-35.7286,44.6287
	c-11.2912,9.4354-24.1375,19.7318-31.8592,32.7615C70.9498,1200.0659,75.3629,1191.1586,80.4153,1184.3446z M73.0662,1356.1051
	c-6.7998-3.0142-13.3831-6.7928-18.9536-11.7587c-12.4986-11.1411-17.2598-27.2297-17.4602-43.5682
	c-0.194-15.8518,3.5361-31.8799,9.6307-46.4619c3.3629-8.0459,7.7034-15.3429,12.4518-22.3998
	c-1.3026,2.5604-2.4631,5.1548-3.5009,7.6432c-3.4311,8.231-5.5212,16.8845-6.5282,25.7354
	c-2.2784,20.0281,1.7394,40.4517,8.6722,59.2175c4.3053,11.6539,10.0073,23.1207,18.0775,32.5671
	C74.643,1356.7703,73.843,1356.4495,73.0662,1356.1051z M164.9048,1367.0864c-0.3869-0.0647-0.7756-0.1014-1.1664-0.0895
	c-1.7171-0.1073-3.42-0.0543-5.1157,0.1056c-0.105,0-0.2079-0.0107-0.3133-0.0096c-5.7113,0.0605-12.7157,1.2013-18.3634,3.635
	c-6.2801,1.0992-12.6445,1.688-19.0276,1.3936c-1.6871-0.0779-3.3348-0.2529-4.9597-0.4817
	c-2.3039-0.552-4.589-1.1923-6.8452-1.9375c-7.2817-2.4041-14.1803-5.9563-20.3163-10.4976
	c-3.11-2.6265-6.0175-5.5881-8.7135-8.8434c-19.4212-23.45-26.3314-55.1904-23.1558-85.0303
	c0.9108-8.5594,2.6413-17.2761,5.6276-25.4537c0.4193-0.9097,0.8459-1.8163,1.3008-2.7095
	c0.9038,6.1246,3.2401,12.0653,6.968,16.7992c0.7056,1.2627,1.4971,2.4718,2.4013,3.6019c3.8713,4.8408,9.9725,5.6071,14.135,9.8271
	c4.4055,4.4661,4.1451,11.9635,2.7472,17.6172c-2.221,8.9812-14.0059,32.506-25.5049,19.3965
	c-0.2978-0.3395-0.8018,0.0933-0.6042,0.4661c4.8641,9.1787,17.3377,5.0337,22.6518-1.1221
	c4.483-5.1932,8.5092-12.0101,10.3594-19.1355c2.0203,12.036,7.5556,22.3427,15.536,30.7789
	c2.5856,3.7493,5.5771,7.2114,9.006,10.2467c6.7154,5.9442,14.5798,10.0414,22.873,13.1902
	c4.2922,3.738,8.4086,7.6346,12.0882,11.9233c4.3698,5.093,8.0564,10.7651,11.0917,16.7737
	C166.7001,1367.3368,165.7995,1367.1816,164.9048,1367.0864z M222.8836,1540.0939c-8.1567,12.8608-17.4917,25.3721-23.8935,39.144
	c-4.0116,1.5375-8.1611,3.0247-12.3542,3.8481c-5.1846,1.0187-10.5246,1.0837-15.7885,1.3553
	c-4.5586,0.2351-9.1792,0.5228-13.7392,0.3495c-0.5966-0.0227-1.1917-0.0609-1.7857-0.1093
	c-4.1019-1.0193-8.1984-2.0009-12.2425-3.1692c-2.2086-1.0496-4.5791-1.9113-6.6008-2.9858
	c-4.3013-2.287-8.4081-4.9054-12.1838-7.9913c-4.0703-3.3264-7.3682-7.1536-10.553-11.1027
	c1.2661,1.0212,2.5576,2.0092,3.8864,2.9336c1.0356,0.8372,2.1405,1.5592,3.3047,2.158c3.4733,2.125,7.0801,3.9048,10.7164,5.2234
	c7.8392,2.8431,16.51,3.6295,24.7945,3.8347c9.7682,0.2423,19.402-0.3182,28.9499-2.42c0.1936-0.0426,0.1544-0.3639-0.0477-0.3499
	c-16.7055,1.1714-35.5853,2.5051-51.6657-3.1804c-8.1036-2.8651-14.3442-7.7217-19.9402-13.3921
	c-2.3296-4.0166-3.8058-8.4746-4.6574-13.0291c-0.999-5.3395-0.9625-10.8351-0.4559-16.2264
	c0.1366-1.4542,0.3873-2.936,0.6754-4.4307c0.2354,1.7134,0.4936,3.4077,0.7519,5.0597c1.0235,6.5487,2.8416,13.0223,5.7081,19.0112
	c4.3423,9.0713,12.8151,19.5837,23.239,21.7092c0.2124,0.0432,0.3486-0.2395,0.1509-0.358
	c-4.7568-2.8535-9.1414-5.2638-12.953-9.4402c-4.049-4.436-7.203-9.7535-9.3983-15.334c-2.1569-5.4828-3.4234-11.2847-4.3031-17.097
	c-0.0606-0.401-0.1046-0.8047-0.1563-1.207c1.0426,2.9626,2.2192,5.8765,3.4641,8.731c3.7466,8.5931,8.2924,17.286,15.6718,23.3265
	c15.4207,12.6226,36.9746,10.3765,54.0616,2.7697c8.946-3.9827,17.8701-9.2534,24.2679-16.8043
	c5.9413-7.0121,9.6287-15.5591,11.4166-24.5308c1.7154-8.6091,2.9801-18.6487-1.0857-26.7898
	c-3.7761-7.5618-11.3785-12.3402-19.0165-15.3217c-6.7894-2.6501-14.1056-3.8241-21.0964-5.8788
	c-0.3195-0.1847-0.6463-0.3553-0.9624-0.5479c-6.6207-4.0371-12.3988-10.116-14.0843-17.9059
	c-0.9721-4.493,0.0348-8.5084,1.8262-12.2969c3.8505-0.733,7.5827-2.5444,10.5267-5.2051
	c10.3826-9.3835,11.22-25.5398,9.843-38.4857c-1.5529-14.5928-6.2085-28.6466-13.96-41.1357
	c-1.4468-2.3313-3.0177-4.5504-4.6509-6.7133c1.9641,0.5399,3.9244,1.0916,5.8755,1.6719
	c6.4788,2.7432,12.8026,5.8097,18.7556,9.6527c9.6071,6.2018,17.66,14.6135,21.6649,25.485
	c1.7336,4.7069,2.6937,9.6499,2.5215,14.6744c-0.0499,1.454-1.6704,11.7108-4.2088,14.4467
	c-2.3056-0.4175-5.023,0.4894-7.2957,0.109c-2.0318-0.3398-3.7506-1.2167-5.254-2.4012c-2.6212-3.163-4.6655-7.0878-6.0046-9.8085
	c-0.4002-0.8125-1.7434-0.2449-1.4646,0.6174c0.5195,1.609,1.2509,3.4718,2.1671,5.4011c0.5555,2.23,1.7477,4.2329,3.3432,5.8845
	c3.8139,5.6105,9.1142,10.1478,15.3402,8.661c9.8239-2.3464,15.6219-13.9751,16.3836-23.1874
	c1.9014-22.9896-15.8703-45.3618-35.0702-55.7819c-10.2204-5.5465-21.4231-8.6792-32.5157-11.9263
	c-5.0337-1.4734-10.1735-3.0349-15.1047-5.0411c-0.5004-0.4321-0.9941-0.87-1.4978-1.2991
	c-8.2845-7.0585-17.7275-14.6311-24.6366-23.3638c-0.5428-1.5919-1.0872-3.1827-1.525-4.793
	c-1.4055-5.1687-1.9913-10.4177-1.8899-15.77c0.2106-11.0803,3.4176-22.05,7.2885-32.3605
	c0.6941-1.8485,1.4517-3.6703,2.2033-5.4948c4.5031-4.7609,9.5123-9.0923,14.4532-13.1752
	c12.2381-10.1132,24.4936-19.8621,34.999-31.8516c3.4045-3.885,6.7137-7.9287,9.8762-12.099
	c-6.0698,13.7032-13.6345,26.8037-20.492,38.5835c-5.9081,10.149-11.7538,20.3645-16.6468,31.0513
	c-4.0448,8.8353-7.8592,18.5403-6.4738,28.444c1.5092,10.7871,9.518,16.8789,18.6942,21.4626
	c10.2685,5.1289,20.9495,9.369,31.2892,14.3459c18.7916,9.0454,34.8133,21.384,46.5252,38.8145
	c11.2266,16.709,18.2721,36.2439,20.6493,56.2214c2.6391,22.1777-0.3552,44.7369-7.0962,65.9446
	c-1.3806,4.3435-2.9745,8.576-4.6705,12.756c-6.937,0.6593-13.0978-5.4266-17.854-10.0469
	c-0.2275-0.2208-0.4692-0.3658-0.7137-0.4528c-0.8052-0.9414-1.5843-1.8822-2.3426-2.7969
	c-0.8859-1.0684-2.6042,0.3092-1.9018,1.4674c0.5708,0.9418,1.1664,1.9109,1.7847,2.892c-0.0859,0.511,0.0396,1.0665,0.504,1.5596
	c0.5092,0.5409,1.0436,1.0953,1.5969,1.6556c3.9876,5.861,8.9146,11.6292,15.1739,14.3962
	C238.6876,1514.3197,231.0063,1527.2864,222.8836,1540.0939z M264.1498,1473.657c-0.8949,2.3044-1.9409,5.0226-3.2448,7.6492
	c6.3985-19.9825,9.4834-40.9324,8.0399-61.7985c-0.8051-11.6378-3.0875-23.2365-6.7506-34.366
	c1.9698,3.8054,3.7267,7.7157,5.1516,11.7648c4.1579,11.8157,6.0067,24.267,5.7962,36.7795
	C272.9057,1447.7567,269.204,1460.6425,264.1498,1473.657z M497.3994,1292.3073c0.537,3.2739,1.3583,6.6624,2.4236,10.0538
	c1.3047,5.5874,3.3591,10.9427,6.1339,15.8444c-3.8198-3.1484-7.0692-6.9767-9.4492-11.715
	c-5.8378-11.6217-6.6213-27.0828-2.5609-39.3456c2.3977-7.2416,6.8272-13.5352,11.6268-19.5316
	c-0.0033,0.1959,0.0182,0.3922,0.0172,0.5883c-3.6407,6.9651-6.3463,14.2592-7.4116,22.0425
	C496.6458,1277.4482,496.1739,1284.8301,497.3994,1292.3073z M664.4215,1530.1809c-0.1104,0.6741-0.4599,1.1433-1.0338,1.4196
	c-1.4156-0.8977-2.7076-1.7725-3.8548-2.941c-0.179-0.46-0.5187-0.8219-0.9344-1.0682c-0.4982-0.6371-0.9648-1.3555-1.3953-2.1946
	c-1.9508-3.8024-1.6448-8.8566-4.0468-12.262c-0.0155-0.0221-0.0382-0.0284-0.0555-0.047
	c-0.3552-1.0356-1.7579-1.0813-2.2382-0.1614c-1.8195-3.3333-3.379-6.7664-3.3466-10.6187
	c0.0062-0.7466,0.0791-1.4746,0.1826-2.1913c2.1224,0.0068,4.3329-0.7408,6.5106-2.5199c0.252-0.2056,0.4866-0.4377,0.7288-0.6576
	c-0.1014,0.7756-0.1678,1.561-0.1736,2.3624c-0.9344,1.7861-0.8231,3.9381-0.1588,6.162c0.0062,2.5833,0.5298,5.1582,1.7032,7.6383
	c1.5559,3.2887,4.1024,5.9093,6.1089,8.9087c0.905,1.3536,1.8195,2.861,2.2076,4.4701c0.0614,0.3693,0.1211,0.7533,0.1758,1.1432
	C664.8574,1528.4906,664.7607,1529.4556,664.4215,1530.1809z M723.7048,1532.6823c0.1851,3.676,1.5104,7.0096,3.5098,9.8193
	c-3.5012,0.8844-7.1145,0.7848-10.8317-1.4158c-3.9634-2.3466-8.1553-7.3234-7.337-12.5433
	c0.7358-4.6957,3.9528-9.1465,6.0803-12.8527c2.4342-4.2404,5.0661-8.2957,7.7657-12.2786c2.9303-4.3237,6.0263-8.624,8.9071-13.109
	c-0.5814,1.72-1.2366,3.4172-1.9672,5.0902C725.1765,1506.0524,719.293,1519.7806,723.7048,1532.6823z M762.3052,1312.8552
	c1.423-1.5632,2.6944-3.2323,3.8497-4.9657c-0.061,0.5698-0.1293,1.1366-0.1836,1.709c-1.3396,3.0431-3.2186,5.7686-5.7634,8.0581
	c-3.0267,2.7229-6.5976,4.5433-10.4424,5.7068c-0.6038-0.0688-1.2018-0.1782-1.8022-0.277
	C753.3929,1320.744,758.3237,1317.2286,762.3052,1312.8552z M702.0835,1276.2191c0.7889-4.0347,2.4633-7.6683,5.0982-10.5538
	c0.0241-0.0265,0.0495-0.0511,0.074-0.0776C705.1753,1268.946,703.3727,1272.4547,702.0835,1276.2191z M704.8998,1157.8723
	c0.3596-0.0605,0.7123-0.2462,1.0145-0.6112c6.4717-7.8116,14.1304-14.4761,21.2366-21.6366
	c-6.3801,11.1295-15.7471,20.593-26.1096,27.994c-1.1424,0.8159-0.9887,2.6439-0.0287,3.3182
	c-1.8806,1.2405-3.8041,2.4232-5.7584,3.5618C698.0198,1165.981,701.3371,1161.8414,704.8998,1157.8723z M536.15,749.6448
	c-0.9513-0.5242-1.9045-1.0375-2.8505-1.5831c-0.0081-0.9491-0.0187-1.8973-0.0272-2.8463
	C534.1547,746.7485,535.1185,748.2232,536.15,749.6448z M523.054,739.3922c-0.8074-1.0607-1.5772-2.1473-2.335-3.2422
	c-1.3378-10.9306-3.5307-21.7686-6.3203-32.4071c-1.5145-5.7771-3.252-11.4616-5.1454-17.0826
	c-0.0766-0.7056-0.1553-1.4112-0.2493-2.1158c-1.1292-8.4786-3.0354-16.9079-5.8751-24.9921
	c-1.2456-6.1006-2.9678-12.1166-5.4713-17.9966c-0.0689-0.1619-0.1491-0.3136-0.2194-0.4743
	c6.0638,8.4183,11.5323,17.1989,15.3235,26.9912C521.6188,690.9488,522.8929,715.0812,523.054,739.3922z M512.0331,642.8847
	c1.5853,3.1323,2.9044,6.3238,4.0168,9.5607c-7.2222-13.0167-16.5212-24.7717-26.0743-36.5443
	c-0.9225-1.137-1.8386-2.2802-2.7495-3.4283C495.823,622.3398,506.0316,631.0286,512.0331,642.8847z M476.9795,597.7413
	c0.6944,1.397,1.4539,2.7463,2.2575,4.0627c-2.2878-3.2822-4.4456-6.6497-6.4161-10.1309c0.001-1.4393,0.0237-2.8786,0.0821-4.3152
	c0.0475-1.1794,0.1113-2.3582,0.1807-3.537C473.5595,588.5505,474.7156,593.1871,476.9795,597.7413z M475.3647,518.6364
	c-0.2527-2.0649-0.6175-4.1144-1.0857-6.1525c5.916-3.2931,11.7773-6.4747,17.412-9.652
	C486.0985,507.9554,480.6027,513.1917,475.3647,518.6364z M567.6881,381.2657c-1.4821,5.9499-3.2463,11.8749-5.3333,17.7713
	c-6.0234,17.0184-14.6247,33.5409-25.9796,47.6328c-6.2327,7.7349-13.1843,14.5423-20.6964,20.6827
	c1.3443-1.312,2.6865-2.6265,3.9792-3.9991c12.4224-13.1908,22.5655-28.5438,30.1563-44.9786
	c9.7766-21.1669,15.7902-43.7637,18.5648-66.8012C568.7689,361.4782,568.6132,371.3868,567.6881,381.2657z M856.05,558.5242
	c-27.9886-39.3195-62.5139-73.3296-97.5988-106.2465c-32.4717-30.4651-66.3675-60.8253-90.2711-98.8257
	c-12.125-19.2751-20.9797-40.2232-25.46-62.586c-4.9433-24.6725-5.2639-49.942-7.979-74.8914
	c-0.9972-9.1637-2.2977-18.3435-4.2557-27.3691c1.5738,0.8245,3.1352,1.6584,4.6734,2.4998
	c4.6976,2.5696,9.2961,5.3133,13.8301,8.1596c1.7912,10.0639,2.8995,20.2423,3.7332,30.4284
	c1.8911,23.1001,2.5794,46.4224,7.4008,69.168c4.3494,20.5195,12.653,39.9749,23.5479,57.8542
	c21.7784,35.7393,52.5677,64.9014,82.8771,93.3046c32.8422,30.776,65.6426,61.9057,93.5608,97.3293
	c-0.3003,3.8957-0.5643,7.7953-0.822,11.7036c-0.0818,1.2398-0.1757,2.4761-0.2653,3.7137
	C858.0378,561.3458,857.05,559.9289,856.05,558.5242z M920.4814,749.5809c-0.1718-4.5698,0.0153-9.1631,0.3732-13.7426
	c-0.2526,7.4363,0.0083,14.8796,1.1951,22.0646C921.3193,755.1409,920.7969,752.3402,920.4814,749.5809z"/>
</svg>
